<?xml version="1.0" encoding="UTF-8" standalone="no"?><!DOCTYPE svg PUBLIC "-//W3C//DTD SVG 1.1//EN" "http://www.w3.org/Graphics/SVG/1.1/DTD/svg11.dtd"><svg width="100%" height="100%" viewBox="0 0 98 90" version="1.1" xmlns="http://www.w3.org/2000/svg" xmlns:xlink="http://www.w3.org/1999/xlink" xml:space="preserve" xmlns:serif="http://www.serif.com/" style="fill-rule:evenodd;clip-rule:evenodd;stroke-linejoin:round;stroke-miterlimit:2;"><path d="M86.438,24.667l-23.033,-23.448c-1.58,-1.605 -4.154,-1.629 -5.758,-0.049c-1.605,1.58 -1.629,4.154 -0.049,5.766l23.057,23.473c1.523,1.523 3.649,3.852 5.823,6.304c1.067,1.205 1.825,2.573 2.33,4.015l-84.736,-0c-2.248,-0 -4.072,1.824 -4.072,4.072c0,2.248 1.824,4.072 4.072,4.072l84.736,0c-0.513,1.442 -1.263,2.81 -2.338,4.016c-2.166,2.451 -4.292,4.78 -5.839,6.328l-23.033,23.448c-1.58,1.604 -1.556,4.186 0.049,5.766c0.798,0.774 1.824,1.165 2.859,1.165c1.05,-0 2.109,-0.407 2.899,-1.214l23.008,-23.423c1.613,-1.613 3.869,-4.073 6.158,-6.662c6.816,-7.689 6.816,-19.287 -0,-26.975c-2.297,-2.59 -4.553,-5.058 -6.133,-6.638l-0,-0.016Z" style="fill-rule:nonzero;"/></svg>