<svg id="&#x421;&#x43B;&#x43E;&#x439;_1" height="512" viewBox="0 0 128 128" width="512" xmlns="http://www.w3.org/2000/svg"><path d="m126 62h-8a54 54 0 0 0 -52-51.95v-8.05a2 2 0 0 0 -4 0v8.05a54 54 0 0 0 -51.95 51.95h-8.05a2 2 0 0 0 0 4h8.05a54 54 0 0 0 52 52v8a2 2 0 0 0 4 0v-8a54 54 0 0 0 51.95-52h8a2 2 0 0 0 0-4zm-60 52v-29.14l13.56 13.55a2 2 0 0 0 2.82-2.82l-17-17a2 2 0 0 0 -2.82 0l-17 17a2 2 0 0 0 2.82 2.82l13.62-13.55v29.14a50.06 50.06 0 0 1 -47.95-48h29.09l-13.55 13.56a2 2 0 0 0 0 2.82 2 2 0 0 0 2.82 0l17-17a2 2 0 0 0 0-2.82l-17-17a2 2 0 0 0 -2.82 2.82l13.55 13.62h-29.09a50.06 50.06 0 0 1 47.95-47.95v29.09l-13.56-13.55a2 2 0 0 0 -2.82 2.82l17 17a2 2 0 0 0 2.82 0l17-17a2 2 0 0 0 -2.82-2.82l-13.62 13.55v-29.09a50.06 50.06 0 0 1 48 48h-29.14l13.55-13.61a2 2 0 0 0 -2.82-2.82l-17 17a2 2 0 0 0 0 2.82l17 17a2 2 0 0 0 2.82 0 2 2 0 0 0 0-2.82l-13.55-13.62h29.14a50.06 50.06 0 0 1 -48 48z"/></svg>