<?xml version="1.0" encoding="UTF-8" standalone="no"?><!DOCTYPE svg PUBLIC "-//W3C//DTD SVG 1.1//EN" "http://www.w3.org/Graphics/SVG/1.1/DTD/svg11.dtd"><svg width="100%" height="100%" viewBox="0 0 85 91" version="1.1" xmlns="http://www.w3.org/2000/svg" xmlns:xlink="http://www.w3.org/1999/xlink" xml:space="preserve" xmlns:serif="http://www.serif.com/" style="fill-rule:evenodd;clip-rule:evenodd;stroke-linejoin:round;stroke-miterlimit:2;"><g id="feature-bottom"><g id="box"><g><g><path d="M83.723,19.883l-40.915,-19.752c-0.362,-0.175 -0.785,-0.175 -1.147,0l-40.915,19.752c-0.456,0.22 -0.746,0.682 -0.746,1.189l-0,47.968c-0,0.507 0.29,0.969 0.746,1.189l40.915,19.752c0.181,0.087 0.377,0.131 0.573,0.131c0.197,0 0.393,-0.044 0.574,-0.131l40.915,-19.752c0.456,-0.22 0.746,-0.682 0.746,-1.189l-0,-47.968c-0,-0.507 -0.29,-0.969 -0.746,-1.189Zm-41.489,-17.097l37.879,18.286l-10.98,5.301c-0.07,-0.053 -0.143,-0.102 -0.224,-0.141l-37.621,-18.162l10.946,-5.284Zm-13.927,6.777l37.823,18.259l-7.746,3.74l-37.808,-18.252l7.731,-3.747Zm38.708,20.763l0,13.824l-7.236,3.494l0,-13.825l7.236,-3.493Zm14.814,37.886l-38.275,18.477l0,-45.037l9.13,-4.407c0.657,-0.317 0.932,-1.106 0.615,-1.763c-0.317,-0.656 -1.106,-0.932 -1.763,-0.615l-9.302,4.491l-3.66,-1.767c-0.656,-0.318 -1.445,-0.042 -1.762,0.615c-0.317,0.656 -0.042,1.445 0.614,1.762l3.488,1.684l0,45.037l-38.274,-18.477l0,-45.037l29.146,14.07c0.185,0.09 0.38,0.132 0.573,0.132c0.49,-0 0.962,-0.275 1.189,-0.747c0.317,-0.656 0.042,-1.445 -0.615,-1.762l-28.577,-13.796l13.113,-6.331l39.652,19.143c0.006,0.008 0.012,0.015 0.018,0.023l0,15.84c0,0.454 0.234,0.876 0.619,1.118c0.213,0.134 0.457,0.202 0.701,0.202c0.196,-0 0.392,-0.044 0.574,-0.132l9.876,-4.767c0.456,-0.22 0.746,-0.682 0.746,-1.189l0,-15.927l12.174,-5.877l-0,45.037Z" style="fill:#010101;fill-rule:nonzero;"/></g></g><g><g><path d="M13.533,63.093l-6.004,-2.899c-0.657,-0.317 -1.446,-0.042 -1.763,0.615c-0.316,0.656 -0.041,1.445 0.615,1.762l6.005,2.899c0.184,0.089 0.38,0.132 0.572,0.132c0.491,-0 0.962,-0.275 1.19,-0.747c0.317,-0.656 0.042,-1.445 -0.615,-1.762Z" style="fill:#010101;fill-rule:nonzero;"/></g></g><g><g><path d="M19.059,59.496l-11.522,-5.563c-0.656,-0.317 -1.445,-0.041 -1.762,0.615c-0.317,0.657 -0.042,1.446 0.615,1.763l11.522,5.562c0.185,0.089 0.38,0.132 0.572,0.132c0.491,-0 0.962,-0.275 1.19,-0.747c0.317,-0.656 0.042,-1.446 -0.615,-1.762Z" style="fill:#010101;fill-rule:nonzero;"/></g></g></g></g></svg>