<?xml version="1.0" encoding="UTF-8" standalone="no"?><!DOCTYPE svg PUBLIC "-//W3C//DTD SVG 1.1//EN" "http://www.w3.org/Graphics/SVG/1.1/DTD/svg11.dtd"><svg width="100%" height="100%" viewBox="0 0 196 57" version="1.1" xmlns="http://www.w3.org/2000/svg" xmlns:xlink="http://www.w3.org/1999/xlink" xml:space="preserve" xmlns:serif="http://www.serif.com/" style="fill-rule:evenodd;clip-rule:evenodd;stroke-linejoin:round;stroke-miterlimit:2;"><g><g transform="matrix(34.0724,0,0,34.0724,36.0688,23.1253)"></g><text x="-0.799px" y="23.125px" style="font-family:'CrimsonText-Bold', 'Crimson Text';font-weight:700;font-size:34.072px;fill:#010101;">by</text><g id="logo-group" serif:id="logo group"><g><g><g><path d="M51.798,54.058l0,1.271l20.425,0l0,-1.271l-4.273,-0l-0,-31.503l4.273,0l0,-1.259l-4.273,-0l-0,-5.074c-0,-1.051 -0.056,-2.063 -0.165,-3.037c-0.103,-0.98 -0.209,-1.896 -0.318,-2.743c-0.103,-0.736 -0.209,-1.419 -0.318,-2.048c-0.103,-0.636 -0.153,-1.242 -0.153,-1.825c0,-1.475 0.395,-2.437 1.189,-2.884c0.792,-0.454 1.584,-0.683 2.378,-0.683c0.415,-0 0.913,0.056 1.495,0.165c0.58,0.103 0.871,0.288 0.871,0.553c0,0.212 -0.105,0.347 -0.317,0.4c-1.478,0.371 -2.214,1.398 -2.214,3.085c0,0.95 0.368,1.754 1.107,2.413c0.736,0.659 1.636,0.989 2.696,0.989c1.262,-0 2.225,-0.406 2.884,-1.225c0.659,-0.824 0.989,-1.813 0.989,-2.966c-0,-1.216 -0.633,-2.325 -1.895,-3.332c-1.266,-1.003 -3.008,-1.507 -5.227,-1.507c-2.74,0 -5.062,0.477 -6.969,1.425c-1.902,0.95 -3.432,2.207 -4.591,3.767c-1.154,1.554 -1.999,3.349 -2.531,5.38c-0.527,2.033 -0.789,4.132 -0.789,6.298l-0,2.849l-4.274,-0l0,1.259l4.274,0l-0,31.503l-4.274,-0Z" style="fill:#b62350;fill-rule:nonzero;"/></g></g></g><g><g><g><path d="M115.599,35.776c-0.212,-1.419 -0.648,-3.002 -1.307,-4.745c-0.659,-1.742 -1.666,-3.378 -3.013,-4.909c-1.342,-1.53 -3.126,-2.819 -5.345,-3.873c-2.213,-1.059 -5.012,-1.589 -8.393,-1.589c-3.008,0 -5.633,0.515 -7.876,1.542c-2.237,1.03 -4.109,2.375 -5.615,4.038c-1.507,1.666 -2.631,3.564 -3.367,5.698c-0.739,2.136 -1.107,4.314 -1.107,6.533c0,2.213 0.368,4.391 1.107,6.534c0.736,2.136 1.86,4.035 3.367,5.698c1.506,1.656 3.378,3.001 5.615,4.037c2.243,1.028 4.868,1.543 7.876,1.543c2.11,-0 4.049,-0.28 5.815,-0.836c1.772,-0.557 3.358,-1.31 4.756,-2.261c1.395,-0.947 2.581,-2.042 3.555,-3.284c0.98,-1.239 1.734,-2.543 2.26,-3.908c0.165,-0.368 0.248,-0.713 0.248,-1.036c-0,-0.524 -0.189,-0.789 -0.566,-0.789c-0.314,0 -0.55,0.106 -0.706,0.318c-0.159,0.212 -0.371,0.553 -0.636,1.024c-0.582,1.163 -1.306,2.284 -2.177,3.367c-0.872,1.083 -1.916,2.048 -3.132,2.896c-1.209,0.842 -2.596,1.513 -4.155,2.013c-1.554,0.503 -3.308,0.753 -5.262,0.753c-0.786,0 -1.496,-0.106 -2.131,-0.318c-0.636,-0.211 -1.177,-0.606 -1.625,-1.189c-0.447,-0.579 -0.794,-1.383 -1.036,-2.413c-0.235,-1.027 -0.353,-2.334 -0.353,-3.92l0,-10.924l23.203,-0Zm-23.203,-7.358c0,-4.22 1.689,-6.333 5.074,-6.333c3.273,-0 4.909,2.113 4.909,6.333l-0,5.851l-9.983,-0l0,-5.851Z" style="fill:#b62350;fill-rule:nonzero;"/></g></g></g><g><g><g><path d="M153.588,35.776c-0.212,-1.419 -0.647,-3.002 -1.307,-4.745c-0.659,-1.742 -1.665,-3.378 -3.013,-4.909c-1.342,-1.53 -3.126,-2.819 -5.345,-3.873c-2.213,-1.059 -5.012,-1.589 -8.393,-1.589c-3.008,0 -5.633,0.515 -7.876,1.542c-2.237,1.03 -4.108,2.375 -5.615,4.038c-1.507,1.666 -2.631,3.564 -3.367,5.698c-0.739,2.136 -1.107,4.314 -1.107,6.533c0,2.213 0.368,4.391 1.107,6.534c0.736,2.136 1.86,4.035 3.367,5.698c1.507,1.656 3.378,3.001 5.615,4.037c2.243,1.028 4.868,1.543 7.876,1.543c2.11,-0 4.049,-0.28 5.815,-0.836c1.772,-0.557 3.358,-1.31 4.756,-2.261c1.395,-0.947 2.581,-2.042 3.555,-3.284c0.98,-1.239 1.734,-2.543 2.26,-3.908c0.165,-0.368 0.248,-0.713 0.248,-1.036c-0,-0.524 -0.189,-0.789 -0.565,-0.789c-0.315,0 -0.551,0.106 -0.707,0.318c-0.159,0.212 -0.371,0.553 -0.635,1.024c-0.583,1.163 -1.307,2.284 -2.178,3.367c-0.871,1.083 -1.916,2.048 -3.132,2.896c-1.209,0.842 -2.595,1.513 -4.155,2.013c-1.554,0.503 -3.308,0.753 -5.262,0.753c-0.786,0 -1.495,-0.106 -2.131,-0.318c-0.636,-0.211 -1.177,-0.606 -1.625,-1.189c-0.447,-0.579 -0.794,-1.383 -1.036,-2.413c-0.235,-1.027 -0.353,-2.334 -0.353,-3.92l0,-10.924l23.203,-0Zm-23.203,-7.358c0,-4.22 1.69,-6.333 5.074,-6.333c3.273,-0 4.909,2.113 4.909,6.333l0,5.851l-9.983,-0l0,-5.851Z" style="fill:#b62350;fill-rule:nonzero;"/></g></g></g><g><g><g><path d="M172.73,54.058l0,-54.058l-16.14,3.002l0,1.271l4.274,-0.788l-0,50.573l-4.274,-0l0,1.271l20.413,0l0,-1.271l-4.273,-0Z" style="fill:#b62350;fill-rule:nonzero;"/></g></g></g><g><g><g><path d="M195.842,49.949c-0,-1.742 -0.621,-3.231 -1.86,-4.473c-1.242,-1.239 -2.732,-1.86 -4.474,-1.86c-1.742,-0 -3.234,0.621 -4.473,1.86c-1.242,1.242 -1.86,2.731 -1.86,4.473c-0,1.742 0.618,3.235 1.86,4.474c1.239,1.239 2.731,1.86 4.473,1.86c1.742,-0 3.232,-0.621 4.474,-1.86c1.239,-1.239 1.86,-2.732 1.86,-4.474Z" style="fill:#b62350;fill-rule:nonzero;"/></g></g></g></g></g></svg>