<svg height="512" viewBox="0 0 59 60" width="512" xmlns="http://www.w3.org/2000/svg"><g id="Page-1" fill="none" fill-rule="evenodd"><g id="021---CBD-Oil" fill="rgb(0,0,0)" fill-rule="nonzero"><path id="Shape" d="m21 39c-1.1045695 0-2 .8954305-2 2v10c0 1.1045695.8954305 2 2 2h2c1.6588761-.0106411 3.1390285-1.0441196 3.7205377-2.5977702.5815092-1.5536505.1436791-3.3050025-1.1005377-4.4022298 1.2442168-1.0972273 1.6820469-2.8485793 1.1005377-4.4022298-.5815092-1.5536506-2.0616616-2.5871291-3.7205377-2.5977702zm2 12h-2v-4h2c1.1045695 0 2 .8954305 2 2s-.8954305 2-2 2zm2-8c0 1.1045695-.8954305 2-2 2h-2v-4h2c1.1045695 0 2 .8954305 2 2z"/><path id="Shape" d="m12 22c1.1045695 0 2 .8954305 2 2 0 .5522847.4477153 1 1 1s1-.4477153 1-1c0-2.209139-1.790861-4-4-4s-4 1.790861-4 4v6c0 2.209139 1.790861 4 4 4s4-1.790861 4-4c0-.5522847-.4477153-1-1-1s-1 .4477153-1 1c0 1.1045695-.8954305 2-2 2s-2-.8954305-2-2v-6c0-1.1045695.8954305-2 2-2z"/><path id="Shape" d="m45 39h-2c-1.1045695 0-2 .8954305-2 2v10c0 1.1045695.8954305 2 2 2h2c2.209139 0 4-1.790861 4-4v-6c0-2.209139-1.790861-4-4-4zm2 10c0 1.1045695-.8954305 2-2 2h-2v-10h2c1.1045695 0 2 .8954305 2 2z"/><path id="Shape" d="m43.57.61c-2.1 2.17-12.57 13.39-12.57 22.39.0000466 5.6022762 3.3398608 10.6651041 8.49 12.87l-5.44 3-10.05-5.46v-11.82c.0064537-.7209354-.3756099-1.3895467-1-1.75l-10-5.46c-.5981583-.327284-1.3218417-.327284-1.92 0l-10.08 5.46c-.62439008.3604533-1.00645369 1.0290646-1 1.75v11.82c-.00645369.7209354.37560992 1.3895467 1 1.75l10 5.45v11.8c-.0064537.7209354.3756099 1.3895467 1 1.75l10 5.45c.3057644.1692754.6505489.2554716 1 .25.3316682.0000087.658132-.0824664.95-.24l10.05-5.46 10 5.46c.291868.1575336.6183318.2400087.95.24.348215.0053937.6921626-.0771537 1-.24l10.05-5.46c.6275333-.3622129 1.010085-1.035504 1-1.76v-11.81c.0064537-.7209354-.3756099-1.3895467-1-1.75l-5.45-3c5.12447-2.2127872 8.4448486-7.2581909 8.45-12.84 0-9-10.47-20.22-12.57-22.39-.376281-.38482545-.8917826-.6017511-1.43-.6017511s-1.053719.21692565-1.43.6017511zm-31.57 38.25-10-5.45v-11.82l10-5.45 10 5.45v11.81zm21 13.54-10 5.46-10-5.45v-11.82l10-5.45 10 5.45zm22-11.81v11.81l-10 5.46-10-5.45v-11.81l7.14-3.9c1.8856793.4000791 3.8343207.4000791 5.72 0zm-10-5.59c-6.627417 0-12-5.372583-12-12 0-8.18 10-18.93 12-21 2 2.07 12 12.82 12 21 0 6.627417-5.372583 12-12 12z"/><path id="Shape" d="m37 23c0-.5522847-.4477153-1-1-1s-1 .4477153-1 1c0 5.5228475 4.4771525 10 10 10 .5522847 0 1-.4477153 1-1s-.4477153-1-1-1c-2.1217319 0-4.1565632-.8428547-5.6568542-2.3431458-1.5002911-1.500291-2.3431458-3.5351223-2.3431458-5.6568542z"/></g></g></svg>