<?xml version="1.0" encoding="UTF-8" standalone="no"?><!DOCTYPE svg PUBLIC "-//W3C//DTD SVG 1.1//EN" "http://www.w3.org/Graphics/SVG/1.1/DTD/svg11.dtd"><svg width="100%" height="100%" viewBox="0 0 4740 4765" version="1.1" xmlns="http://www.w3.org/2000/svg" xmlns:xlink="http://www.w3.org/1999/xlink" xml:space="preserve" xmlns:serif="http://www.serif.com/" style="fill-rule:evenodd;clip-rule:evenodd;stroke-linejoin:round;stroke-miterlimit:2;"><g><g><g><g><clipPath id="_clip1"><rect x="551.471" y="545.565" width="3637.61" height="3673.76"/></clipPath><g clip-path="url(#_clip1)"><g><clipPath id="_clip2"><path d="M1084.33,3372.43c-40.824,-18.555 -53.291,-77.676 -90.932,-122.484c-8.225,-15.9 8.484,5.041 29.955,35.265c20.682,30.224 50.906,66.278 60.977,87.219Zm-188.761,10.611l-15.642,11.399c18.816,29.425 40.825,54.878 52.753,47.991c-11.928,-15.381 -21.47,-22.279 -31.282,-28.906c5.57,-6.089 9.283,-12.188 -5.829,-30.484Zm954.967,463.434c34.726,11.928 67.605,21.471 89.345,20.143c-128.852,-31.811 -277.318,-103.659 -379.13,-149.524c30.763,16.969 61.247,34.466 92.799,50.108l96.771,42.152c28.897,11.139 65.479,25.453 100.215,37.121Zm1848.16,-304.098c-24.125,32.879 -51.165,60.448 -75.82,88.017c-25.193,27.05 -49.049,53.821 -73.444,77.417c-50.108,46.135 -95.175,90.673 -140.511,129.382c-1.058,0.798 -2.126,1.856 -3.184,2.654c-22.538,8.485 -44.009,12.987 -63.892,11.929c-31.812,25.453 -64.96,45.067 -95.973,65.219c-31.552,19.614 -61.247,39.238 -90.942,55.937c-0.789,0.529 -1.587,0.799 -2.116,1.068c-3.184,-0.269 -6.099,-0.799 -9.812,-0.539c-0.529,2.126 -1.058,4.512 -1.587,6.628c-55.149,29.166 -106.054,57.534 -155.633,81.399c-54.08,24.915 -104.457,51.965 -154.565,76.879c-50.367,24.125 -99.416,50.906 -149.524,80.87c51.166,-18.825 111.345,-40.834 176.305,-64.431c62.834,-27.569 131.237,-53.022 197.515,-83.775c19.085,-9.283 38.439,-18.027 57.794,-27.04c-0,0.259 -0.26,0.259 -0.26,0.529c18.286,-5.57 29.156,-11.399 38.17,-17.767c33.408,-15.372 66.287,-30.754 97.569,-47.193c-31.022,28.108 -61.775,57.274 -92.259,88.556c44.538,-31.282 97.031,-68.134 153.506,-107.91c10.072,-8.215 20.672,-16.171 31.283,-24.386l0.259,0c29.166,-13.784 56.736,-27.838 83.516,-38.977c5.3,-30.754 -39.237,20.681 -46.394,10.34c19.614,-14.842 39.237,-29.695 58.592,-45.336c39.766,-29.166 77.946,-57.534 112.143,-88.018c25.982,-22.009 50.906,-43.749 74.502,-65.219c7.157,-6.897 13.785,-14.054 20.412,-21.211c25.453,-22.269 50.906,-43.749 75.561,-63.632c24.655,-20.942 47.722,-41.624 70.789,-59.381c-2.914,-32.35 -35.265,35.524 -43.22,20.941c47.722,-60.448 94.386,-114.798 131.767,-171.802c19.354,-27.839 37.92,-55.408 55.148,-82.448c16.44,-27.579 30.494,-55.947 44.009,-83.516c-50.108,63.103 -96.771,129.91 -141.04,187.174c-45.077,56.736 -92.798,98.359 -138.664,107.642Zm417.04,-922.627c-7.426,35.005 -14.054,67.615 -20.681,98.628c-5.83,31.282 -11.399,60.717 -16.7,89.345c-6.368,28.367 -12.197,56.475 -16.968,84.574c9.013,-30.484 18.555,-63.364 28.627,-96.762c7.955,-33.937 15.911,-68.933 23.866,-102.87c16.699,-68.134 21.47,-135.211 19.614,-186.915c-6.359,41.094 -12.188,78.745 -17.758,114Zm-2377.35,1448.37c35.265,11.13 76.629,29.166 117.982,44.009c41.364,14.583 83.516,22.269 116.655,20.682c-38.179,-10.341 -86.161,-23.068 -128.583,-39.507c-42.95,-15.641 -81.928,-27.569 -106.054,-25.184Zm2392.2,-2161.01c10.87,34.466 21.74,68.134 32.081,100.484c-9.014,-39.237 -18.556,-78.215 -28.897,-116.385c-12.457,-37.65 -25.453,-74.502 -38.968,-110.027c-6.897,-17.767 -13.794,-34.995 -20.682,-52.233c-7.426,-16.7 -15.91,-32.87 -24.125,-48.521c-16.44,-31.282 -33.409,-60.708 -50.377,-87.488c33.668,69.462 67.605,139.193 92.26,210.242c12.995,35.264 27.309,69.731 38.708,103.928Zm-209.973,-443.013c16.7,27.57 32.61,50.637 48.251,64.691c-32.609,-53.821 -65.489,-119.579 -102.071,-153.507c9.542,15.112 19.354,30.224 28.637,45.067c8.744,15.112 17.228,29.955 25.183,43.749Zm-2135.03,1921.6c-10.071,-8.225 -28.098,-20.422 -49.578,-33.409c-21.74,-12.995 -44.798,-30.224 -69.722,-43.479c-6.897,3.713 -18.296,6.358 -3.713,5.3c24.655,10.071 46.924,36.583 55.408,44.807c-19.614,-14.583 -40.296,-32.081 -46.924,-15.112c5.83,0.26 10.87,2.116 15.911,4.502c-1.597,0.798 -2.924,1.327 -4.512,2.924c-1.058,5.56 11.928,18.287 27.31,27.829c15.641,8.754 32.869,15.112 37.112,11.669c-6.628,-2.646 -12.987,-8.485 -19.355,-15.113c4.781,1.857 9.283,1.597 13.525,-2.385c-5.569,-1.857 -12.197,-6.359 -18.825,-11.13c72.906,40.825 83.516,40.027 63.363,23.597Zm30.753,176.833c29.436,13.256 61.517,40.296 81.66,19.355c-33.938,-12.198 -61.776,-23.597 -81.66,-19.355Zm-1250.04,-957.622c5.301,18.825 10.87,36.583 15.901,51.695c-5.56,-19.085 -10.071,-38.969 -12.188,-58.852c-1.596,-19.883 -2.125,-39.767 -2.654,-58.332c-1.059,-37.381 -1.857,-69.991 -10.341,-91.461c-7.686,22.268 -6.628,59.39 -1.328,98.627c2.655,19.355 6.368,39.238 10.61,58.323Zm1093.62,1067.11c-3.973,2.395 18.296,19.892 81.4,34.466c-23.597,-13.785 -43.22,-22.269 -57.274,-27.829c-13.516,-5.839 -22.269,-7.955 -24.126,-6.637Zm-389.73,-285.534c33.937,23.597 70.789,57.534 101.811,61.507c-22.009,-17.757 -48.52,-46.394 -67.605,-66.807c-19.354,-20.412 -31.811,-32.879 -23.327,-20.682c33.928,32.081 -8.225,4.512 -10.879,25.982Zm294.815,228.798c-26.77,-37.91 -79.264,-44.009 -125.129,-85.632c2.386,40.565 105.775,64.431 125.129,85.632Zm-730.142,-2113.55c-3.184,-9.013 -1.857,-26.771 7.686,-24.654c16.709,-24.386 62.305,-104.188 75.031,-115.328c18.566,-29.166 36.852,-57.793 55.418,-85.372c35.784,-49.309 67.336,-100.215 98.887,-148.197c-5.569,20.413 -8.224,40.027 -26.78,67.865c22.269,-22.269 43.749,-43.479 65.219,-64.152c14.853,-15.91 29.696,-31.551 44.808,-46.663c47.722,-44.009 94.116,-87.229 140.251,-127.525c47.452,-38.439 90.932,-79.533 133.883,-117.453c-10.601,18.296 -18.296,36.592 -43.48,58.592c2.915,-1.587 5.57,-3.175 8.484,-4.771c112.143,-81.121 228.269,-142.098 356.852,-187.704c-6.628,-12.727 -36.852,-0.529 -68.135,13.525c-19.354,-1.068 10.611,-12.467 46.135,-25.453c34.996,-13.525 77.417,-23.597 79.004,-33.937c-2.914,15.641 20.942,16.17 60.18,8.484c18.296,-4.242 40.565,-9.014 64.959,-14.054c85.632,-23.597 171.794,-39.238 261.408,-46.395c-2.116,-9.542 -18.556,-10.6 -39.507,-8.484c-7.157,1.058 -14.044,1.857 -21.47,2.915c-2.655,0.529 -5.301,0.798 -8.215,1.327c-11.14,-3.713 -3.713,-6.358 12.187,-8.484c16.18,-12.726 79.543,-6.358 131.767,-23.856c-12.986,-11.139 -49.049,-8.225 -70.52,-14.054c76.359,-30.494 102.87,29.166 194.601,20.682c-8.754,-8.754 -29.166,-12.467 -55.148,-13.266c9.013,-6.627 32.081,-6.627 27.838,-19.344c103.659,4.242 207.857,18.027 310.987,40.825c-4.243,-1.857 -8.215,-3.713 -11.659,-5.57c37.381,-4.502 59.65,6.897 81.649,21.74c22.539,5.839 44.808,12.726 67.077,19.354c8.484,-0.529 16.439,-1.327 16.179,-9.542c243.112,75.82 475.094,206.798 672.609,382.833c50.637,45.336 98.888,93.587 144.753,144.493c31.821,33.139 62.834,67.077 92.799,102.341c5.3,9.273 11.668,19.355 17.757,29.157c29.965,18.565 64.431,91.471 94.386,129.65c-5.3,-2.924 -11.13,-8.484 -16.699,-15.381c52.752,81.13 100.215,166.233 141.838,255.309c2.655,10.341 6.358,21.74 9.542,32.61c22.269,23.865 36.323,93.058 53.292,138.663c-7.686,-31.022 -9.812,-60.448 -0.529,-67.874c31.811,34.995 28.098,107.381 38.708,150.063c-12.995,-9.014 -27.309,-41.364 -36.323,-73.974c-19.623,-22.269 -32.35,-89.345 -51.964,-134.941c1.328,3.973 2.117,7.417 3.444,11.399c5.3,19.884 11.139,41.094 16.969,63.094c11.139,44.018 28.108,90.144 38.179,140.78c10.601,50.377 24.655,102.341 32.081,156.421c6.887,54.09 15.641,108.7 17.757,163.05c2.655,43.22 3.454,86.43 2.655,129.65l0,5.57c0,5.56 0,11.399 -0.259,16.968c-0.799,186.646 -26.252,374.35 -85.373,554.367c-119.569,373.022 -361.622,714.502 -707.084,938.528c0.538,-6.358 3.982,-12.986 11.139,-20.412c-76.619,53.022 -157.749,100.215 -243.121,140.511c-24.385,14.054 -48.78,28.108 -72.636,41.892c-18.297,10.072 -36.064,20.413 -54.62,29.166c-18.555,8.215 -37.381,16.17 -56.206,23.597c12.727,-15.382 38.449,-28.368 66.018,-42.691c3.713,-2.117 7.426,-3.973 11.13,-6.099c-29.426,11.409 -58.852,22.279 -89.076,32.081c3.444,-9.543 12.986,-18.287 36.054,-25.453c-1.587,0.269 -3.184,0.798 -4.772,1.327c-10.6,3.713 -21.21,7.696 -32.34,11.14c-31.552,10.6 -63.902,21.47 -95.184,32.08c-31.812,8.744 -62.834,15.901 -90.403,22c29.425,-11.659 62.305,-21.74 97.031,-33.928c-42.422,11.659 -83.776,24.385 -124.87,38.17c-41.094,10.87 -81.659,21.74 -121.426,32.35c-20.153,4.771 -40.036,10.341 -60.179,13.785c-20.153,3.184 -40.305,6.098 -60.189,8.215c16.44,-11.659 44.279,-17.498 75.032,-24.126c30.493,-7.686 63.892,-14.583 91.202,-23.596c-42.682,2.126 -104.458,12.467 -171.005,15.641c-33.139,2.126 -67.336,4.242 -100.215,6.368c-32.869,0.26 -64.69,-0.798 -93.058,-2.126c42.681,-5.031 90.942,-5.56 143.166,-11.13c51.964,-5.3 107.91,-5.04 164.376,-14.313c-44.538,-17.238 -109.228,-25.193 -173.39,-29.965c-15.91,-1.327 -32.08,-2.645 -47.722,-3.973c-15.641,-2.654 -30.753,-5.04 -45.336,-7.426c-29.166,-5.3 -55.148,-11.668 -75.56,-20.412c11.139,4.771 14.583,-2.915 10.61,-12.996c-33.408,1.328 -89.345,-11.928 -125.139,-13.255c20.681,-9.803 77.946,3.453 122.214,7.955c-5.3,-8.485 -15.112,-17.498 -30.483,-22.269c-2.655,-1.058 -5.041,-1.857 -7.427,-2.655c3.454,-0.26 6.368,-1.587 7.956,-3.973c-3.973,5.829 -54.619,-39.767 -9.283,-33.139c-55.139,-12.726 -106.045,-28.637 -153.767,-45.076c-46.923,-18.816 -90.403,-40.556 -132.295,-61.767c46.923,10.072 122.224,49.579 199.641,65.749c76.349,20.682 151.381,20.682 179.479,-16.969c-27.3,-23.865 -55.138,-45.605 -93.058,-64.96c-37.641,-21.47 -86.69,-35.784 -156.421,-49.039c-3.444,-12.727 0.529,-27.579 -14.574,-37.381c3.973,-10.082 44.009,19.883 77.937,17.497c12.197,-2.126 14.323,-12.726 36.063,-6.897c-0.799,-3.444 -2.915,-6.628 -5.041,-9.542c-24.385,-2.655 -57.793,-6.628 -81.39,-7.426c-1.596,-11.669 11.399,-10.072 24.924,-7.956c-39.507,-14.313 -69.462,-19.614 -99.955,-27.569c-30.753,-6.897 -63.363,-11.928 -107.112,-25.453c9.812,-10.87 -10.341,-17.767 -26.242,-25.184c40.036,9.014 97.3,21.471 154.834,41.883c28.627,10.341 59.121,16.969 87.219,26.521c12.457,3.704 24.655,7.946 36.593,12.188c-10.082,-8.484 -22.279,-16.17 -31.292,-25.184c24.924,-5.569 87.758,56.736 99.686,3.713c1.067,-18.555 -42.951,-19.094 -72.906,-25.453c4.242,-13.784 29.166,-9.013 55.408,-3.713c-2.645,-19.883 -12.727,-34.197 -10.601,-44.278c-18.556,-2.645 -35.524,-7.416 -41.623,-10.87c2.915,-4.771 11.399,-4.242 12.727,-10.6c-130.709,-28.368 4.242,-10.601 47.721,8.484c0.26,-0 0.53,-0.269 1.059,-0.269c-23.866,-22.269 -38.18,-32.072 -53.292,-40.296c-15.112,-7.686 -30.753,-15.372 -54.609,-34.197c8.744,-4.771 24.385,0.789 40.824,7.416c16.7,5.839 33.938,13.795 44.538,17.238c11.14,-4.511 22.01,-9.282 32.35,-14.313c-14.583,-23.068 -77.946,-6.099 -84.843,-21.74c2.915,-8.754 5.57,-17.498 -5.04,-21.48c24.135,-5.57 57.274,29.166 101.282,32.08c-0.798,-9.013 -37.381,-18.555 1.857,-12.726c-10.87,-14.583 -57.005,-12.986 -72.646,-25.453c22.009,-2.386 68.933,-0.789 103.928,4.242c8.485,-16.17 -17.238,-15.641 -24.924,-23.596c-19.614,-4.502 -29.695,0.269 -30.484,14.583c-29.695,-24.385 -31.821,-46.125 -63.103,-58.063c-11.399,-20.942 40.835,-2.386 12.996,-16.699c15.641,-10.611 53.022,-4.243 91.202,4.242c9.542,2.116 19.085,3.973 28.367,5.829c9.273,1.068 18.287,1.597 26.771,1.857c12.467,0.269 23.067,-0.26 31.023,-2.915c-32.081,-2.116 -63.892,-5.829 -95.973,-10.601c-3.444,-0.538 -7.157,-1.067 -10.61,-1.596c-9.803,-1.588 -19.355,-3.444 -29.157,-5.301c-9.812,-1.856 -19.623,-3.713 -29.435,-5.569c-3.444,-0.789 -6.628,-1.588 -10.072,-2.386c-71.847,-16.17 -141.04,-39.238 -206.798,-68.663c-1.587,-0.799 -3.174,-1.588 -4.771,-2.126c-14.583,-6.628 -29.157,-13.516 -43.211,-20.672c-4.771,-2.386 -9.282,-4.772 -13.784,-7.167c-10.87,-5.56 -21.74,-11.399 -32.35,-17.498c-7.417,-4.242 -14.583,-8.484 -22,-12.986c-7.426,-4.511 -15.112,-9.013 -22.538,-13.525c-2.655,-1.587 -5.301,-3.174 -7.686,-4.771c-1.857,2.655 5.56,9.014 24.125,18.825c-21.21,7.956 -52.493,-32.08 -65.489,-43.479c-28.367,31.022 35.525,40.295 44.279,61.246c-44.279,-7.955 -74.763,-51.175 -110.826,-60.977c8.225,10.071 37.381,34.466 70.53,57.524c-19.354,-7.955 -44.278,-12.986 -68.144,-20.941c-5.56,-1.857 -11.13,-3.973 -16.17,-6.628c14.852,14.054 28.637,28.098 39.507,36.852c-3.184,0.269 -6.368,-0.529 -9.543,-1.058c0.529,1.058 1.587,1.856 2.116,2.914c-50.377,-1.327 -79.004,-68.134 -138.125,-85.103c-5.04,17.758 40.027,17.758 39.767,41.883c5.04,-7.686 22.269,5.839 40.036,24.135c17.757,18.556 39.237,38.969 47.722,50.897c-50.906,-27.839 -83.516,-57.265 -119.31,-84.574c-18.296,-13.256 -35.265,-28.628 -54.08,-45.337c-19.354,-16.17 -40.565,-33.937 -64.96,-54.349c47.991,50.107 68.404,102.87 132.565,161.731c-17.238,-46.404 25.184,12.986 26.771,30.753c15.381,-5.839 38.978,9.014 64.96,29.426c-3.713,5.041 -12.996,-2.915 -20.153,-6.099c83.247,83.776 211.3,138.395 361.892,196.717c-26.511,-5.031 -52.762,-11.399 -78.744,-18.286c-25.713,-7.955 -50.108,-18.825 -74.493,-28.906c-8.225,-3.175 -15.911,-6.888 -23.597,-10.332c16.44,9.803 29.955,19.614 31.283,25.713c14.843,7.686 18.825,0.798 31.282,5.3c5.31,9.014 -15.901,6.099 -40.825,-1.058c-24.924,-6.897 -51.435,-22.009 -58.592,-28.897c3.973,-3.713 12.198,-1.058 14.843,-6.897c-62.834,-32.34 -56.995,-32.869 -32.34,-21.999c-19.624,-11.14 -38.449,-22.808 -57.265,-33.938c-21.21,-11.928 -40.036,-26.251 -58.861,-39.506c-11.129,-5.83 -22.269,-11.4 -33.139,-17.758c-22.538,-14.323 -43.479,-31.023 -64.421,-47.193c-12.726,-9.283 -24.395,-19.094 -35.794,-29.435c-6.897,-4.233 -13.525,-8.475 -20.412,-12.188c25.982,26.771 50.107,51.695 74.762,74.233c13.785,7.426 28.897,18.027 46.394,30.224c-2.385,1.587 -4.771,2.117 -7.156,2.646c0.259,0.269 0.529,0.529 1.058,0.798c19.623,15.381 38.708,30.224 57.793,45.067c20.153,13.525 41.094,25.982 62.305,39.238c84.843,52.502 186.117,98.627 334.583,138.394c-32.87,0.269 -67.606,-7.686 -103.39,-18.556c-35.794,-10.341 -73.175,-22.538 -108.44,-39.766c-72.645,-29.955 -140.251,-69.732 -205.47,-92.53c-6.099,-7.955 -2.386,-9.013 1.067,-12.726c-2.395,-1.587 -5.04,-2.915 -7.426,-4.502c-32.08,-19.354 -64.69,-40.565 -94.385,-66.547c-15.382,-11.668 -30.225,-23.866 -44.808,-36.323c7.956,13.525 12.996,28.098 19.355,21.74c19.623,25.453 -23.597,7.686 -36.852,-5.57c-0.26,14.853 15.112,38.709 -16.7,19.884c-7.157,13.784 16.969,32.879 17.498,48.52c9.273,2.915 17.757,6.628 30.224,15.372l36.852,25.453c29.166,15.91 61.776,34.735 94.117,56.735c24.923,17.498 52.762,31.552 77.417,48.261c25.453,15.641 48.52,33.139 69.99,46.394c5.83,6.099 -65.219,-25.193 -106.583,-37.92c0.27,-2.914 1.328,-4.771 2.925,-5.829c-47.992,-16.969 -91.471,-48.251 -156.162,-95.973c-2.386,-1.587 -4.771,-2.655 -7.157,-4.242c0.27,-0.269 0.27,-0.529 0.529,-0.529c-1.856,-1.328 -3.443,-2.386 -5.3,-3.983c2.116,1.068 3.973,1.857 6.099,2.925c6.098,-5.839 -0.529,-12.996 -9.812,-20.682c-56.206,-23.067 -96.242,-51.964 -139.193,-81.13c-20.412,-16.44 -41.354,-33.399 -64.421,-51.695c-23.327,-18.296 -49.579,-37.381 -77.417,-61.506c1.856,-42.162 -77.148,-73.175 -108.959,-135.221c5.3,9.023 14.842,42.691 31.013,73.704c9.013,15.382 19.354,29.965 30.753,40.565c-3.175,-6.887 -4.771,-13.515 -3.704,-20.143c8.744,13.516 18.556,24.915 28.628,34.996c3.443,0.789 6.627,1.327 10.071,1.058c3.184,6.099 3.184,9.013 1.857,10.601c24.395,22.807 47.991,40.834 58.063,68.403c-8.215,-15.901 -46.924,-40.825 -73.435,-67.076c-0.529,0 -1.058,0.269 -1.328,0.269c26.252,22.798 31.552,25.982 32.88,49.579c14.573,11.659 1.587,-15.112 17.757,-0.27c7.157,19.095 13.256,36.852 44.009,76.888c7.695,7.686 14.852,15.642 22.808,23.068c5.3,-5.57 -1.597,-14.323 -10.082,-23.866c46.135,48.251 97.301,93.328 152.449,135.74c-2.915,-5.031 -3.444,-10.072 0.529,-14.314c21.211,17.498 44.807,31.821 67.875,46.923c-5.57,0.27 -25.453,-5.3 -43.22,-13.515c120.627,88.547 261.147,163.319 422.609,220.843c-0.269,19.094 -60.717,-24.655 -61.516,-6.099c33.937,26.78 125.938,44.278 184.799,58.063c16.17,-20.413 -44.548,-18.556 -67.875,-28.099c-27.04,-15.91 98.359,11.399 105.785,22.798c-20.413,12.458 -62.305,7.686 -109.498,-2.914c-46.394,-13.525 -97.829,-33.408 -141.049,-45.606c7.955,-2.915 15.65,-5.829 18.036,-14.583c-11.399,-3.444 -22.808,-7.686 -33.937,-12.457c-5.301,13.525 2.385,14.852 -34.467,20.682c-9.282,-1.857 -14.313,-7.157 -17.497,-12.996c-5.57,-2.116 -11.14,-4.242 -16.969,-6.888c-27.839,-12.197 -57.534,-32.879 -79.004,-39.507c19.614,0.53 34.197,5.57 48.51,12.467c-1.058,-6.368 2.126,-11.408 -19.085,-24.664c-23.327,4.512 -60.448,-10.071 -101.542,-31.282c-41.354,-25.184 -85.901,-57.794 -124.341,-80.592c5.301,-0.538 10.341,-1.327 14.583,-3.453c-9.013,-6.628 -18.026,-13.256 -27.04,-19.883c-3.453,5.839 -6.098,7.156 -34.206,4.242c-29.426,-14.583 -0.789,-55.937 -34.467,-35.525c-24.385,-24.924 -13.784,-26.251 -15.641,-36.053c-35.255,-27.839 -68.134,-52.763 -94.386,-70.53c3.713,-0.529 5.57,-1.847 6.368,-3.444c-25.453,-24.125 -54.619,-54.349 -81.928,-89.874c-16.17,-20.153 -32.61,-40.565 -49.04,-61.247c-0.269,-0.259 -0.529,-0.529 -0.529,-0.788c-1.597,6.627 -3.713,14.842 -17.498,5.03c-4.242,7.427 0.789,15.113 8.215,22.269c-0.529,-1.058 -1.327,-2.116 -2.385,-3.443c13.255,2.126 19.883,11.399 25.183,22.538c4.771,4.502 7.426,8.215 4.771,11.13c5.041,12.726 10.341,26.251 20.952,36.063c-17.767,2.385 -23.068,-17.767 -27.579,-32.879c-0.26,-0 -0.26,0.269 -0.529,0.269c-5.041,-6.099 -9.283,-10.341 -12.987,-14.054c-1.067,1.058 -2.385,2.116 -3.982,3.973c-2.645,-3.973 -2.915,-6.888 -2.386,-9.802c-14.054,-11.669 -19.614,-9.014 -29.425,-20.153c-7.157,-17.767 -3.714,-30.753 10.34,-38.968c-21.21,-31.552 -35.264,-35.794 -51.175,-38.449c46.664,33.937 -11.13,8.754 30.494,53.821c-7.426,1.856 -18.825,-16.44 -25.453,-11.929c8.484,31.552 58.592,80.861 76.089,115.328c-37.91,-41.095 -88.017,-93.328 -123.542,-141.839c-36.852,-47.462 -69.202,-84.044 -80.601,-86.43c-15.91,2.386 -22.269,-64.162 5.041,-17.767c-5.839,-19.085 -65.749,-81.919 -86.96,-142.368c-1.597,18.556 3.713,41.095 -18.565,22.539c16.709,55.408 18.825,38.699 46.404,78.735c-7.696,-3.713 -15.641,-7.157 -23.337,-2.646c25.982,34.996 27.31,16.7 31.023,58.063c-80.072,-131.238 -151.121,-306.484 -191.946,-489.416c-23.068,-89.086 -32.081,-182.673 -39.238,-272.018c-1.327,-44.548 -1.856,-88.557 -1.856,-130.709c-0.799,-42.422 5.031,-82.717 7.686,-121.426c-9.812,-13.515 3.443,-29.426 13.255,-48.52c2.126,-16.959 4.771,-33.399 7.426,-50.108c-6.098,-2.914 -19.623,16.969 -10.081,-20.672c7.426,-12.726 15.112,-32.879 23.068,-57.274c0.798,-3.973 1.327,-7.945 2.125,-11.928c10.341,-43.48 21.211,-85.901 32.081,-126.726c10.072,-41.094 26.242,-78.745 38.968,-115.327c-6.627,-16.969 14.054,-29.426 29.167,-47.462c5.569,-13.785 11.129,-27.829 16.968,-41.624c-3.982,-6.627 -24.654,11.938 -5.04,-23.057c11.668,-11.409 25.722,-31.292 41.363,-55.947c3.174,-6.358 6.099,-12.986 9.543,-19.085c15.9,-30.753 31.013,-60.448 46.125,-87.758c16.439,-26.251 32.08,-50.377 46.134,-71.578c-54.08,71.049 -93.856,142.627 -134.412,212.089c-34.735,72.386 -71.587,143.166 -95.982,223.498c22.538,-110.816 67.615,-213.417 117.982,-308.601Zm884.447,2264.14c3.973,1.857 8.215,3.713 12.458,5.57c-2.386,-7.157 -4.772,-11.139 -12.458,-5.57Zm-364.277,-505.846c-2.386,-2.386 -4.771,-5.041 -7.426,-7.427c-1.318,4.502 -1.059,8.744 -0.26,13.256c1.058,-2.655 4.502,-3.184 7.686,-5.829Zm1511.19,-2567.71c15.641,4.771 30.493,9.283 43.749,12.197c-13.256,-5.569 -25.982,-10.6 -38.709,-15.641c-3.184,1.058 -5.04,2.116 -5.04,3.444Zm-1778.97,2442.57c-13.515,-14.054 -26.771,-31.821 -40.026,-48.521c-1.068,0.799 -1.857,1.058 -2.925,2.386c14.054,27.838 33.678,60.179 47.722,52.762c-1.318,-1.856 -3.174,-4.242 -4.771,-6.627Zm-117.443,-189.561c4.242,5.301 8.744,9.803 13.784,12.987c-3.973,-8.485 -7.955,-17.767 -11.399,-29.696c-2.126,4.512 -2.655,10.341 -2.385,16.709Zm8.215,25.982c0.529,0.789 0.798,1.588 1.058,2.646c5.839,8.484 9.812,14.852 12.996,20.412c1.058,1.328 1.856,2.915 3.184,4.242c19.614,24.924 44.268,47.722 55.138,59.92c-18.556,-44.278 -39.767,-55.937 -57.793,-84.045c-3.713,0.269 -10.072,-3.713 -14.583,-3.175Zm12.726,181.076c14.852,23.327 27.04,39.767 23.866,24.126c-17.238,-21.211 -24.664,-42.152 -31.023,-58.861c-6.897,-16.44 -13.784,-28.628 -29.695,-33.938c7.955,12.727 23.067,44.548 36.852,68.673Zm3.184,51.964l48.78,72.906l10.61,-7.686c-20.152,-20.682 -44.018,-86.959 -59.39,-65.22Zm642.654,516.717c1.058,-0.789 1.058,-1.587 1.857,-2.386c-11.399,-4.242 -24.924,-10.341 -40.296,-18.556c-33.149,-17.228 -74.503,-41.363 -115.068,-72.376c33.139,32.081 105.516,67.605 153.507,93.318Zm-187.704,-360.824c2.386,-0.799 4.772,-0.529 6.888,-0.27c-35.784,-31.022 -70.251,-61.506 -105.515,-85.372c6.098,12.726 19.354,25.722 35.264,39.507c12.727,10.601 26.511,22.798 41.354,34.197c14.853,11.409 29.695,23.596 42.152,37.391c3.714,-6.897 -11.129,-16.44 -20.143,-25.453Zm179.749,111.344c-5.041,-1.587 -11.399,-4.771 -18.825,-8.744c6.098,4.243 12.466,8.485 18.825,12.727c-0,-1.328 0.269,-2.386 -0,-3.983Zm-21.74,-185.318c-7.955,-8.744 -16.17,-17.497 -25.184,-25.982c2.386,10.341 12.727,18.027 25.184,25.982Zm-24.126,-32.869c-0.269,-0.539 -0.798,-0.799 -1.058,-1.328l0,0.789c0.26,0 0.789,0.269 1.058,0.539Zm2426.66,-1403.83c-10.611,-33.668 -21.211,-60.439 -22.269,-57.524l-0,0.789c9.273,24.395 16.43,43.22 22.269,56.735Zm-163.05,-395.82c-2.914,-8.484 -13.255,-26.511 -29.435,-49.318c13.794,23.865 23.337,40.036 29.695,49.847c-0.26,-0.269 -0.26,-0.269 -0.26,-0.529Zm-81.659,-171.802c1.328,1.856 2.117,3.713 3.444,5.569c8.484,11.669 16.709,23.856 24.924,35.525c-9.283,-14.583 -18.825,-28.897 -28.368,-41.094Zm-1502.71,-693.031c5.56,7.955 25.982,12.197 55.407,14.323c24.924,1.058 56.466,2.646 91.462,4.502c9.283,-0.26 17.767,-1.058 24.395,-2.645c-3.444,1.318 -5.301,2.645 -7.157,3.713c14.583,0.789 29.426,1.847 44.538,2.914c-3.184,-9.552 55.408,-2.654 134.152,10.601c17.498,3.444 36.054,7.955 55.148,12.467c33.139,5.56 62.036,13.515 85.632,21.999c6.628,1.588 13.256,3.444 19.884,5.041c2.914,0.789 5.829,1.587 8.753,2.645c-14.583,-15.901 45.866,11.938 86.69,20.422c-19.614,-7.695 -38.968,-15.381 -57.533,-22.278c-33.928,-12.188 -67.076,-20.413 -98.888,-29.426c-30.753,-7.955 -60.708,-16.17 -89.874,-22c-7.955,-1.067 -15.382,-2.125 -23.597,-3.184c0,-0.269 0.26,-0.269 0.53,-0.529c-23.328,-3.713 -46.395,-7.426 -69.462,-10.341c-29.695,-3.443 -59.121,-7.955 -89.345,-9.282c-30.225,-0.789 -60.718,-1.328 -92.53,-1.058c-25.183,-0.799 -51.435,0.269 -78.205,2.116Zm-1482.56,937.739c10.341,-27.04 50.906,-75.561 41.354,-88.018c-11.13,16.44 -20.672,15.112 -31.812,29.955c18.556,3.444 -19.614,48.521 -9.542,58.063Zm1040.6,2240.55c19.883,3.972 42.421,3.972 47.991,2.385c-26.252,-8.484 -52.763,-16.17 -77.687,-27.838c-6.098,11.928 9.812,21.48 29.696,25.453Zm352.878,115.327c-33.139,2.915 -57.264,-1.857 -79.004,-6.628c-21.74,-5.57 -41.094,-9.812 -67.076,-3.444c22.269,0.789 56.206,12.987 86.43,17.498c30.224,4.771 55.937,6.099 59.65,-7.426Zm-353.937,-466.879c48.251,12.727 86.691,62.835 120.628,50.377c-31.013,-13.265 -86.431,-53.561 -120.628,-50.377Zm209.713,78.745c-24.125,-1.857 -72.646,-36.323 -75.56,-10.341c31.811,-6.628 62.564,30.224 75.56,10.341Zm-716.358,357.91c31.283,19.883 66.548,47.991 102.601,73.175c36.054,24.654 74.762,43.21 107.372,50.107c-34.197,-19.883 -77.417,-44.538 -114,-71.578c-37.65,-25.992 -72.116,-47.462 -95.973,-51.704Zm-639.21,-848.923c6.888,-4.502 11.928,-9.274 2.117,-30.754l-18.027,6.897c10.61,33.409 25.193,63.633 38.708,60.179c-7.426,-18.026 -15.112,-27.309 -22.798,-36.322Zm978.824,891.604c39.776,12.197 102.61,47.462 132.036,46.933c44.807,17.228 86.43,29.695 102.331,23.597c-28.896,-9.014 -71.578,-24.924 -113.73,-40.036c-41.893,-15.382 -81.929,-34.467 -110.027,-41.095c15.112,6.898 34.197,16.969 55.148,27.57c6.888,3.713 14.314,7.156 21.471,10.87c-34.197,-14.843 -69.462,-31.013 -87.229,-27.839Zm-243.381,-390.789c-19.354,-19.354 -36.054,-32.61 -47.982,-41.623c-11.668,-9.542 -19.354,-13.515 -21.739,-12.726c-4.512,1.067 12.457,23.596 69.721,54.349Zm-177.093,-36.852c52.223,42.691 118.501,98.897 188.502,150.862c-0.27,-3.983 -0.799,-7.696 -7.427,-12.467c31.013,-2.915 37.911,38.708 67.336,54.349c-0.259,0 -0.529,0 -0.788,0.27c26.77,18.027 53.551,35.255 80.062,49.838c-21.211,-4.502 -50.637,-22 -81.13,-42.681c-3.175,-2.126 -6.099,-4.243 -9.273,-6.359c-4.512,-1.068 -8.754,-4.242 -12.198,-8.224c-23.596,-16.44 -46.394,-33.409 -65.748,-47.453l-82.458,-65.749c-26.511,-23.067 -51.435,-47.991 -76.878,-72.386Zm197.246,157.489c5.569,3.973 11.139,7.946 16.699,11.928c-6.099,-10.071 -11.13,-17.767 -16.699,-11.928Zm-823.73,-1417.61c0.529,-25.982 2.645,-37.641 6.628,-37.112c-2.915,18.027 -5.57,37.112 -8.485,56.995c-1.856,-2.116 -3.184,-4.771 -5.569,-6.627c-1.857,47.462 -6.628,100.224 -5.83,155.892c-0.529,55.677 -2.385,114.538 3.444,172.332c4.242,58.062 9.013,116.125 21.74,168.888c11.668,53.022 22.538,103.129 41.354,143.425c-6.628,-41.094 -13.785,-84.574 -20.672,-128.583c6.358,30.754 13.515,63.094 22.798,96.243c14.054,54.08 27.309,111.085 47.991,165.694c19.085,54.879 38.968,109.767 64.681,157.489c24.924,48.251 48.52,93.588 77.157,127.785c-66.816,-148.466 -149.004,-325.3 -174.448,-474.565c4.233,9.543 7.686,25.713 14.045,24.126c-16.44,-20.153 -24.924,-54.619 -30.225,-86.171c-5.3,-28.897 -11.928,-54.08 -29.425,-63.623c-1.328,-9.812 -2.655,-19.623 -3.973,-29.435c1.058,3.982 2.385,7.955 3.443,11.668c-9.282,-38.968 -7.156,-46.394 7.686,-28.897c-11.928,-37.121 -16.439,-81.389 -21.47,-128.323c-2.386,-23.327 -4.242,-47.452 -5.839,-71.847c-0.26,-6.099 -0.26,-12.457 -0.26,-18.556c0.26,-19.354 1.328,-38.439 2.915,-57.004c1.587,10.34 0.798,26.78 7.157,27.049c-10.601,-23.865 -10.072,-59.39 -6.888,-91.201c1.058,-14.324 1.587,-27.839 0.529,-39.507c0.529,-10.87 0.789,-22.539 1.857,-32.879c1.318,-14.574 2.385,-28.628 3.444,-42.412c0.529,0.788 0.798,1.587 1.327,2.645c-0.269,-7.686 0,-15.901 0.26,-23.856c0.269,-5.839 0.529,-11.399 1.058,-16.969c2.126,-28.108 6.637,-57.793 11.408,-88.556c3.704,-23.327 8.215,-46.924 12.987,-70.78c4.771,-23.866 12.457,-47.193 18.825,-70.529c-0,-0.26 0.26,-0.53 0.26,-0.789c1.067,5.3 3.184,10.87 5.839,13.515c12.197,-52.493 30.484,-103.659 46.923,-155.354c-2.645,-32.35 -34.726,93.049 -46.923,127.515c-0.799,0 -1.059,1.068 -1.857,1.328c12.197,-41.623 23.327,-82.717 36.852,-119.04c14.843,-40.565 27.839,-77.417 36.323,-108.171c-14.583,31.292 -32.35,71.059 -51.175,115.328c-17.229,44.807 -32.341,95.184 -47.453,145.551c-7.955,25.193 -13.785,50.646 -18.027,76.359c-4.771,25.453 -9.013,50.377 -12.457,74.233c-3.184,23.866 -6.897,46.664 -7.695,67.874c-1.328,21.74 -1.059,41.354 -0.26,58.852Zm876.752,1584.38c-25.713,-16.179 -62.834,-42.69 -99.417,-68.143c-36.592,-25.713 -70.26,-54.35 -95.713,-68.135c12.727,10.61 28.637,25.184 46.135,40.835c17.228,16.17 36.323,32.34 56.206,46.125c38.709,28.367 75.82,51.165 92.789,49.318Zm-917.846,-1715.07c-2.386,19.614 -4.242,39.767 -5.041,59.121c0.27,19.614 1.058,38.179 1.857,54.08c-0.529,-19.883 0.529,-40.295 3.713,-59.909c3.713,-19.624 8.215,-38.978 12.457,-57.274c8.484,-36.314 16.17,-68.135 13.785,-90.933c-13.516,19.614 -22,55.677 -26.771,94.915Zm1598.15,1927.96c-45.596,-15.911 -16.968,1.856 0,-0Zm-1118.29,-2855.09c16.969,-23.596 68.673,-59.659 62.834,-74.233c-15.112,12.986 -23.856,9.013 -38.439,20.672c16.699,8.225 -31.811,41.893 -24.395,53.561Zm935.084,2303.11c-27.569,-6.098 -70.25,-36.053 -87.748,-26.78c27.839,19.354 55.408,30.224 87.748,26.78Zm2102.15,-1599.48c4.511,16.968 9.013,33.398 12.995,48.78c9.014,30.753 18.297,57.264 29.696,75.031c-17.767,-60.448 -32.351,-132.565 -58.862,-174.717c5.57,17.238 10.87,34.197 16.171,50.906Zm-1387.91,2271.83c-11.928,21.999 -22.269,44.008 -47.722,60.977c45.336,-1.327 51.166,-15.911 84.834,-22.798c-2.646,-20.153 -13.785,-33.678 -37.112,-38.179Zm1442.53,-1766.24c0.798,-44.008 23.067,-112.681 1.327,-154.834c-23.337,10.341 -22.269,130.18 -1.327,154.834Zm-2242.93,1574.03c17.767,20.413 110.287,57.265 148.207,48.251c-40.565,-18.026 -120.368,-55.407 -148.207,-48.251Zm2045.41,-773.891c-13.784,28.637 -26.78,55.677 -39.237,81.928c-13.525,25.713 -26.252,51.426 -38.449,77.148c16.709,-27.04 34.466,-56.206 52.503,-86.161c16.43,-30.763 33.138,-62.305 49.838,-93.328c33.937,-61.506 55.677,-124.869 67.345,-175.506c-16.709,37.91 -32.08,72.906 -46.663,105.515c-16.171,32.341 -31.283,62.305 -45.337,90.404Zm233.839,-884.977c3.443,37.381 8.215,74.233 10.34,110.296c1.588,36.323 3.175,71.319 4.772,105.516c1.327,-40.036 2.385,-80.332 2.116,-119.839c-2.116,-39.497 -5.3,-78.475 -9.013,-116.385c-2.117,-18.825 -4.243,-37.381 -6.359,-55.677c-2.924,-18.287 -6.897,-35.794 -10.61,-53.292c-7.686,-34.457 -16.44,-67.336 -25.982,-97.56c14.323,75.82 28.897,151.91 34.736,226.941Z"/></clipPath><g clip-path="url(#_clip2)"><path d="M4105.35,4764.8l634.612,-4134.68l-4105.35,-630.12l-634.612,4134.69l4105.35,630.11Z" style="fill:url(#_Linear3);fill-rule:nonzero;"/></g></g></g></g></g></g><g><clipPath id="_clip4"><path d="M3109.84,1351.71c42.662,-39.661 117.462,-44.182 165.146,-9.043c51.704,38.151 63.748,106.42 71.78,168.167c21.586,-42.171 43.172,-86.344 80.822,-117.463c37.641,-30.618 96.877,-43.672 137.539,-16.564c38.65,25.597 46.683,76.291 44.672,120.973c-8.032,174.179 -131.016,337.325 -298.673,407.594c-29.108,-75.791 -69.269,-148.081 -118.463,-214.339c-39.151,-51.705 -84.334,-100.898 -108.93,-160.125c-24.597,-59.237 -22.087,-134.528 26.107,-179.2Z"/></clipPath><g clip-path="url(#_clip4)"><rect x="3068.68" y="1319.08" width="541.621" height="586.053" style="fill:#fff;fill-rule:nonzero;"/></g></g><path d="M3553.95,2180.44l362.479,-0l-0,566.381l-362.479,0l-0,-566.381Zm79.293,-56.64c-0,-6.233 5.088,-11.322 11.322,-11.322l181.249,0c6.233,0 11.322,5.089 11.322,11.322l-0,33.986l-203.893,-0l-0,-33.986Zm-90.625,645.684l385.142,0c6.243,0 11.332,-5.088 11.332,-11.331l-0,-589.035c-0,-6.243 -5.089,-11.332 -11.332,-11.332l-67.97,-0l-0,-33.986c-0,-18.757 -15.218,-33.975 -33.976,-33.975l-181.249,-0c-18.758,-0 -33.976,15.218 -33.976,33.975l-0,33.986l-67.971,-0c-6.233,-0 -11.322,5.089 -11.322,11.332l0,589.035c0,6.243 5.089,11.331 11.322,11.331" style="fill:#fff;fill-rule:nonzero;"/><path d="M3712.54,2614.62l-0,-139.655c-0,-6.233 -5.089,-11.322 -11.332,-11.322l-30.792,0l39.642,-158.586l88.72,0l-51.686,154.998c-1.144,3.453 -0.567,7.263 1.549,10.226c2.174,2.914 5.579,4.684 9.206,4.684l36.813,0l-82.12,139.655Zm101.946,-162.309l-40.931,0l51.686,-154.997c1.144,-3.454 0.577,-7.263 -1.549,-10.226c-2.174,-2.924 -5.579,-4.694 -9.206,-4.694l-113.278,0c-5.223,0 -9.735,3.54 -10.976,8.59l-45.307,181.24c-0.837,3.366 -0.087,6.945 2.039,9.696c2.164,2.78 5.445,4.377 8.936,4.377l33.986,-0l-0,169.917c-0,5.127 3.405,9.6 8.359,10.928c0.972,0.269 1.991,0.394 2.963,0.394c3.944,0 7.705,-2.077 9.783,-5.569l113.278,-192.571c2.03,-3.502 2.078,-7.831 0.039,-11.371c-1.992,-3.54 -5.753,-5.714 -9.822,-5.714" style="fill:#fff;fill-rule:nonzero;"/><path d="M3599.26,2644.88l-22.653,-0l-0,79.292l79.292,0l0,-22.653l-56.639,-0l0,-56.639" style="fill:#fff;fill-rule:nonzero;"/><path d="M3678.55,2724.17l56.639,0l0,-22.653l-56.639,-0l0,22.653" style="fill:#fff;fill-rule:nonzero;"/><path d="M1661.19,1024.74c-2.396,-0.702 -4.945,0.067 -6.542,1.972c-1.577,1.905 -1.866,4.569 -0.74,6.782c17.805,34.495 26.847,71.559 26.847,110.161c0,132.835 -108.074,240.919 -240.918,240.919c-23.481,-0 -46.885,-3.463 -69.548,-10.284c-2.347,-0.731 -4.935,0.068 -6.522,1.963c-1.578,1.904 -1.876,4.579 -0.741,6.781c43.73,84.776 129.978,137.443 225.085,137.443c139.654,-0 253.269,-113.615 253.269,-253.28c-0.009,-110.806 -74.098,-210.511 -180.19,-242.457Zm-73.098,483.366c-85.661,0 -163.761,-44.923 -207.126,-118.146c19.326,4.618 39.065,6.955 58.871,6.955c139.664,0 253.279,-113.615 253.279,-253.279c0,-35.649 -7.33,-70.058 -21.826,-102.495c93.558,34.524 157.729,125.466 157.729,226.037c0,132.844 -108.083,240.928 -240.927,240.928Z" style="fill:#fff;fill-rule:nonzero;"/><path d="M1393.21,1149.83l110.363,-0l-115.106,138.116c-1.529,1.837 -1.866,4.396 -0.846,6.57c1.02,2.174 3.203,3.559 5.598,3.559l123.552,-0c3.405,-0 6.176,-2.771 6.176,-6.176c-0,-3.415 -2.771,-6.176 -6.176,-6.176l-110.363,0l115.106,-138.115c1.529,-1.847 1.866,-4.415 0.836,-6.58c-1.01,-2.174 -3.193,-3.549 -5.588,-3.549l-123.552,-0c-3.415,-0 -6.176,2.76 -6.176,6.175c0,3.406 2.761,6.176 6.176,6.176Z" style="fill:#fff;fill-rule:nonzero;"/><path d="M1374.67,1080.07c0,-3.405 -2.761,-6.176 -6.175,-6.176l-61.776,0l66.72,-88.95c1.404,-1.867 1.635,-4.377 0.577,-6.465c-1.048,-2.087 -3.184,-3.405 -5.521,-3.405l-74.128,0c-3.405,0 -6.175,2.761 -6.175,6.176c-0,3.405 2.77,6.175 6.175,6.175l61.776,0l-66.72,88.951c-1.404,1.866 -1.626,4.377 -0.577,6.464c1.048,2.088 3.184,3.415 5.521,3.415l74.128,0c3.424,0 6.175,-2.76 6.175,-6.185Z" style="fill:#fff;fill-rule:nonzero;"/><path d="M1442.62,937.989l37.881,0l-43.018,64.527c-1.26,1.895 -1.385,4.339 -0.308,6.339c1.078,2.001 3.165,3.261 5.445,3.261l49.424,0c3.406,0 6.176,-2.76 6.176,-6.175c-0,-3.406 -2.77,-6.176 -6.176,-6.176l-37.881,0l43.018,-64.527c1.26,-1.895 1.385,-4.338 0.308,-6.339c-1.068,-2.001 -3.165,-3.261 -5.445,-3.261l-49.424,-0c-3.406,-0 -6.176,2.77 -6.176,6.176c0,3.414 2.77,6.175 6.176,6.175Z" style="fill:#fff;fill-rule:nonzero;"/><path d="M3689.2,3125.31l-459.924,-0c-25.289,-0 -45.99,20.71 -45.99,46l-0,459.933c-0,25.28 20.701,45.981 45.99,45.981l459.924,-0c25.289,-0 46,-20.701 46,-45.991l-0,-459.923c-0,-25.29 -20.711,-46 -46,-46Zm-206.962,46l0,19.585c0,33.802 13.159,65.556 37.006,89.403l21.875,21.845c6.512,6.513 10.1,15.161 10.1,24.376c-0,19.037 -15.487,34.514 -34.495,34.514c-3.944,-0.028 -6.551,-1.827 -8.119,-3.395l-33.11,-33.12c-8.985,-8.965 -23.529,-8.965 -32.514,0.019l-33.081,33.082c-1.558,1.548 -4.223,3.386 -8.157,3.414c-19.027,0 -34.495,-15.496 -34.495,-34.514c-0,-9.196 3.597,-17.863 10.129,-24.395l21.807,-21.807c23.895,-23.866 37.054,-55.648 37.073,-89.47l0,-19.537l45.981,-0Zm9.879,229.961c-5.925,2.829 -11.428,6.484 -16.026,11.092l-16.805,16.843l-16.863,-16.843c-4.607,-4.608 -10.081,-8.263 -16.045,-11.092c5.955,-2.828 11.438,-6.512 16.036,-11.091l16.824,-16.872l16.844,16.843c4.598,4.608 10.1,8.292 16.035,11.12Zm-262.841,229.962l0,-459.923l160.952,-0l0,19.537c0,20.614 -7.839,41.219 -23.558,56.947l-21.826,21.836c-14.573,14.544 -23.587,34.649 -23.587,56.889c0,34.024 21.201,62.959 51.07,74.752c-29.869,11.765 -51.07,40.739 -51.041,74.734c0,22.24 9.004,42.364 23.577,56.908l21.856,21.884c15.698,15.69 23.529,36.285 23.548,56.899l-0,19.537l-160.991,0Zm206.972,0l-0,-19.556c-0,-33.803 -13.169,-65.556 -37.016,-89.403l-21.846,-21.874c-6.531,-6.513 -10.129,-15.132 -10.129,-24.347c0,-19.047 15.468,-34.515 34.515,-34.544c3.924,0 6.579,1.828 8.138,3.367l33.119,33.149c8.985,8.965 23.51,8.965 32.524,-0.039l33.052,-33.062c1.529,-1.548 4.223,-3.386 8.128,-3.415c19.047,0 34.544,15.478 34.496,34.525c-0,9.186 -3.598,17.853 -10.11,24.366l-21.827,21.826c-23.846,23.895 -37.054,55.668 -37.054,89.47l0,19.537l-45.99,0Zm252.952,0l-160.971,0l-0,-19.537c-0,-20.633 7.868,-41.238 23.577,-56.947l21.836,-21.836c14.592,-14.544 23.577,-34.639 23.577,-56.879c0.048,-34.024 -21.172,-62.998 -51.05,-74.763c29.849,-11.774 51.05,-40.719 51.05,-74.733c-0,-22.24 -9.033,-42.354 -23.577,-56.937l-21.836,-21.846c-15.709,-15.699 -23.577,-36.313 -23.577,-56.908l-0,-19.537l160.971,-0l-0,459.923Z" style="fill:#fff;fill-rule:nonzero;"/><path d="M1146.06,2054.26c3.271,0.529 5.579,-0.462 7.561,-3.059c-1.472,1.904 1.943,-2.155 2.636,-2.857c2.741,-2.799 5.82,-5.05 9.148,-7.022c12.899,-7.783 26.867,-4.377 38.862,3.357c7.273,4.656 13.948,-6.888 6.753,-11.553c-22.028,-14.179 -48.809,-11.688 -65.951,7.618c-15.92,-1.702 -31.426,1.626 -42.431,14.381c-4.483,5.195 -8.119,11.813 -10.158,18.633c-16.545,-2.491 -33.052,0 -43.662,14.641c-5.416,7.465 -7.956,18.315 -7.523,27.454c0.404,8.561 13.746,8.619 13.361,-0c-0.269,-5.502 0.857,-11.37 3.175,-16.372c6.926,-15.016 23.952,-14.728 37.977,-11.524c3.194,0.702 7.696,-0.953 8.225,-4.666c3.078,-21.451 21.124,-32.514 42.027,-29.031" style="fill:#fff;fill-rule:nonzero;"/><path d="M1176.13,1970.36c11.64,24.058 37.574,33.985 63.104,23.923c5.925,-2.357 3.347,-12.024 -2.684,-9.667c-14.862,5.867 -29.695,5.781 -41.787,-5.551c-4.434,-4.146 -9.282,-11.582 -10.927,-15.93c-0.972,-2.51 -3.358,-4.3 -6.166,-3.491c-19.326,5.56 -43.586,2.337 -49.531,-20.172c-1.635,-6.253 -11.303,-3.588 -9.638,2.674c6.945,26.328 33.918,33.446 57.629,28.214" style="fill:#fff;fill-rule:nonzero;"/><path d="M1013.36,2119.34c-18.123,-3.511 -30.782,-20.297 -36.178,-37.217c0.231,-21.644 -18.979,-37.882 -39.575,-38.622c-6.454,-0.27 -6.435,9.744 0,10.013c16.402,0.578 28.666,12.717 29.522,29.022c0,0.26 0,0.548 0.029,0.789c0.452,16.42 -13.996,28.714 -29.551,29.281c-6.435,0.222 -6.454,10.245 0,10.014c16.411,-0.615 29.801,-9.927 35.939,-23.712c7.974,14.564 20.749,26.935 37.131,30.1c6.319,1.202 9.003,-8.427 2.683,-9.668" style="fill:#fff;fill-rule:nonzero;"/><path d="M1046.16,2046.41c5.396,-19.21 10.408,-50.55 -5.512,-67.096c8.926,-7.253 14.621,-18.277 17.016,-30.859c1.222,-6.31 -8.426,-8.984 -9.658,-2.664c-3.616,18.892 -14.304,32.042 -34.254,32.744c-8.735,0.289 -18.027,-1.539 -26.155,-4.867c-5.974,-2.463 -8.552,7.253 -2.655,9.667c10.283,4.185 22.211,5.935 33.225,4.945c4.983,-0.453 9.475,-1.703 13.535,-3.454c0.432,0.395 0.942,0.837 1.164,1.068c2.356,2.578 4.03,5.897 5.309,9.119c6.051,15.478 2.665,33.303 -1.693,48.703c-1.75,6.234 7.908,8.908 9.678,2.694" style="fill:#fff;fill-rule:nonzero;"/><path d="M1178.45,2144.37c1.981,-8.388 -10.899,-11.957 -12.871,-3.569c-3.415,14.381 -11.697,24.443 -27.04,25.309c-6.715,0.365 -13.804,-0.847 -20.095,-3.261c-8.052,-3.059 -11.524,9.831 -3.55,12.89c8.735,3.328 18.883,4.434 28.118,3.309c2.751,-0.337 5.367,-0.943 7.83,-1.761c8.994,9.225 13.506,23.212 14.487,35.919c0.654,8.513 14.025,8.571 13.361,0c-1.154,-15.016 -5.964,-30.782 -15.785,-42.412c7.792,-6.31 13.005,-15.641 15.545,-26.424" style="fill:#fff;fill-rule:nonzero;"/><path d="M1286.12,2059.82c-0.087,-6.445 -10.101,-6.445 -10.024,-0c0.164,12.226 -7.724,20.124 -19.258,22.846c-17.969,4.271 -35.034,-7.176 -53.051,-4.983c-16.362,1.991 -30.339,14.852 -35.053,30.522c-1.856,6.205 7.821,8.85 9.658,2.675c1.674,-5.56 5.223,-10.659 9.206,-14.757c11.63,-11.889 26.848,-8.792 41.219,-5.319c-3.049,15.862 2.145,29.926 16.844,37.939c8.513,4.636 18.988,6.916 28.665,7.08c6.436,0.125 6.426,-9.879 0,-10.014c-6.512,-0.135 -13.024,-1.568 -19.161,-3.752c-13.458,-4.781 -19.316,-15.641 -16.517,-29.387c22.586,2.616 47.799,-6.051 47.472,-32.85" style="fill:#fff;fill-rule:nonzero;"/><path d="M1249.16,2216.78c-13.746,24.356 -39.872,40.863 -69.856,40.863c-44.278,0 -80.149,-35.861 -80.149,-80.139c-0,-1.645 0.048,-3.242 0.154,-4.867c-14.525,14.804 -34.736,23.942 -57.111,23.942c-27.011,0 -50.857,-13.361 -65.373,-33.85c-9.293,3.78 -19.431,5.877 -30.051,5.877c-44.259,0 -80.14,-35.928 -80.14,-80.168c0,-31.965 18.777,-59.573 45.866,-72.434c-0.212,-2.521 -0.356,-5.089 -0.356,-7.705c-0,-44.279 35.871,-80.14 80.139,-80.14c4.531,0 8.956,0.395 13.275,1.106c14.698,-17.767 36.91,-29.089 61.776,-29.089c17.507,0 33.658,5.608 46.856,15.122c13.477,-10.274 30.292,-16.401 48.559,-16.401c36.785,-0 67.759,24.789 77.196,58.553c43.277,1.155 78.013,36.564 78.013,80.101c0,16.959 -5.271,32.677 -14.246,45.587c12.813,14.227 20.624,33.013 20.624,53.647c-0,42.576 -33.245,77.427 -75.176,79.995Zm-153.68,-432.633c-162.433,-0 -294.123,131.68 -294.123,294.123c0,162.434 131.69,294.123 294.123,294.123c162.443,0 294.124,-131.689 294.124,-294.123c-0,-162.443 -131.681,-294.123 -294.124,-294.123" style="fill:#fff;fill-rule:nonzero;"/><path d="M1373.37,3039.76c10.119,-0.193 18.421,7.791 18.671,17.911l-0,0.5c-0,10.12 -8.177,18.296 -18.229,18.354c-10.12,-0 -18.286,-8.167 -18.354,-18.287l0,-0.067c-0.067,-9.994 7.917,-18.161 17.912,-18.411Zm-92.453,-3.964c6.724,-0.125 12.313,5.224 12.438,11.948l0,0.375c0.26,6.724 -5.021,12.38 -11.745,12.572c-6.791,0.251 -12.448,-5.031 -12.64,-11.822l0,-0.75c-0.058,-6.724 5.281,-12.198 11.947,-12.323Zm200.623,-43.431c5.849,-0.183 10.754,4.405 10.937,10.312l0,0.308c0.125,5.916 -4.521,10.754 -10.427,10.879c-5.916,0.125 -10.755,-4.588 -10.88,-10.437l0,-0.442c0,-5.714 4.589,-10.495 10.37,-10.62Zm-67.692,-3.579c10.495,-0.192 19.172,8.109 19.364,18.537l-0,0.567c0.308,10.438 -7.984,19.172 -18.421,19.422c-10.437,0.318 -19.172,-7.984 -19.422,-18.411l0,-1.011c-0.058,-10.369 8.177,-18.854 18.479,-19.104Zm61.16,-65.306c5.281,-0.192 9.735,4.021 9.87,9.302l-0,0.25c0.058,5.349 -4.156,9.677 -9.495,9.745c-5.281,0.057 -9.619,-4.146 -9.677,-9.495l0,-0.25c0,-5.156 4.146,-9.427 9.302,-9.552Zm82.275,-3.328c11.688,-0.193 21.365,9.177 21.49,20.922l-0,0.568c0.442,11.754 -8.734,21.557 -20.422,21.999c-11.697,0.443 -21.557,-8.734 -21.942,-20.422c-0.058,-0.51 -0.058,-1.068 0,-1.577c-0.183,-11.688 9.119,-21.307 20.874,-21.49Zm37.208,-77.311c-19.922,42.671 -70.712,61.092 -113.394,41.228c-9.302,-4.396 -17.786,-10.369 -24.952,-17.786c-3.386,25.02 -14.574,48.338 -31.927,66.624c-51.416,54.494 -123.629,84.536 -198.555,82.65c20.115,59.208 76.244,98.493 138.722,97.108c11.062,-0.25 22.125,-0.25 33.187,0c112.316,2.52 205.461,-86.546 207.981,-198.929c0.501,-24.068 -3.203,-48.078 -11.062,-70.895" style="fill:#fff;fill-rule:nonzero;"/><path d="M1304.36,2626.05c1.76,-9.369 10.87,-15.525 20.239,-13.698c9.36,1.818 15.459,10.87 13.698,20.24c-11.88,61.275 6.224,124.504 48.655,170.331c24.693,26.713 24.443,68.009 -0.567,94.405c-54.369,57.572 -136.269,80.072 -212.387,58.322c-64.229,-18.286 -131.171,18.921 -149.457,83.16c-2.396,8.292 -3.838,16.843 -4.406,25.453c-2.578,39.853 -2.328,79.822 0.625,119.675c0.76,9.485 -6.406,17.786 -15.958,18.479c-9.495,0.75 -17.729,-6.416 -18.479,-15.901c-3.146,-41.421 -3.329,-83.035 -0.693,-124.514c5.531,-85.67 79.447,-150.726 165.175,-145.195c11.063,0.692 22,2.578 32.687,5.656c63.729,18.171 132.305,-0.683 177.748,-48.838c12.447,-13.323 12.447,-33.937 -0,-47.26c-49.906,-53.801 -71.213,-128.217 -57.255,-200.315l0.375,0" style="fill:#fff;fill-rule:nonzero;"/><path d="M1477.84,2784c52.734,-35.322 124.197,-21.114 159.452,31.677c2.27,3.271 4.338,6.724 6.166,10.245c46.01,133.315 -24.77,278.626 -158.076,324.636c-28.598,9.869 -58.707,14.583 -88.999,13.89c-10.312,-0.183 -20.614,-0.183 -30.868,0c-79.13,1.828 -151.468,-44.499 -183.087,-117.03c-7.609,-17.536 -27.973,-25.52 -45.442,-17.911c-6.031,2.578 -11.187,6.916 -14.833,12.313c-28.156,41.738 -39.478,92.529 -31.744,142.175c1.568,9.427 10.495,15.776 19.922,14.275c9.244,-1.578 15.593,-10.245 14.208,-19.547c-5.714,-36.65 1.135,-74.175 19.363,-106.477c1.886,-3.328 6.09,-4.463 9.427,-2.578c1.193,0.625 2.136,1.693 2.761,2.895c39.786,79.187 121.619,128.468 210.184,126.457c9.803,-0.192 19.547,-0.192 29.349,0c160.029,3.579 292.71,-123.253 296.298,-283.34c0.75,-35.197 -4.849,-70.269 -16.661,-103.456c-36.958,-73.223 -126.024,-103.015 -199.622,-66.817c-3.454,1.703 -7.609,0.943 -10.178,-1.885c-27.405,-29.984 -37.717,-71.78 -27.405,-111.056c2.452,-9.245 -3.146,-18.672 -12.323,-21.057c-9.235,-2.453 -18.671,3.078 -21.115,12.255c-15.468,58.957 5.214,121.426 52.792,159.461c5.848,4.713 14.14,5.088 20.431,0.875" style="fill:#fff;fill-rule:nonzero;"/><path d="M2916.8,821.306c-32.436,-0 -58.736,26.309 -58.736,58.745c0,32.447 26.3,58.746 58.736,58.746c32.447,0 58.746,-26.299 58.746,-58.746c-0,-32.436 -26.299,-58.745 -58.746,-58.745Zm0,110.96c-28.791,-0 -52.214,-23.424 -52.214,-52.215c0,-28.79 23.423,-52.214 52.214,-52.214c28.791,0 52.224,23.424 52.224,52.214c0,28.791 -23.433,52.215 -52.224,52.215Z" style="fill:#fff;fill-rule:nonzero;"/><path d="M2916.8,853.944c-1.799,0 -3.261,1.463 -3.261,3.261l0,10.428c0,1.799 1.462,3.261 3.261,3.261c1.809,-0 3.271,-1.462 3.271,-3.261l-0,-10.428c-0,-1.798 -1.462,-3.261 -3.271,-3.261Z" style="fill:#fff;fill-rule:nonzero;"/><path d="M2916.8,889.209c-1.799,0 -3.261,1.462 -3.261,3.261l0,10.428c0,1.798 1.462,3.261 3.261,3.261c1.809,-0 3.271,-1.463 3.271,-3.261l-0,-10.428c-0,-1.799 -1.462,-3.261 -3.271,-3.261Z" style="fill:#fff;fill-rule:nonzero;"/><path d="M2939.64,876.79l-10.417,0c-1.809,0 -3.271,1.463 -3.271,3.261c-0,1.799 1.462,3.261 3.271,3.261l10.417,0c1.809,0 3.271,-1.462 3.271,-3.261c-0,-1.798 -1.462,-3.261 -3.271,-3.261Z" style="fill:#fff;fill-rule:nonzero;"/><path d="M2904.38,876.79l-10.418,0c-1.809,0 -3.271,1.463 -3.271,3.261c0,1.799 1.462,3.261 3.271,3.261l10.418,0c1.808,0 3.261,-1.462 3.261,-3.261c-0,-1.798 -1.453,-3.261 -3.261,-3.261Z" style="fill:#fff;fill-rule:nonzero;"/><path d="M2915.91,788.677l-0.01,-0c-78.013,0.009 -135.807,64.546 -148.158,79.504c-1.376,1.674 -1.405,4.492 -0.077,6.234c51.675,67.961 102.639,90.489 147.542,90.489c78.351,0 138.183,-68.663 150.717,-84.218c1.366,-1.693 1.328,-4.463 -0.057,-6.137c-53.484,-64.498 -105.064,-85.872 -149.957,-85.872Zm-0.703,169.696c-49.838,-0 -97.492,-29.263 -141.646,-86.989c12.419,-14.794 68.414,-76.176 142.339,-76.185l0.01,-0c49.905,-0 98.368,27.752 144.06,82.467c-12.967,15.814 -70.741,80.707 -144.763,80.707Z" style="fill:#fff;fill-rule:nonzero;"/><path d="M2824.07,856.59c1.462,-1.049 1.799,-3.088 0.741,-4.55c-1.049,-1.462 -3.088,-1.799 -4.55,-0.741c-23.904,17.209 -24.068,19.643 -24.193,21.605c-0.144,2.097 -0.221,3.377 23.827,22.741c0.597,0.49 1.328,0.721 2.04,0.721c0.952,0 1.904,-0.414 2.549,-1.212c1.125,-1.404 0.904,-3.463 -0.501,-4.588c-13.688,-11.024 -18.786,-15.651 -20.681,-17.566c1.75,-1.818 6.743,-6.3 20.768,-16.41Z" style="fill:#fff;fill-rule:nonzero;"/><path d="M2916.8,697.302c1.809,-0 3.271,-1.462 3.271,-3.271l-0,-19.575c-0,-1.799 -1.462,-3.261 -3.271,-3.261c-1.799,-0 -3.261,1.462 -3.261,3.261l0,19.575c0,1.809 1.462,3.271 3.261,3.271Z" style="fill:#fff;fill-rule:nonzero;"/><path d="M2916.8,1062.81c-1.799,-0 -3.261,1.452 -3.261,3.261l0,19.575c0,1.809 1.462,3.271 3.261,3.271c1.809,-0 3.271,-1.462 3.271,-3.271l-0,-19.575c-0,-1.809 -1.462,-3.261 -3.271,-3.261Z" style="fill:#fff;fill-rule:nonzero;"/><path d="M3122.41,876.79l-19.586,0c-1.798,0 -3.261,1.463 -3.261,3.261c0,1.799 1.463,3.261 3.261,3.261l19.586,0c1.798,0 3.261,-1.462 3.261,-3.261c-0,-1.798 -1.463,-3.261 -3.261,-3.261Z" style="fill:#fff;fill-rule:nonzero;"/><path d="M2734.05,880.051c-0,-1.798 -1.463,-3.261 -3.261,-3.261l-19.586,0c-1.798,0 -3.261,1.463 -3.261,3.261c0,1.799 1.463,3.261 3.261,3.261l19.586,0c1.798,0 3.261,-1.462 3.261,-3.261Z" style="fill:#fff;fill-rule:nonzero;"/><path d="M3050.64,1009.28c-1.28,-1.28 -3.338,-1.28 -4.618,-0c-1.269,1.269 -1.269,3.338 0,4.617l13.852,13.842c0.635,0.635 1.472,0.953 2.309,0.953c0.827,-0 1.664,-0.318 2.309,-0.953c1.269,-1.279 1.269,-3.338 -0,-4.617l-13.852,-13.842Z" style="fill:#fff;fill-rule:nonzero;"/><path d="M2782.96,750.824c0.635,0.635 1.472,0.953 2.309,0.953c0.827,-0 1.664,-0.318 2.299,-0.953c1.279,-1.279 1.279,-3.338 -0,-4.617l-13.842,-13.842c-1.27,-1.28 -3.338,-1.28 -4.618,-0c-1.269,1.269 -1.269,3.338 0,4.607l13.852,13.852Z" style="fill:#fff;fill-rule:nonzero;"/><path d="M2782.96,1009.28l-13.852,13.842c-1.269,1.279 -1.269,3.338 0,4.617c0.635,0.635 1.472,0.953 2.309,0.953c0.837,-0 1.674,-0.318 2.309,-0.953l13.842,-13.842c1.279,-1.279 1.279,-3.348 -0,-4.617c-1.27,-1.28 -3.338,-1.28 -4.608,-0Z" style="fill:#fff;fill-rule:nonzero;"/><path d="M3048.34,751.777c0.837,-0 1.674,-0.318 2.309,-0.953l13.852,-13.852c1.269,-1.269 1.269,-3.338 -0,-4.607c-1.28,-1.28 -3.348,-1.28 -4.618,-0l-13.852,13.842c-1.269,1.279 -1.269,3.338 0,4.617c0.645,0.635 1.472,0.953 2.309,0.953Z" style="fill:#fff;fill-rule:nonzero;"/><path d="M2743.2,946.945l-18.152,7.359c-1.664,0.673 -2.472,2.578 -1.789,4.252c0.509,1.269 1.731,2.039 3.02,2.039c0.414,-0 0.827,-0.077 1.231,-0.241l18.143,-7.368c1.673,-0.673 2.472,-2.578 1.798,-4.252c-0.683,-1.664 -2.578,-2.472 -4.251,-1.789Z" style="fill:#fff;fill-rule:nonzero;"/><path d="M3090.41,813.158l18.143,-7.359c1.673,-0.673 2.472,-2.578 1.798,-4.252c-0.682,-1.664 -2.587,-2.472 -4.251,-1.798l-18.143,7.368c-1.673,0.673 -2.481,2.578 -1.798,4.242c0.509,1.27 1.731,2.04 3.02,2.04c0.414,-0 0.827,-0.077 1.231,-0.241Z" style="fill:#fff;fill-rule:nonzero;"/><path d="M2723.83,809.002l18.267,7.061c0.385,0.144 0.789,0.221 1.174,0.221c1.308,0 2.549,-0.798 3.049,-2.087c0.644,-1.683 -0.192,-3.578 -1.866,-4.223l-18.268,-7.051c-1.673,-0.654 -3.578,0.183 -4.222,1.866c-0.655,1.674 0.182,3.569 1.866,4.213Z" style="fill:#fff;fill-rule:nonzero;"/><path d="M3109.76,951.091l-18.268,-7.051c-1.683,-0.654 -3.568,0.183 -4.222,1.866c-0.645,1.683 0.192,3.569 1.875,4.223l18.258,7.051c0.385,0.154 0.789,0.221 1.174,0.221c1.308,0 2.549,-0.798 3.049,-2.087c0.644,-1.684 -0.193,-3.569 -1.866,-4.223Z" style="fill:#fff;fill-rule:nonzero;"/><path d="M2837.78,711.616c0.549,1.212 1.732,1.933 2.982,1.933c0.443,0 0.895,-0.096 1.328,-0.289c1.645,-0.74 2.385,-2.664 1.645,-4.309l-8.004,-17.873c-0.731,-1.654 -2.664,-2.386 -4.309,-1.645c-1.645,0.731 -2.376,2.665 -1.645,4.31l8.003,17.873Z" style="fill:#fff;fill-rule:nonzero;"/><path d="M2995.81,1048.49c-0.741,-1.654 -2.674,-2.376 -4.319,-1.644c-1.645,0.74 -2.376,2.664 -1.645,4.309l8.003,17.873c0.549,1.212 1.742,1.924 2.982,1.924c0.453,-0 0.905,-0.087 1.338,-0.279c1.644,-0.741 2.376,-2.665 1.644,-4.319l-8.003,-17.864Z" style="fill:#fff;fill-rule:nonzero;"/><path d="M2986.39,711.067c0.404,0.164 0.827,0.241 1.241,0.241c1.289,-0 2.501,-0.76 3.02,-2.02l7.456,-18.104c0.692,-1.674 -0.106,-3.579 -1.77,-4.262c-1.665,-0.692 -3.579,0.106 -4.262,1.77l-7.455,18.114c-0.692,1.664 0.106,3.569 1.77,4.261Z" style="fill:#fff;fill-rule:nonzero;"/><path d="M2847.21,1049.04c-1.673,-0.683 -3.578,0.106 -4.261,1.779l-7.465,18.104c-0.683,1.664 0.116,3.569 1.78,4.261c0.404,0.164 0.827,0.241 1.241,0.241c1.279,-0 2.501,-0.76 3.02,-2.02l7.455,-18.104c0.683,-1.664 -0.105,-3.569 -1.77,-4.261Z" style="fill:#fff;fill-rule:nonzero;"/><path d="M2838.48,844.152c-0,0.433 -0.077,0.856 -0.25,1.25c-0.164,0.404 -0.395,0.751 -0.702,1.058c-0.308,0.308 -0.664,0.539 -1.059,0.712c-0.404,0.164 -0.817,0.25 -1.25,0.25c-0.433,0 -0.847,-0.086 -1.251,-0.25c-0.394,-0.173 -0.75,-0.404 -1.058,-0.712c-0.308,-0.307 -0.538,-0.654 -0.702,-1.058c-0.173,-0.394 -0.25,-0.817 -0.25,-1.25c-0,-0.433 0.077,-0.847 0.25,-1.251c0.164,-0.394 0.394,-0.75 0.702,-1.058c0.308,-0.298 0.664,-0.539 1.058,-0.702c0.404,-0.164 0.818,-0.25 1.251,-0.25c0.433,-0 0.846,0.086 1.25,0.25c0.395,0.163 0.751,0.404 1.059,0.702c0.307,0.308 0.538,0.664 0.702,1.058c0.173,0.404 0.25,0.818 0.25,1.251Z" style="fill:#fff;fill-rule:nonzero;"/><path d="M3013.72,854.666c-1.405,-1.135 -3.454,-0.904 -4.589,0.49c-1.125,1.405 -0.904,3.463 0.501,4.599c13.688,11.023 18.786,15.641 20.681,17.555c-1.75,1.828 -6.743,6.31 -20.768,16.411c-1.462,1.058 -1.799,3.097 -0.741,4.559c0.635,0.885 1.636,1.357 2.646,1.357c0.663,-0 1.327,-0.202 1.904,-0.616c23.905,-17.219 24.068,-19.652 24.193,-21.605c0.144,-2.107 0.221,-3.377 -23.827,-22.75Z" style="fill:#fff;fill-rule:nonzero;"/><path d="M3001.65,906.159c0,0.432 -0.077,0.846 -0.25,1.25c-0.164,0.404 -0.394,0.75 -0.702,1.058c-0.308,0.308 -0.664,0.539 -1.058,0.712c-0.404,0.164 -0.818,0.241 -1.251,0.241c-0.433,-0 -0.846,-0.077 -1.25,-0.241c-0.404,-0.173 -0.751,-0.404 -1.059,-0.712c-0.307,-0.308 -0.538,-0.654 -0.711,-1.058c-0.164,-0.404 -0.241,-0.818 -0.241,-1.25c0,-0.433 0.077,-0.847 0.241,-1.251c0.173,-0.394 0.404,-0.75 0.711,-1.058c0.308,-0.308 0.655,-0.539 1.059,-0.702c0.404,-0.164 0.817,-0.25 1.25,-0.25c0.433,-0 0.847,0.086 1.251,0.25c0.394,0.163 0.75,0.394 1.058,0.702c0.308,0.308 0.538,0.664 0.702,1.058c0.173,0.404 0.25,0.818 0.25,1.251Z" style="fill:#fff;fill-rule:nonzero;"/></g><defs><linearGradient id="_Linear3" x1="0" y1="0" x2="1" y2="0" gradientUnits="userSpaceOnUse" gradientTransform="matrix(-4105.34,-630.113,630.113,-4105.34,4425.32,2680.05)"><stop offset="0" style="stop-color:#05699d;stop-opacity:1"/><stop offset="0.07" style="stop-color:#05689c;stop-opacity:1"/><stop offset="0.08" style="stop-color:#08679b;stop-opacity:1"/><stop offset="0.08" style="stop-color:#08679b;stop-opacity:1"/><stop offset="0.09" style="stop-color:#0a669a;stop-opacity:1"/><stop offset="0.1" style="stop-color:#0c669a;stop-opacity:1"/><stop offset="0.1" style="stop-color:#0c6699;stop-opacity:1"/><stop offset="0.11" style="stop-color:#0d6599;stop-opacity:1"/><stop offset="0.11" style="stop-color:#0f6598;stop-opacity:1"/><stop offset="0.12" style="stop-color:#0f6498;stop-opacity:1"/><stop offset="0.13" style="stop-color:#116497;stop-opacity:1"/><stop offset="0.13" style="stop-color:#126397;stop-opacity:1"/><stop offset="0.13" style="stop-color:#136397;stop-opacity:1"/><stop offset="0.14" style="stop-color:#136396;stop-opacity:1"/><stop offset="0.14" style="stop-color:#146296;stop-opacity:1"/><stop offset="0.15" style="stop-color:#176195;stop-opacity:1"/><stop offset="0.16" style="stop-color:#176194;stop-opacity:1"/><stop offset="0.16" style="stop-color:#196194;stop-opacity:1"/><stop offset="0.18" style="stop-color:#1c5f92;stop-opacity:1"/><stop offset="0.19" style="stop-color:#1f5e91;stop-opacity:1"/><stop offset="0.2" style="stop-color:#1f5e91;stop-opacity:1"/><stop offset="0.21" style="stop-color:#235c8f;stop-opacity:1"/><stop offset="0.23" style="stop-color:#265c8e;stop-opacity:1"/><stop offset="0.23" style="stop-color:#265b8e;stop-opacity:1"/><stop offset="0.24" style="stop-color:#285b8d;stop-opacity:1"/><stop offset="0.24" style="stop-color:#295a8d;stop-opacity:1"/><stop offset="0.25" style="stop-color:#2a5a8c;stop-opacity:1"/><stop offset="0.25" style="stop-color:#2b598c;stop-opacity:1"/><stop offset="0.26" style="stop-color:#2c598c;stop-opacity:1"/><stop offset="0.26" style="stop-color:#2d598b;stop-opacity:1"/><stop offset="0.27" style="stop-color:#2e588b;stop-opacity:1"/><stop offset="0.27" style="stop-color:#2e588b;stop-opacity:1"/><stop offset="0.27" style="stop-color:#2f588a;stop-opacity:1"/><stop offset="0.28" style="stop-color:#30578a;stop-opacity:1"/><stop offset="0.29" style="stop-color:#335688;stop-opacity:1"/><stop offset="0.32" style="stop-color:#385486;stop-opacity:1"/><stop offset="0.33" style="stop-color:#3a5385;stop-opacity:1"/><stop offset="0.34" style="stop-color:#3c5385;stop-opacity:1"/><stop offset="0.34" style="stop-color:#3d5284;stop-opacity:1"/><stop offset="0.34" style="stop-color:#3d5284;stop-opacity:1"/><stop offset="0.35" style="stop-color:#3f5283;stop-opacity:1"/><stop offset="0.36" style="stop-color:#405183;stop-opacity:1"/><stop offset="0.36" style="stop-color:#415182;stop-opacity:1"/><stop offset="0.38" style="stop-color:#445081;stop-opacity:1"/><stop offset="0.38" style="stop-color:#454f81;stop-opacity:1"/><stop offset="0.38" style="stop-color:#454f81;stop-opacity:1"/><stop offset="0.39" style="stop-color:#464f80;stop-opacity:1"/><stop offset="0.39" style="stop-color:#474e80;stop-opacity:1"/><stop offset="0.4" style="stop-color:#494e7f;stop-opacity:1"/><stop offset="0.4" style="stop-color:#494d7f;stop-opacity:1"/><stop offset="0.41" style="stop-color:#4b4d7e;stop-opacity:1"/><stop offset="0.41" style="stop-color:#4c4d7e;stop-opacity:1"/><stop offset="0.42" style="stop-color:#4c4c7d;stop-opacity:1"/><stop offset="0.43" style="stop-color:#504b7c;stop-opacity:1"/><stop offset="0.44" style="stop-color:#504b7c;stop-opacity:1"/><stop offset="0.44" style="stop-color:#514a7b;stop-opacity:1"/><stop offset="0.45" style="stop-color:#54497a;stop-opacity:1"/><stop offset="0.46" style="stop-color:#54497a;stop-opacity:1"/><stop offset="0.48" style="stop-color:#584878;stop-opacity:1"/><stop offset="0.48" style="stop-color:#594778;stop-opacity:1"/><stop offset="0.49" style="stop-color:#5b4777;stop-opacity:1"/><stop offset="0.5" style="stop-color:#5d4676;stop-opacity:1"/><stop offset="0.5" style="stop-color:#5e4576;stop-opacity:1"/><stop offset="0.51" style="stop-color:#5f4576;stop-opacity:1"/><stop offset="0.51" style="stop-color:#604575;stop-opacity:1"/><stop offset="0.52" style="stop-color:#604475;stop-opacity:1"/><stop offset="0.52" style="stop-color:#624474;stop-opacity:1"/><stop offset="0.53" style="stop-color:#634374;stop-opacity:1"/><stop offset="0.53" style="stop-color:#634374;stop-opacity:1"/><stop offset="0.54" style="stop-color:#644373;stop-opacity:1"/><stop offset="0.54" style="stop-color:#654373;stop-opacity:1"/><stop offset="0.54" style="stop-color:#664273;stop-opacity:1"/><stop offset="0.55" style="stop-color:#674272;stop-opacity:1"/><stop offset="0.55" style="stop-color:#674272;stop-opacity:1"/><stop offset="0.57" style="stop-color:#6b4070;stop-opacity:1"/><stop offset="0.57" style="stop-color:#6b4070;stop-opacity:1"/><stop offset="0.58" style="stop-color:#6d3f6f;stop-opacity:1"/><stop offset="0.59" style="stop-color:#6f3f6f;stop-opacity:1"/><stop offset="0.59" style="stop-color:#6f3e6e;stop-opacity:1"/><stop offset="0.6" style="stop-color:#723e6d;stop-opacity:1"/><stop offset="0.61" style="stop-color:#733d6d;stop-opacity:1"/><stop offset="0.61" style="stop-color:#733d6d;stop-opacity:1"/><stop offset="0.61" style="stop-color:#743d6c;stop-opacity:1"/><stop offset="0.62" style="stop-color:#763c6c;stop-opacity:1"/><stop offset="0.63" style="stop-color:#763c6b;stop-opacity:1"/><stop offset="0.63" style="stop-color:#773b6b;stop-opacity:1"/><stop offset="0.63" style="stop-color:#783b6b;stop-opacity:1"/><stop offset="0.64" style="stop-color:#793b6a;stop-opacity:1"/><stop offset="0.64" style="stop-color:#7a3a6a;stop-opacity:1"/><stop offset="0.64" style="stop-color:#7a3a6a;stop-opacity:1"/><stop offset="0.66" style="stop-color:#7d3969;stop-opacity:1"/><stop offset="0.66" style="stop-color:#7e3968;stop-opacity:1"/><stop offset="0.66" style="stop-color:#7e3968;stop-opacity:1"/><stop offset="0.67" style="stop-color:#7f3868;stop-opacity:1"/><stop offset="0.67" style="stop-color:#803867;stop-opacity:1"/><stop offset="0.68" style="stop-color:#823767;stop-opacity:1"/><stop offset="0.68" style="stop-color:#823766;stop-opacity:1"/><stop offset="0.7" style="stop-color:#863665;stop-opacity:1"/><stop offset="0.7" style="stop-color:#863564;stop-opacity:1"/><stop offset="0.71" style="stop-color:#883564;stop-opacity:1"/><stop offset="0.71" style="stop-color:#893563;stop-opacity:1"/><stop offset="0.72" style="stop-color:#8a3463;stop-opacity:1"/><stop offset="0.72" style="stop-color:#8a3463;stop-opacity:1"/><stop offset="0.73" style="stop-color:#8b3462;stop-opacity:1"/><stop offset="0.73" style="stop-color:#8c3362;stop-opacity:1"/><stop offset="0.74" style="stop-color:#8d3361;stop-opacity:1"/><stop offset="0.75" style="stop-color:#903260;stop-opacity:1"/><stop offset="0.75" style="stop-color:#913160;stop-opacity:1"/><stop offset="0.76" style="stop-color:#913160;stop-opacity:1"/><stop offset="0.76" style="stop-color:#92315f;stop-opacity:1"/><stop offset="0.77" style="stop-color:#93305f;stop-opacity:1"/><stop offset="0.78" style="stop-color:#962f5e;stop-opacity:1"/><stop offset="0.79" style="stop-color:#972f5d;stop-opacity:1"/><stop offset="0.79" style="stop-color:#982f5d;stop-opacity:1"/><stop offset="0.79" style="stop-color:#992e5d;stop-opacity:1"/><stop offset="0.8" style="stop-color:#992e5c;stop-opacity:1"/><stop offset="0.8" style="stop-color:#9b2d5c;stop-opacity:1"/><stop offset="0.81" style="stop-color:#9c2d5b;stop-opacity:1"/><stop offset="0.82" style="stop-color:#9d2c5b;stop-opacity:1"/><stop offset="0.83" style="stop-color:#a02b59;stop-opacity:1"/><stop offset="0.83" style="stop-color:#a02b59;stop-opacity:1"/><stop offset="0.84" style="stop-color:#a12b59;stop-opacity:1"/><stop offset="0.84" style="stop-color:#a22b58;stop-opacity:1"/><stop offset="0.84" style="stop-color:#a32a58;stop-opacity:1"/><stop offset="0.85" style="stop-color:#a42a57;stop-opacity:1"/><stop offset="0.86" style="stop-color:#a52957;stop-opacity:1"/><stop offset="0.86" style="stop-color:#a72956;stop-opacity:1"/><stop offset="0.88" style="stop-color:#a92855;stop-opacity:1"/><stop offset="0.89" style="stop-color:#ac2754;stop-opacity:1"/><stop offset="0.89" style="stop-color:#ac2654;stop-opacity:1"/><stop offset="0.89" style="stop-color:#ad2654;stop-opacity:1"/><stop offset="0.9" style="stop-color:#ae2653;stop-opacity:1"/><stop offset="0.91" style="stop-color:#b02553;stop-opacity:1"/><stop offset="0.91" style="stop-color:#b02552;stop-opacity:1"/><stop offset="0.91" style="stop-color:#b12552;stop-opacity:1"/><stop offset="0.92" style="stop-color:#b22452;stop-opacity:1"/><stop offset="0.92" style="stop-color:#b32451;stop-opacity:1"/><stop offset="0.93" style="stop-color:#b42451;stop-opacity:1"/><stop offset="0.93" style="stop-color:#b42351;stop-opacity:1"/><stop offset="0.93" style="stop-color:#b52350;stop-opacity:1"/><stop offset="1" style="stop-color:#b62350;stop-opacity:1"/></linearGradient></defs></svg>