<svg id="Layer_1" height="512" viewBox="0 0 64 64" width="512" xmlns="http://www.w3.org/2000/svg" data-name="Layer 1"><path d="m16 41.69a1 1 0 0 0 -1.83 0l-4.45 10.07a5.88 5.88 0 1 0 10.75 0zm2.33 14.56a3.8 3.8 0 0 1 -3.25 1.75 3.86 3.86 0 0 1 -3.53-5.43l3.54-8 3.55 8a3.86 3.86 0 0 1 -.3 3.68z"/><path d="m54.36 6.39-.36-.52a4.33 4.33 0 0 0 -6-1.1l-4.45 3.05-1.08-1.57a2 2 0 0 0 -2.83-.52l-2.93 2a2 2 0 0 0 -.52 2.83l.33.47-17.33 11.97-7.92 5.47a5.52 5.52 0 0 0 -1.41 7.71l.49.72a5.52 5.52 0 0 0 3.56 2.3 5.83 5.83 0 0 0 1 .09 5.45 5.45 0 0 0 3.14-1l15.42-10.6 9.84-6.79.33.47a2 2 0 0 0 1.67.87 2.07 2.07 0 0 0 1.16-.35l2.92-2a2 2 0 0 0 .52-2.89l-1.08-1.57 4.43-3.06a4.34 4.34 0 0 0 1.1-6zm-40.09 30.85a3.52 3.52 0 0 1 -2.27-1.47l-.49-.71a3.55 3.55 0 0 1 .91-4.94l7.91-5.46a8.09 8.09 0 0 1 11.17 1.95l-14.57 10.06a3.53 3.53 0 0 1 -2.66.57zm18.88-11.76a10 10 0 0 0 -6.41-4.09 10.46 10.46 0 0 0 -1.47-.15l12.38-8.54 4.53 6.55zm12.18-5.24s0 0 0 0l-7.48-10.84 3-2 7.44 10.83zm7.76-11a2.3 2.3 0 0 1 -1 1.49l-4.43 3.06-3-4.35 4.43-3.06a2.33 2.33 0 0 1 1.77-.38 2.26 2.26 0 0 1 1.49 1l.36.52a2.29 2.29 0 0 1 .38 1.75z"/></svg>