<?xml version="1.0" encoding="UTF-8" standalone="no"?><!DOCTYPE svg PUBLIC "-//W3C//DTD SVG 1.1//EN" "http://www.w3.org/Graphics/SVG/1.1/DTD/svg11.dtd"><svg width="100%" height="100%" viewBox="0 0 181 228" version="1.1" xmlns="http://www.w3.org/2000/svg" xmlns:xlink="http://www.w3.org/1999/xlink" xml:space="preserve" xmlns:serif="http://www.serif.com/" style="fill-rule:evenodd;clip-rule:evenodd;stroke-linejoin:round;stroke-miterlimit:2;"><g><g><g id="XMLID_1300_"><g id="XMLID_80_"><path id="XMLID_89_" d="M148.135,51.337l-8.796,-8.8l-0,-17.438c-0,-5.893 -4.794,-10.687 -10.687,-10.687l-17.419,0l-13.619,-13.626c-0.501,-0.501 -1.18,-0.783 -1.889,-0.783l-9.953,-0.003l-0,-0c-0.709,-0 -1.388,0.281 -1.889,0.782l-13.639,13.631l-17.468,-0c-5.893,-0 -10.687,4.794 -10.687,10.686l0,17.466l-8.79,8.77c-2.601,2.6 -4.034,6.057 -4.034,9.734l0,61.945c0,3.707 1.476,7.073 3.868,9.55c0.052,0.062 0.105,0.123 0.163,0.181c0.058,0.058 0.118,0.111 0.18,0.162c2.477,2.392 5.844,3.869 9.551,3.869l35.665,-0c1.475,-0 2.671,-1.197 2.671,-2.672c0,-1.475 -1.196,-2.672 -2.671,-2.672l-35.665,0c-1.348,0 -2.623,-0.32 -3.754,-0.886l31.491,-31.491l10.253,10.246c2.599,2.598 6.053,4.028 9.727,4.028l0.005,0c3.676,-0.001 7.131,-1.434 9.729,-4.034l10.21,-10.216l31.467,31.467c-1.131,0.566 -2.406,0.886 -3.754,0.886l-35.664,0c-1.476,0 -2.672,1.197 -2.672,2.672c0,1.475 1.196,2.672 2.672,2.672l35.664,-0c3.707,-0 7.075,-1.476 9.551,-3.868c0.062,-0.052 0.123,-0.105 0.181,-0.163c0.058,-0.058 0.111,-0.119 0.163,-0.181c2.391,-2.477 3.867,-5.843 3.867,-9.55l0,-61.949c0,-3.674 -1.43,-7.128 -4.028,-9.728Zm-8.796,-1.242l5.017,5.02c0.463,0.463 0.863,0.972 1.201,1.515l-6.218,6.223l-0,-12.758Zm-52.462,-44.751l7.74,0.002l9.061,9.067l-25.875,-0l9.074,-9.069Zm-49.803,49.773l5.016,-5.004l-0,12.731l-6.217,-6.213c0.338,-0.543 0.738,-1.052 1.201,-1.514Zm-1.579,71.651c-0.566,-1.131 -0.886,-2.405 -0.886,-3.754l-0,-60.092l32.376,32.356l-31.49,31.49Zm61.204,-21.25c-1.589,1.591 -3.703,2.467 -5.952,2.468l-0.002,-0c-2.248,-0 -4.361,-0.875 -5.951,-2.464l-37.361,-37.338l-0,-43.085c-0,-2.946 2.397,-5.343 5.343,-5.343l75.876,-0c2.947,-0 5.344,2.397 5.344,5.343l-0,18.203c-0.026,0.213 -0.026,0.427 -0,0.64l-0,24.257l-37.297,37.319Zm50.121,17.496c-0,1.349 -0.321,2.623 -0.887,3.754l-31.467,-31.468l32.354,-32.374l-0,60.088Z" style="fill-rule:nonzero;"/><path id="XMLID_135_" d="M90.714,131.432c-0.702,-0 -1.392,0.285 -1.889,0.782c-0.497,0.497 -0.782,1.187 -0.782,1.889c-0,0.703 0.285,1.392 0.782,1.889c0.497,0.5 1.187,0.783 1.889,0.783c0.703,-0 1.392,-0.283 1.889,-0.783c0.497,-0.497 0.783,-1.186 0.783,-1.889c-0,-0.702 -0.286,-1.392 -0.783,-1.889c-0.497,-0.496 -1.186,-0.782 -1.889,-0.782Z" style="fill-rule:nonzero;"/><path id="XMLID_136_" d="M90.714,30.96c-13.909,0 -25.225,11.316 -25.225,25.225c-0,14.1 11.471,25.571 25.57,25.571l16.239,-0c1.475,-0 2.671,-1.197 2.671,-2.672c0,-1.475 -1.196,-2.672 -2.671,-2.672l-16.239,0c-11.153,0 -20.227,-9.073 -20.227,-20.227c0,-10.962 8.919,-19.881 19.882,-19.881c10.963,-0 19.882,8.919 19.882,19.881l0,5.475c0,2.105 -1.712,3.816 -3.816,3.816c-2.104,0 -3.816,-1.711 -3.816,-3.816l-0,-6.184c-0,-7.315 -5.951,-13.265 -13.266,-13.265c-7.692,-0 -13.949,6.257 -13.949,13.949c-0,7.691 6.257,13.949 13.949,13.949l4.25,0c1.476,0 2.672,-1.196 2.672,-2.672c-0,-1.475 -1.196,-2.671 -2.672,-2.671l-4.25,-0c-4.745,-0 -8.606,-3.861 -8.606,-8.606c0,-4.745 3.861,-8.606 8.606,-8.606c4.368,-0 7.922,3.554 7.922,7.922l0,6.184c0,5.051 4.109,9.16 9.16,9.16c5.051,-0 9.16,-4.109 9.16,-9.16l-0,-5.475c-0.001,-13.909 -11.317,-25.225 -25.226,-25.225Z" style="fill-rule:nonzero;"/></g></g></g><g transform="matrix(66.6667,0,0,66.6667,181.185,227.162)"></g><text x="-1.888px" y="227.162px" style="font-family:'CrimsonText-Regular', 'Crimson Text';font-size:66.667px;fill:#010101;">E-Mail</text></g></svg>