<svg id="Capa_1" enable-background="new 0 0 511.986 511.986" height="512" viewBox="0 0 511.986 511.986" width="512" xmlns="http://www.w3.org/2000/svg"><g><path d="m416.308 160.315c-21.639 0-41.62 7.225-57.667 19.385l-26.36-26.36c12.159-16.046 19.385-36.027 19.385-57.667 0-24.513-9.261-47.828-26.077-65.649-2.843-3.012-7.589-3.15-10.603-.308-3.012 2.843-3.15 7.59-.308 10.602 14.179 15.026 21.987 34.685 21.987 55.354 0 44.483-36.19 80.673-80.673 80.673s-80.673-36.19-80.673-80.673 36.191-80.672 80.674-80.672c11.754 0 23.082 2.469 33.668 7.338 3.764 1.731 8.217.083 9.948-3.68 1.73-3.763.083-8.217-3.68-9.948-12.566-5.779-26.003-8.71-39.936-8.71-52.754 0-95.673 42.919-95.673 95.673 0 23.683 8.654 45.381 22.961 62.106l-25.496 25.496c-16.725-14.307-38.423-22.961-62.106-22.961-52.754 0-95.673 42.919-95.673 95.673s42.919 95.673 95.673 95.673c21.639 0 41.62-7.225 57.667-19.385l26.327 26.327c-6.651 8.802-11.799 18.764-15.121 29.563-15.514 50.421 12.884 104.064 63.306 119.579 9.34 2.874 18.784 4.241 28.082 4.24 40.898-.003 78.856-26.465 91.497-67.547 7.516-24.425 5.069-50.315-6.888-72.9-3.329-6.287-7.304-12.089-11.805-17.379l25.459-25.459c16.725 14.307 38.423 22.961 62.106 22.961 52.754 0 95.673-42.919 95.673-95.673s-42.92-95.672-95.674-95.672zm-401.303 95.673c0-44.483 36.19-80.673 80.673-80.673s80.673 36.19 80.673 80.673-36.19 80.673-80.673 80.673-80.673-36.189-80.673-80.673zm318.094 184.04c-13.082 42.516-58.312 66.465-100.831 53.381-42.516-13.082-66.462-58.315-53.38-100.831 6.079-19.755 19.323-36.248 37.293-46.44 3.603-2.043 4.867-6.621 2.824-10.224-2.044-3.604-6.622-4.867-10.224-2.824-7.026 3.985-13.428 8.797-19.132 14.277l-25.07-25.07c16.569-17.21 26.774-40.589 26.774-66.309 0-23.683-8.654-45.381-22.961-62.106l25.496-25.496c16.725 14.307 38.423 22.961 62.106 22.961 25.72 0 49.099-10.205 66.309-26.774l25.106 25.107c-16.569 17.21-26.774 40.589-26.774 66.309 0 23.683 8.654 45.381 22.961 62.106l-25.444 25.444c-9.812-8.385-21.315-14.767-34.022-18.677-13.318-4.098-27.021-5.248-40.732-3.419-4.105.547-6.99 4.32-6.442 8.426.547 4.105 4.316 6.988 8.426 6.442 11.55-1.541 23.103-.568 34.337 2.888 20.596 6.337 37.491 20.315 47.573 39.359s12.144 40.875 5.807 61.47zm83.209-103.366c-44.483 0-80.673-36.19-80.673-80.673s36.19-80.673 80.673-80.673 80.673 36.19 80.673 80.673-36.189 80.673-80.673 80.673z"/><path d="m233.266 83.021c1.868 3.698 6.378 5.181 10.075 3.315 3.698-1.867 5.182-6.377 3.315-10.075-3.722-7.372-12.643-12.136-22.727-12.136-10.083 0-19.004 4.763-22.727 12.135-1.867 3.697-.383 8.208 3.314 10.075 1.084.547 2.238.807 3.375.807 2.74 0 5.381-1.508 6.701-4.121.954-1.889 4.55-3.896 9.337-3.896s8.384 2.008 9.337 3.896z"/><path d="m265.33 76.262c-1.867 3.698-.382 8.208 3.315 10.075 3.698 1.867 8.208.383 10.075-3.315.953-1.889 4.549-3.896 9.336-3.896s8.383 2.007 9.337 3.896c1.319 2.614 3.96 4.121 6.701 4.121 1.137 0 2.291-.259 3.375-.807 3.698-1.867 5.182-6.378 3.314-10.075-3.722-7.372-12.643-12.135-22.727-12.135s-19.005 4.764-22.726 12.136z"/><path d="m255.993 143.252c17.176 0 32.303-6.9 38.54-17.578 2.089-3.577.882-8.17-2.694-10.259-3.577-2.088-8.169-.883-10.259 2.694-2.853 4.885-12.077 10.143-25.586 10.143s-22.734-5.258-25.586-10.143c-2.089-3.577-6.683-4.782-10.259-2.694-3.577 2.089-4.783 6.682-2.694 10.259 6.234 10.678 21.362 17.578 38.538 17.578z"/><path d="m307.468 393.577c-3.697-1.866-8.208-.383-10.075 3.314-.954 1.889-4.55 3.896-9.337 3.896s-8.383-2.007-9.336-3.896c-1.867-3.698-6.377-5.18-10.075-3.315-3.698 1.867-5.182 6.377-3.315 10.075 3.722 7.372 12.643 12.136 22.727 12.136 10.083 0 19.004-4.763 22.727-12.135 1.866-3.697.382-8.208-3.316-10.075z"/><path d="m246.657 403.652c1.867-3.698.382-8.208-3.315-10.075-3.697-1.866-8.208-.382-10.075 3.315-.953 1.889-4.549 3.896-9.336 3.896s-8.383-2.007-9.337-3.896c-1.866-3.698-6.377-5.181-10.075-3.314s-5.182 6.378-3.314 10.075c3.722 7.372 12.643 12.135 22.727 12.135 10.082 0 19.003-4.764 22.725-12.136z"/><path d="m255.993 435.021c-17.176 0-32.303 6.9-38.54 17.578-2.089 3.577-.882 8.17 2.694 10.259 3.577 2.088 8.169.883 10.259-2.694 2.853-4.885 12.077-10.143 25.586-10.143s22.734 5.258 25.586 10.143c1.395 2.388 3.905 3.719 6.483 3.719 1.285 0 2.586-.33 3.775-1.024 3.577-2.089 4.783-6.682 2.694-10.259-6.234-10.679-21.362-17.579-38.537-17.579z"/><path d="m95.678 274.707c-17.176 0-32.304 6.9-38.54 17.579-2.089 3.577-.882 8.169 2.695 10.258 3.575 2.088 8.169.884 10.258-2.695 2.853-4.885 12.076-10.142 25.586-10.142s22.734 5.258 25.586 10.143c1.395 2.388 3.905 3.719 6.483 3.719 1.285 0 2.586-.331 3.775-1.025 3.577-2.089 4.783-6.682 2.694-10.259-6.234-10.679-21.361-17.578-38.537-17.578z"/><path d="m71.625 247.458c2.751 0 5.4-1.52 6.714-4.147 1.853-3.705.351-8.21-3.354-10.062l-16.031-8.016c-3.703-1.852-8.209-.35-10.062 3.354-1.853 3.705-.351 8.21 3.354 10.062l16.031 8.016c1.077.538 2.221.793 3.348.793z"/><path d="m132.403 225.233-16.031 8.016c-3.705 1.852-5.207 6.357-3.354 10.062 1.314 2.628 3.962 4.147 6.714 4.147 1.127 0 2.271-.255 3.348-.793l16.031-8.016c3.705-1.852 5.207-6.357 3.354-10.062-1.852-3.705-6.357-5.208-10.062-3.354z"/><path d="m440.355 280.551h-48.095c-4.142 0-7.5 3.358-7.5 7.5s3.358 7.5 7.5 7.5h48.095c4.142 0 7.5-3.358 7.5-7.5s-3.357-7.5-7.5-7.5z"/><path d="m391.745 247.973v-8.016c0-4.142-3.358-7.5-7.5-7.5s-7.5 3.358-7.5 7.5v8.016c0 4.142 3.358 7.5 7.5 7.5s7.5-3.358 7.5-7.5z"/><path d="m448.371 232.457c-4.142 0-7.5 3.358-7.5 7.5v8.016c0 4.142 3.358 7.5 7.5 7.5s7.5-3.358 7.5-7.5v-8.016c0-4.143-3.358-7.5-7.5-7.5z"/></g></svg>