<svg id="Capa_1" enable-background="new 0 0 512.005 512.005" height="512" viewBox="0 0 512.005 512.005" width="512" xmlns="http://www.w3.org/2000/svg"><g><g><path d="m280.215 246.371 9.476 4.245c1.327.595 2.716.876 4.082.876 3.821 0 7.469-2.202 9.132-5.915 2.258-5.04.002-10.956-5.038-13.214l-9.476-4.245c-5.041-2.262-10.956-.002-13.214 5.038-2.258 5.041-.002 10.957 5.038 13.215z"/><path d="m218.232 251.492c1.366 0 2.755-.282 4.082-.876l9.476-4.245c5.04-2.258 7.296-8.174 5.038-13.214-2.258-5.041-8.175-7.297-13.214-5.038l-9.476 4.245c-5.04 2.258-7.296 8.174-5.038 13.214 1.663 3.712 5.311 5.914 9.132 5.914z"/><path d="m487.207 387.402c-2.747-4.792-8.859-6.446-13.649-3.7-4.791 2.747-6.447 8.858-3.7 13.649l16.266 28.366c6.234 10.872 7.582 23.438 3.796 35.385s-12.126 21.443-23.484 26.739c-11.355 5.297-23.994 5.582-35.578.802-11.586-4.779-20.346-13.889-24.667-25.653l-65.566-178.506 50.901-23.736 33.562 58.528c2.747 4.791 8.858 6.45 13.649 3.7 4.791-2.747 6.447-8.858 3.7-13.649l-38.134-66.5c-2.088-3.642-6.147-5.498-10.114-4.92l3.347-38.256c1.549-17.711-4.916-34.932-17.736-47.247l-6.146-5.904c-12.321-54.621-61.331-93.963-117.652-93.963-56.24 0-105.335 39.373-117.653 93.963l-6.145 5.903c-12.82 12.315-19.285 29.536-17.736 47.248l3.347 38.256c-3.965-.577-8.025 1.279-10.114 4.92l-99.169 172.942c-8.921 15.556-10.93 34.282-5.513 51.376 5.418 17.094 17.846 31.245 34.098 38.823 8.575 3.999 17.865 6.005 27.165 6.005h.022l-.022.025h383.441l-.015-.025h.015c9.299 0 18.591-2.007 27.165-6.005 16.252-7.578 28.68-21.729 34.098-38.823 5.417-17.095 3.408-35.82-5.513-51.376zm-86.019 104.596h-290.371c5.993-6.301 10.721-13.807 13.771-22.111l30.078-81.889 29.205-4.558c3.377-.527 6.609-1.416 9.666-2.617 16.839 15.818 39.199 24.762 62.465 24.762s45.625-8.944 62.465-24.762c3.056 1.202 6.289 2.091 9.666 2.617l29.205 4.558 30.078 81.889c3.051 8.304 7.779 15.81 13.772 22.111zm-211.503-261.728-1.831-20.925 11.884-31.561c.936-2.486 1.558-5.062 1.892-7.667 7.823-4.979 16.217-8.838 25.065-11.498 27.059 22.931 59.517 37.637 94.481 42.824l2.975 7.902-1.831 20.925c-1.14 13.032.381 26.213 4.398 38.631l-2.876 1.341c-4.709 2.196-6.952 7.633-5.16 12.511l5.569 15.163c-15.623 22.32-40.822 35.525-68.248 35.525-27.433 0-52.626-13.203-68.248-35.524l5.57-15.163c1.792-4.877-.451-10.315-5.16-12.511l-2.876-1.341c4.015-12.419 5.536-25.6 4.396-38.632zm120.433 107.938c8.156-5.017 15.624-11.187 22.177-18.388l17.155 46.705-18.234-2.845c-3.568-.557-6.837-1.852-9.695-3.691-.014-.009-.028-.018-.042-.026-6.889-4.456-11.361-13.036-11.361-21.755zm-89.041 9.212c11.015 3.933 22.792 6.021 34.925 6.021 12.132 0 23.91-2.088 34.925-6.022 1.521 8.213 5.263 15.652 10.634 21.65-12.715 10.582-28.833 16.517-45.559 16.517s-32.844-5.935-45.56-16.517c5.372-5.998 9.113-13.437 10.635-21.649zm-19.191-9.21c0 12.348-8.899 23.565-21.099 25.469l-18.234 2.846 17.155-46.705c6.554 7.202 14.022 13.373 22.178 18.39zm175.727-140.302-4.312 49.271-28.29 13.192c-2.648-9.176-3.603-18.818-2.768-28.358l2.029-23.191c.131-1.492-.075-2.994-.604-4.396l-12.684-33.687c-1.367-3.632-1.181-7.716.511-11.208 2.007-4.141 5.756-6.981 10.286-7.792.857-.153 1.714-.229 2.562-.229 3.63 0 7.098 1.385 9.788 3.97l11.812 11.347c8.436 8.101 12.688 19.43 11.67 31.081zm-121.611-125.371c40.063 0 75.68 23.862 91.678 59.133-3.09-.296-6.251-.185-9.422.383-10.904 1.952-19.929 8.789-24.76 18.758-4.072 8.403-4.521 18.234-1.23 26.976l.695 1.845c-28.592-6.211-54.973-19.697-77.054-39.512-2.463-2.21-5.862-3.06-9.072-2.267-10.223 2.52-19.985 6.331-29.159 11.366-4.993-9.101-13.618-15.32-23.931-17.167-3.17-.567-6.332-.678-9.422-.382 16.01-35.256 51.674-59.133 91.677-59.133zm-109.942 94.29 11.812-11.347c3.318-3.188 7.82-4.55 12.35-3.741 4.53.811 8.279 3.651 10.286 7.792 1.691 3.491 1.878 7.576.512 11.206l-12.685 33.688c-.528 1.402-.734 2.904-.604 4.396l2.029 23.191c.835 9.54-.119 19.182-2.768 28.358l-28.29-13.192-4.312-49.271c-1.016-11.65 3.235-22.979 11.67-31.08zm-100.49 321.015c-11.358-5.296-19.698-14.792-23.484-26.739s-2.438-24.513 3.796-35.385l94.599-164.969 50.901 23.736-65.566 178.506c-4.321 11.764-13.081 20.874-24.667 25.653-11.585 4.78-24.221 4.495-35.579-.802z"/><path d="m233.005 294.307c3.906 3.905 10.238 3.905 14.143 0 2.364-2.364 5.507-3.666 8.85-3.666 3.344 0 6.486 1.302 8.851 3.666 1.953 1.953 4.512 2.929 7.071 2.929s5.118-.977 7.071-2.929c3.905-3.905 3.905-10.237 0-14.142-6.142-6.142-14.307-9.524-22.993-9.524s-16.851 3.382-22.992 9.524c-3.906 3.905-3.906 10.236-.001 14.142z"/><path d="m447.381 138.308 16.194 9.35-36.294 20.665c-4.799 2.732-6.475 8.838-3.742 13.638 1.844 3.238 5.223 5.054 8.699 5.054 1.678 0 3.378-.423 4.939-1.312l51.45-29.294c3.113-1.773 5.041-5.077 5.052-8.66s-1.896-6.898-5-8.69l-14.827-8.561 32.449-15.457c4.986-2.375 7.104-8.342 4.729-13.329-2.375-4.986-8.344-7.101-13.328-4.728l-49.621 23.635c-3.354 1.597-5.546 4.922-5.692 8.633s1.776 7.199 4.992 9.056z"/><path d="m387.667 109.699c1.84 1.463 4.036 2.174 6.218 2.174 2.943 0 5.859-1.293 7.833-3.776l36.853-46.337c2.23-2.805 2.79-6.588 1.467-9.918s-4.328-5.697-7.875-6.205l-16.948-2.428 24.367-26.422c3.744-4.06 3.487-10.386-.572-14.13-4.061-3.744-10.386-3.488-14.131.572l-37.261 40.404c-2.518 2.73-3.314 6.631-2.07 10.131 1.245 3.5 4.327 6.021 8.004 6.547l18.511 2.651-25.996 32.687c-3.44 4.322-2.722 10.612 1.6 14.05z"/><path d="m5.703 115.041 32.449 15.457-14.827 8.561c-3.104 1.792-5.011 5.107-5 8.69s1.938 6.887 5.052 8.66l51.45 29.294c1.562.89 3.262 1.312 4.939 1.312 3.477 0 6.855-1.816 8.699-5.054 2.732-4.799 1.057-10.905-3.742-13.638l-36.294-20.665 16.194-9.35c3.217-1.857 5.139-5.344 4.992-9.056-.146-3.711-2.339-7.036-5.692-8.633l-49.621-23.635c-4.985-2.375-10.953-.258-13.328 4.728s-.258 10.954 4.729 13.329z"/><path d="m96.791 43.209-16.948 2.428c-3.547.508-6.552 2.875-7.875 6.205s-.764 7.114 1.467 9.918l36.853 46.337c1.974 2.482 4.89 3.776 7.833 3.776 2.181 0 4.378-.71 6.218-2.174 4.322-3.438 5.04-9.729 1.602-14.051l-25.998-32.687 18.511-2.651c3.677-.527 6.759-3.048 8.004-6.547 1.244-3.5.447-7.4-2.07-10.131l-37.262-40.404c-3.743-4.059-10.07-4.318-14.131-.572-4.06 3.744-4.316 10.07-.572 14.13z"/><circle cx="456.252" cy="353.274" r="10"/></g></g></svg>