<?xml version="1.0" encoding="UTF-8" standalone="no"?><!DOCTYPE svg PUBLIC "-//W3C//DTD SVG 1.1//EN" "http://www.w3.org/Graphics/SVG/1.1/DTD/svg11.dtd"><svg width="100%" height="100%" viewBox="0 0 1063 416" version="1.1" xmlns="http://www.w3.org/2000/svg" xmlns:xlink="http://www.w3.org/1999/xlink" xml:space="preserve" xmlns:serif="http://www.serif.com/" style="fill-rule:evenodd;clip-rule:evenodd;stroke-linejoin:round;stroke-miterlimit:2;"><g><g><g><g><path d="M-0,398.611l-0,9.375l150.608,0l-0,-9.375l-31.511,0l0,-232.292l31.511,0l-0,-9.288l-31.511,0l0,-37.413c0,-7.747 -0.412,-15.213 -1.215,-22.396c-0.76,-7.226 -1.541,-13.975 -2.344,-20.225c-0.759,-5.426 -1.541,-10.461 -2.344,-15.105c-0.759,-4.687 -1.128,-9.158 -1.128,-13.454c-0,-10.873 2.908,-17.969 8.767,-21.268c5.838,-3.342 11.676,-5.035 17.535,-5.035c3.06,0 6.727,0.413 11.024,1.216c4.276,0.759 6.424,2.126 6.424,4.08c-0,1.562 -0.781,2.56 -2.344,2.951c-10.894,2.734 -16.319,10.308 -16.319,22.743c-0,7.01 2.712,12.934 8.159,17.795c5.426,4.861 12.066,7.292 19.879,7.292c9.31,-0 16.406,-2.995 21.267,-9.028c4.861,-6.076 7.292,-13.368 7.292,-21.875c-0,-8.963 -4.666,-17.144 -13.976,-24.566c-9.331,-7.4 -22.179,-11.111 -38.541,-11.111c-20.204,-0 -37.327,3.516 -51.389,10.503c-14.019,7.01 -25.304,16.276 -33.854,27.778c-8.507,11.459 -14.736,24.696 -18.664,39.67c-3.884,14.996 -5.816,30.469 -5.816,46.441l0,21.007l-31.51,0l-0,9.288l31.51,0l0,232.292l-31.51,0Z" style="fill:#010101;fill-rule:nonzero;"/></g></g></g><g><g><g><path d="M470.453,263.802c-1.562,-10.46 -4.774,-22.135 -9.635,-34.983c-4.861,-12.847 -12.283,-24.913 -22.223,-36.197c-9.895,-11.285 -23.046,-20.79 -39.409,-28.56c-16.32,-7.812 -36.958,-11.718 -61.893,-11.718c-22.178,-0 -41.536,3.797 -58.073,11.371c-16.493,7.596 -30.295,17.513 -41.406,29.775c-11.111,12.283 -19.401,26.28 -24.826,42.013c-5.447,15.756 -8.16,31.815 -8.16,48.178c0,16.319 2.713,32.378 8.16,48.177c5.425,15.755 13.715,29.752 24.826,42.014c11.111,12.217 24.913,22.135 41.406,29.774c16.537,7.574 35.895,11.371 58.073,11.371c15.56,0 29.861,-2.061 42.882,-6.163c13.065,-4.101 24.762,-9.657 35.07,-16.667c10.286,-6.987 19.032,-15.06 26.215,-24.218c7.227,-9.137 12.782,-18.75 16.667,-28.82c1.215,-2.712 1.823,-5.251 1.823,-7.639c-0,-3.862 -1.389,-5.816 -4.167,-5.816c-2.322,0 -4.058,0.782 -5.208,2.344c-1.172,1.563 -2.735,4.08 -4.688,7.552c-4.297,8.572 -9.635,16.841 -16.059,24.827c-6.424,7.986 -14.128,15.104 -23.09,21.354c-8.919,6.206 -19.141,11.154 -30.643,14.844c-11.458,3.711 -24.392,5.555 -38.802,5.555c-5.794,0 -11.024,-0.781 -15.711,-2.344c-4.688,-1.562 -8.681,-4.47 -11.98,-8.767c-3.298,-4.275 -5.859,-10.2 -7.639,-17.795c-1.736,-7.574 -2.604,-17.209 -2.604,-28.906l0,-80.556l171.094,0Zm-171.094,-54.253c0,-31.12 12.457,-46.702 37.413,-46.702c24.132,0 36.198,15.582 36.198,46.702l0,43.142l-73.611,-0l0,-43.142Z" style="fill:#010101;fill-rule:nonzero;"/></g></g></g><g><g><g><path d="M750.578,263.802c-1.562,-10.46 -4.774,-22.135 -9.635,-34.983c-4.861,-12.847 -12.283,-24.913 -22.222,-36.197c-9.896,-11.285 -23.047,-20.79 -39.41,-28.56c-16.32,-7.812 -36.958,-11.718 -61.893,-11.718c-22.178,-0 -41.536,3.797 -58.072,11.371c-16.494,7.596 -30.296,17.513 -41.407,29.775c-11.111,12.283 -19.401,26.28 -24.826,42.013c-5.447,15.756 -8.16,31.815 -8.16,48.178c0,16.319 2.713,32.378 8.16,48.177c5.425,15.755 13.715,29.752 24.826,42.014c11.111,12.217 24.913,22.135 41.407,29.774c16.536,7.574 35.894,11.371 58.072,11.371c15.56,0 29.862,-2.061 42.882,-6.163c13.065,-4.101 24.762,-9.657 35.07,-16.667c10.286,-6.987 19.032,-15.06 26.215,-24.218c7.227,-9.137 12.782,-18.75 16.667,-28.82c1.215,-2.712 1.823,-5.251 1.823,-7.639c-0,-3.862 -1.389,-5.816 -4.167,-5.816c-2.322,0 -4.058,0.782 -5.208,2.344c-1.172,1.563 -2.735,4.08 -4.688,7.552c-4.297,8.572 -9.635,16.841 -16.059,24.827c-6.423,7.986 -14.127,15.104 -23.09,21.354c-8.919,6.206 -19.141,11.154 -30.642,14.844c-11.459,3.711 -24.393,5.555 -38.803,5.555c-5.794,0 -11.024,-0.781 -15.711,-2.344c-4.688,-1.562 -8.681,-4.47 -11.98,-8.767c-3.298,-4.275 -5.859,-10.2 -7.638,-17.795c-1.737,-7.574 -2.605,-17.209 -2.605,-28.906l0,-80.556l171.094,0Zm-171.094,-54.253c0,-31.12 12.457,-46.702 37.414,-46.702c24.132,0 36.198,15.582 36.198,46.702l-0,43.142l-73.612,-0l0,-43.142Z" style="fill:#010101;fill-rule:nonzero;"/></g></g></g><g><g><g><path d="M891.728,398.611l-0,-398.611l-119.011,22.135l0,9.375l31.511,-5.816l-0,372.917l-31.511,0l0,9.375l150.521,0l0,-9.375l-31.51,0Z" style="fill:#010101;fill-rule:nonzero;"/></g></g></g><g><g><g><path d="M1062.15,368.316c-0,-12.847 -4.579,-23.828 -13.716,-32.986c-9.158,-9.136 -20.139,-13.715 -32.986,-13.715c-12.847,-0 -23.85,4.579 -32.986,13.715c-9.158,9.158 -13.715,20.139 -13.715,32.986c-0,12.847 4.557,23.85 13.715,32.986c9.136,9.136 20.139,13.715 32.986,13.715c12.847,0 23.828,-4.579 32.986,-13.715c9.137,-9.136 13.716,-20.139 13.716,-32.986Z" style="fill:#010101;fill-rule:nonzero;"/></g></g></g></g></svg>