<?xml version="1.0" encoding="UTF-8" standalone="no"?><!DOCTYPE svg PUBLIC "-//W3C//DTD SVG 1.1//EN" "http://www.w3.org/Graphics/SVG/1.1/DTD/svg11.dtd"><svg width="100%" height="100%" viewBox="0 0 381 149" version="1.1" xmlns="http://www.w3.org/2000/svg" xmlns:xlink="http://www.w3.org/1999/xlink" xml:space="preserve" xmlns:serif="http://www.serif.com/" style="fill-rule:evenodd;clip-rule:evenodd;stroke-linejoin:round;stroke-miterlimit:2;"><g id="logo-group" serif:id="logo group"><g><g><g><path d="M0,142.657l0,3.355l53.9,-0l0,-3.355l-11.277,-0l0,-83.134l11.277,0l0,-3.324l-11.277,-0l0,-13.39c0,-2.772 -0.148,-5.444 -0.435,-8.015c-0.272,-2.586 -0.551,-5.001 -0.839,-7.238c-0.272,-1.942 -0.551,-3.744 -0.839,-5.406c-0.271,-1.677 -0.403,-3.277 -0.403,-4.815c-0,-3.891 1.04,-6.431 3.137,-7.611c2.09,-1.196 4.179,-1.802 6.276,-1.802c1.095,-0 2.407,0.147 3.945,0.435c1.53,0.272 2.299,0.761 2.299,1.46c0,0.559 -0.28,0.916 -0.839,1.056c-3.899,0.979 -5.84,3.689 -5.84,8.14c-0,2.508 0.971,4.628 2.92,6.368c1.942,1.74 4.318,2.61 7.114,2.61c3.332,-0 5.872,-1.072 7.611,-3.231c1.74,-2.175 2.61,-4.784 2.61,-7.829c0,-3.207 -1.67,-6.135 -5.002,-8.792c-3.339,-2.648 -7.937,-3.976 -13.793,-3.976c-7.231,-0 -13.359,1.258 -18.391,3.759c-5.018,2.509 -9.056,5.825 -12.116,9.941c-3.045,4.101 -5.274,8.839 -6.679,14.197c-1.391,5.367 -2.082,10.905 -2.082,16.621l0,7.518l-11.277,-0l0,3.324l11.277,0l0,83.134l-11.277,-0Z" style="fill:#fff;fill-rule:nonzero;"/></g></g></g><g><g><g><path d="M168.368,94.411c-0.559,-3.744 -1.709,-7.922 -3.449,-12.52c-1.739,-4.598 -4.396,-8.916 -7.953,-12.955c-3.541,-4.038 -8.248,-7.44 -14.104,-10.221c-5.84,-2.796 -13.226,-4.194 -22.15,-4.194c-7.938,0 -14.865,1.36 -20.783,4.07c-5.903,2.718 -10.843,6.268 -14.819,10.656c-3.977,4.396 -6.943,9.405 -8.885,15.036c-1.949,5.639 -2.92,11.386 -2.92,17.242c-0,5.84 0.971,11.588 2.92,17.242c1.942,5.638 4.908,10.648 8.885,15.036c3.976,4.372 8.916,7.922 14.819,10.655c5.918,2.711 12.845,4.07 20.783,4.07c5.569,0 10.687,-0.738 15.347,-2.206c4.675,-1.467 8.861,-3.456 12.551,-5.964c3.681,-2.501 6.811,-5.39 9.382,-8.668c2.586,-3.27 4.574,-6.71 5.964,-10.314c0.435,-0.971 0.653,-1.879 0.653,-2.734c-0,-1.382 -0.497,-2.081 -1.492,-2.081c-0.831,-0 -1.452,0.279 -1.863,0.839c-0.42,0.559 -0.979,1.46 -1.678,2.702c-1.538,3.068 -3.448,6.027 -5.747,8.885c-2.299,2.859 -5.056,5.406 -8.264,7.643c-3.192,2.221 -6.85,3.992 -10.966,5.312c-4.101,1.328 -8.73,1.988 -13.887,1.988c-2.074,0 -3.945,-0.279 -5.623,-0.838c-1.678,-0.56 -3.107,-1.6 -4.287,-3.138c-1.181,-1.53 -2.097,-3.65 -2.734,-6.369c-0.621,-2.71 -0.932,-6.159 -0.932,-10.345l-0,-28.829l61.232,-0Zm-61.232,-19.417c-0,-11.137 4.458,-16.714 13.39,-16.714c8.636,0 12.954,5.577 12.954,16.714l0,15.44l-26.344,0l-0,-15.44Z" style="fill:#fff;fill-rule:nonzero;"/></g></g></g><g><g><g><path d="M268.62,94.411c-0.559,-3.744 -1.709,-7.922 -3.448,-12.52c-1.74,-4.598 -4.396,-8.916 -7.953,-12.955c-3.542,-4.038 -8.248,-7.44 -14.104,-10.221c-5.841,-2.796 -13.227,-4.194 -22.151,-4.194c-7.937,0 -14.865,1.36 -20.783,4.07c-5.903,2.718 -10.842,6.268 -14.819,10.656c-3.976,4.396 -6.943,9.405 -8.885,15.036c-1.949,5.639 -2.92,11.386 -2.92,17.242c0,5.84 0.971,11.588 2.92,17.242c1.942,5.638 4.909,10.648 8.885,15.036c3.977,4.372 8.916,7.922 14.819,10.655c5.918,2.711 12.846,4.07 20.783,4.07c5.569,0 10.687,-0.738 15.347,-2.206c4.676,-1.467 8.862,-3.456 12.551,-5.964c3.681,-2.501 6.811,-5.39 9.382,-8.668c2.586,-3.27 4.574,-6.71 5.965,-10.314c0.435,-0.971 0.652,-1.879 0.652,-2.734c0,-1.382 -0.497,-2.081 -1.491,-2.081c-0.831,-0 -1.453,0.279 -1.864,0.839c-0.42,0.559 -0.979,1.46 -1.678,2.702c-1.538,3.068 -3.448,6.027 -5.747,8.885c-2.299,2.859 -5.056,5.406 -8.264,7.643c-3.192,2.221 -6.85,3.992 -10.966,5.312c-4.101,1.328 -8.73,1.988 -13.887,1.988c-2.073,0 -3.945,-0.279 -5.623,-0.838c-1.677,-0.56 -3.106,-1.6 -4.287,-3.138c-1.18,-1.53 -2.097,-3.65 -2.734,-6.369c-0.621,-2.71 -0.932,-6.159 -0.932,-10.345l0,-28.829l61.232,-0Zm-61.232,-19.417c0,-11.137 4.458,-16.714 13.39,-16.714c8.636,0 12.955,5.577 12.955,16.714l-0,15.44l-26.345,0l0,-15.44Z" style="fill:#fff;fill-rule:nonzero;"/></g></g></g><g><g><g><path d="M319.135,142.657l0,-142.657l-42.592,7.922l0,3.355l11.277,-2.081l0,133.461l-11.277,-0l0,3.355l53.869,-0l0,-3.355l-11.277,-0Z" style="fill:#fff;fill-rule:nonzero;"/></g></g></g><g><g><g><path d="M380.126,131.814c-0,-4.597 -1.639,-8.527 -4.909,-11.805c-3.277,-3.269 -7.207,-4.908 -11.805,-4.908c-4.598,-0 -8.535,1.639 -11.805,4.908c-3.278,3.278 -4.909,7.208 -4.909,11.805c0,4.598 1.631,8.536 4.909,11.806c3.27,3.269 7.207,4.908 11.805,4.908c4.598,0 8.528,-1.639 11.805,-4.908c3.27,-3.27 4.909,-7.208 4.909,-11.806Z" style="fill:#fff;fill-rule:nonzero;"/></g></g></g></g></svg>