<?xml version="1.0" encoding="UTF-8" standalone="no"?><!DOCTYPE svg PUBLIC "-//W3C//DTD SVG 1.1//EN" "http://www.w3.org/Graphics/SVG/1.1/DTD/svg11.dtd"><svg width="100%" height="100%" viewBox="0 0 241 228" version="1.1" xmlns="http://www.w3.org/2000/svg" xmlns:xlink="http://www.w3.org/1999/xlink" xml:space="preserve" xmlns:serif="http://www.serif.com/" style="fill-rule:evenodd;clip-rule:evenodd;stroke-linejoin:round;stroke-miterlimit:2;"><g><g><path d="M158.562,0l-76.953,0c-8.991,0.004 -16.279,7.292 -16.282,16.283l-0,7.034l-0.034,6.513l-0,90.663c0.004,8.991 7.292,16.279 16.283,16.283l76.952,-0c8.992,-0.004 16.281,-7.292 16.283,-16.283l0,-104.21c0.013,-8.985 -7.264,-16.277 -16.249,-16.283Zm9.77,120.493c-0.017,5.389 -4.381,9.754 -9.77,9.77l-76.953,-0c-5.388,-0.016 -9.754,-4.381 -9.769,-9.77l-0,-104.21c0.015,-5.389 4.381,-9.755 9.769,-9.77l76.953,0c5.389,0.015 9.753,4.381 9.77,9.77l-0,104.21Z" style="fill-rule:nonzero;"/><path d="M120.069,67.443c8.723,0 15.795,-7.07 15.795,-15.794c-0,-8.723 -7.072,-15.794 -15.795,-15.794c-8.723,-0 -15.794,7.071 -15.794,15.794c0.008,8.72 7.074,15.786 15.794,15.794Zm0,-25.108c5.125,0 9.282,4.157 9.282,9.282c-0,5.125 -4.157,9.281 -9.282,9.281c-5.126,-0 -9.281,-4.156 -9.281,-9.281c0.009,-5.121 4.158,-9.272 9.281,-9.282Z" style="fill-rule:nonzero;"/><path d="M120.069,72.687c-13.547,-0 -24.164,10.974 -24.164,25.01c0.005,1.796 1.46,3.251 3.256,3.257l41.816,-0c1.796,-0.006 3.251,-1.461 3.256,-3.257c0,-14.036 -10.617,-25.01 -24.164,-25.01Zm-17.391,21.753c1.402,-8.89 8.403,-15.24 17.391,-15.24c8.987,-0 16.023,6.35 17.39,15.24l-34.781,0Z" style="fill-rule:nonzero;"/></g><g transform="matrix(1,0,0,0.998575,0,-59.1583)"><g transform="matrix(66.6667,0,0,66.6667,240.69,286.664)"></g><text x="-2.604px" y="286.664px" style="font-family:'CrimsonText-Regular', 'Crimson Text';font-size:66.667px;fill:#010101;">F<tspan x="30.664px " y="286.664px ">o</tspan>rm<tspan x="138.411px " y="286.664px ">u</tspan>lar</text></g></g></svg>