<?xml version="1.0" encoding="UTF-8" standalone="no"?><!DOCTYPE svg PUBLIC "-//W3C//DTD SVG 1.1//EN" "http://www.w3.org/Graphics/SVG/1.1/DTD/svg11.dtd"><svg width="100%" height="100%" viewBox="0 0 2134 1843" version="1.1" xmlns="http://www.w3.org/2000/svg" xmlns:xlink="http://www.w3.org/1999/xlink" xml:space="preserve" xmlns:serif="http://www.serif.com/" style="fill-rule:evenodd;clip-rule:evenodd;stroke-linejoin:round;stroke-miterlimit:2;"><g><g><g><path d="M1365.06,0c-130.936,0 -232.753,47.785 -298.396,91.403c-159.009,-112.328 -426.112,-135.917 -596.411,21.596c-12.998,11.352 -14.328,31.098 -2.971,44.097c11.361,12.999 31.106,14.328 44.105,2.967c155.104,-143.155 395.484,-111.19 532.159,-8.731c13.824,9.752 32.403,9.756 46.239,0c614.248,-393.113 1168.62,625.408 30.869,1189.83c-33.103,17.678 -74.936,17.67 -108.081,-0.055c-648.788,-345.89 -761.112,-757.253 -588.275,-1076.74c8.952,-14.77 4.234,-33.987 -10.536,-42.93c-14.77,-8.944 -33.986,-4.218 -42.926,10.548c-189.377,348.049 -75.795,797.261 612.714,1164.49c50.828,27.206 115.341,27.214 166.131,0.054c604.041,-315.229 694.231,-676.369 694.231,-863.588c0,-298.842 -210.336,-532.934 -478.852,-532.934Z" style="fill:#fff;fill-rule:nonzero;"/><path d="M633.898,669.234c-10.289,-10.952 -26.413,-14.199 -40.129,-8.081c-13.728,6.122 -22.096,20.3 -20.825,35.287c4.417,51.94 29.044,227.227 160.647,302.102c68.243,38.829 142.459,49.723 204.289,49.723c60.671,-0 109.373,-10.49 128.794,-15.383c83.472,22.876 235.188,25.514 333.083,-34.34c131.603,-74.875 156.229,-250.162 160.647,-302.106c1.271,-14.983 -7.097,-29.161 -20.825,-35.279c-13.716,-6.118 -29.844,-2.867 -40.138,8.085c-20.717,22.064 -75.349,77.45 -154.433,137.355c91.336,-151.737 69.207,-358.343 65.143,-377.456c-4.672,-33.544 -50.523,-41.463 -66.193,-11.481c-14.82,27.96 -69.09,129.715 -145.143,265.227c-15.966,28.439 -31.207,56.162 -45.527,82.605c38.367,-195.912 21.105,-412 -59.016,-508.412c-13.278,-17.537 -41.918,-17.533 -55.196,0.004c-80.237,96.204 -97.283,313.817 -59.012,508.408c-14.32,-26.439 -29.561,-54.161 -45.527,-82.601c-76.057,-135.508 -130.323,-237.267 -145.139,-265.219c-7.18,-13.557 -22.15,-20.908 -37.27,-18.283c-15.108,2.617 -26.731,14.578 -28.927,29.752c-4.097,18.884 -26.164,225.903 65.143,377.46c-79.092,-59.909 -133.729,-115.295 -154.446,-137.367Zm850.152,102.68c-37.937,159.543 -155.67,219.914 -309.395,213.117c53.724,-27.215 122.981,-66.131 189.357,-114.65c48.265,-35.278 88.865,-69.865 120.038,-98.467Zm-230.736,-58.433c39.879,-71.048 73.807,-132.887 99.25,-179.772c-1.85,66.46 -14.011,156.801 -58.158,235.451c-44.585,79.433 -107.915,131.082 -157.938,162.197c28.485,-55.487 69.548,-133.604 116.846,-217.876Zm-186.648,-382.819c73.878,132.403 38.354,396.476 -0.009,546.846c-38.391,-150.678 -73.87,-414.201 0.009,-546.846Zm-285.899,203.047c54.299,100.334 168.003,300.848 216.092,397.648c-50.031,-31.12 -113.353,-82.764 -157.934,-162.193c-44.146,-78.659 -56.307,-168.995 -58.158,-235.455Zm178.18,451.459c-154.341,6.576 -271.333,-53.34 -309.662,-213.254c74.633,72.883 220.58,171.708 309.662,213.254Z" style="fill:#fff;fill-rule:nonzero;"/><path d="M2102.3,1629.51l-201.702,-0c-41.387,1.433 -41.354,61.092 0,62.513l201.702,-0c41.388,-1.434 41.359,-61.092 -0,-62.513Z" style="fill:#fff;fill-rule:nonzero;"/><path d="M1747.08,1629.51l-335.984,-0l-77.616,-84.827c-6.014,-6.576 -14.466,-10.285 -23.464,-10.156c-8.91,0.117 -17.349,4.03 -23.192,10.76l-187.544,215.93l-203.952,-269.349c-5.634,-7.439 -14.295,-11.974 -23.617,-12.361c-9.286,-0.367 -18.329,3.405 -24.564,10.348l-125.089,139.338l-691.031,-0c-41.387,1.433 -41.354,61.092 0,62.513l704.976,0c8.872,0 17.328,-3.771 23.259,-10.377l109.098,-121.522l204.339,269.862c5.689,7.51 14.457,12.057 23.872,12.369c9.377,0.325 18.479,-3.63 24.647,-10.744l189.811,-218.546l63.239,69.119c5.918,6.472 14.286,10.156 23.059,10.156l349.749,-0c41.392,-1.434 41.359,-61.092 0.004,-62.513Z" style="fill:#fff;fill-rule:nonzero;"/></g></g></g></svg>