<?xml version="1.0" encoding="UTF-8" standalone="no"?><!DOCTYPE svg PUBLIC "-//W3C//DTD SVG 1.1//EN" "http://www.w3.org/Graphics/SVG/1.1/DTD/svg11.dtd"><svg width="100%" height="100%" viewBox="0 0 108 92" version="1.1" xmlns="http://www.w3.org/2000/svg" xmlns:xlink="http://www.w3.org/1999/xlink" xml:space="preserve" xmlns:serif="http://www.serif.com/" style="fill-rule:evenodd;clip-rule:evenodd;stroke-linejoin:round;stroke-miterlimit:2;"><g id="heart"><g><g><path d="M75.485,-0c-8.169,-0 -15.807,3.077 -21.734,8.709c-5.927,-5.632 -13.565,-8.709 -21.733,-8.709c-17.655,-0 -32.018,14.708 -32.018,32.786c0,10.482 8.933,23.543 26.55,38.822c12.881,11.171 25.942,19.532 26.073,19.615c0.344,0.219 0.736,0.329 1.128,0.329c0.393,-0 0.785,-0.11 1.129,-0.329c0.131,-0.083 13.192,-8.444 26.073,-19.615c17.617,-15.279 26.55,-28.341 26.55,-38.822c-0,-18.078 -14.363,-32.786 -32.018,-32.786Zm2.753,68.404c-10.475,9.088 -21.077,16.287 -24.487,18.54c-3.404,-2.249 -13.979,-9.428 -24.45,-18.509c-16.422,-14.242 -25.102,-26.569 -25.102,-35.649c0,-15.763 12.48,-28.587 27.819,-28.587c7.711,0 14.881,3.17 20.19,8.924c0.398,0.431 0.957,0.676 1.543,0.676c0.587,-0 1.146,-0.245 1.544,-0.676c5.309,-5.754 12.479,-8.923 20.19,-8.923c15.339,-0.001 27.818,12.823 27.818,28.586c0,9.073 -8.667,21.389 -25.065,35.618Z" style="fill:#b62350;fill-rule:nonzero;"/></g></g><g><g><g><path d="M72.938,11.616l-0.079,0.014c-1.142,0.202 -1.903,1.292 -1.7,2.434c0.181,1.018 1.066,1.733 2.065,1.733c0.122,-0 0.245,-0.011 0.369,-0.033l0.042,-0.007c1.143,-0.193 1.914,-1.276 1.722,-2.419c-0.193,-1.144 -1.277,-1.914 -2.419,-1.722Z" style="fill:#b62350;fill-rule:nonzero;"/><path d="M92.187,19.61c-2.578,-3.541 -6.24,-6.179 -10.311,-7.427c-1.109,-0.34 -2.283,0.283 -2.623,1.392c-0.34,1.108 0.284,2.283 1.392,2.623c6.711,2.057 11.397,8.625 11.397,15.97c0,1.16 0.94,2.1 2.1,2.1c1.159,-0 2.099,-0.94 2.099,-2.1c0,-4.572 -1.402,-8.914 -4.054,-12.558Z" style="fill:#b62350;fill-rule:nonzero;"/></g></g></g></g></svg>