<?xml version="1.0" encoding="UTF-8" standalone="no"?><!DOCTYPE svg PUBLIC "-//W3C//DTD SVG 1.1//EN" "http://www.w3.org/Graphics/SVG/1.1/DTD/svg11.dtd"><svg width="100%" height="100%" viewBox="0 0 194 228" version="1.1" xmlns="http://www.w3.org/2000/svg" xmlns:xlink="http://www.w3.org/1999/xlink" xml:space="preserve" xmlns:serif="http://www.serif.com/" style="fill-rule:evenodd;clip-rule:evenodd;stroke-linejoin:round;stroke-miterlimit:2;"><g><g><g><path d="M124.411,82.728c-1.66,-1.637 -4.547,-1.637 -6.184,0l-9.208,9.214c-3.058,3.086 -8.117,3.109 -11.197,-0l-24.566,-24.572c-3.092,-3.086 -3.092,-8.116 0,-11.202l9.208,-9.214c1.694,-1.705 1.694,-4.467 -0,-6.173l-27.862,-27.862c-1.66,-1.637 -4.547,-1.637 -6.184,0l-6.139,6.145c-18.461,18.466 -18.461,48.511 0,66.984l36.854,36.854c8.947,8.946 20.848,13.874 33.501,13.874c12.652,-0 24.542,-4.928 33.5,-13.874l6.139,-6.145c1.705,-1.705 1.694,-4.467 -0,-6.172l-27.862,-27.857Zm15.551,34.001c-14.642,14.602 -40.094,14.579 -54.645,-0l-36.854,-36.854c-15.062,-15.068 -15.062,-39.577 0,-54.639l3.047,-3.058l21.689,21.69l-6.127,6.127c-6.491,6.491 -6.491,17.057 0,23.548l24.566,24.571c6.502,6.503 17.062,6.48 23.565,0l6.116,-6.127l21.689,21.684l-3.046,3.058Z" style="fill-rule:nonzero;"/><path d="M102.619,-0c-2.41,-0 -4.365,1.955 -4.365,4.365c-0,2.41 1.955,4.365 4.365,4.365c29.681,0 53.837,24.151 53.837,53.838c0,2.41 1.955,4.365 4.365,4.365c2.41,-0 4.365,-1.955 4.365,-4.365c0,-34.501 -28.066,-62.568 -62.567,-62.568Z" style="fill-rule:nonzero;"/><path d="M133.175,62.568c0,2.41 1.955,4.365 4.365,4.365c2.41,-0 4.365,-1.955 4.365,-4.365c0,-21.661 -17.619,-39.287 -39.286,-39.287c-2.41,-0 -4.365,1.955 -4.365,4.365c-0,2.41 1.955,4.365 4.365,4.365c16.847,0 30.556,13.71 30.556,30.557Z" style="fill-rule:nonzero;"/></g></g><g transform="matrix(66.6667,0,0,66.6667,195.247,227.162)"></g><text x="-2.474px" y="227.162px" style="font-family:'CrimsonText-Regular', 'Crimson Text';font-size:66.667px;fill:#010101;">Hotline</text></g></svg>