<?xml version="1.0" encoding="UTF-8" standalone="no"?><!DOCTYPE svg PUBLIC "-//W3C//DTD SVG 1.1//EN" "http://www.w3.org/Graphics/SVG/1.1/DTD/svg11.dtd"><svg width="100%" height="100%" viewBox="0 0 133 10" version="1.1" xmlns="http://www.w3.org/2000/svg" xmlns:xlink="http://www.w3.org/1999/xlink" xml:space="preserve" xmlns:serif="http://www.serif.com/" style="fill-rule:evenodd;clip-rule:evenodd;stroke-linejoin:round;stroke-miterlimit:2;"><g id="amex"><g><g><g id="WW-American-Express-alt2"><g><path id="path-1" d="M98.534,1.369l-0,6.853c-0,0.688 -0.558,1.246 -1.246,1.246l-11.525,-0c-0.687,-0 -1.246,-0.558 -1.246,-1.246l0,-6.853c0,-0.687 0.559,-1.246 1.246,-1.246l11.525,0c0.688,0 1.246,0.559 1.246,1.246Z" style="fill:#006fcf;"/><g id="Logo"><path id="Shape" d="M95.532,4.476l0.804,0l0,-1.867l-0.875,0l0,0.26l-0.165,-0.26l-0.756,0l-0,0.331l-0.142,-0.331l-1.395,0c-0.047,0 -0.095,0.024 -0.142,0.024c-0.047,-0 -0.071,0.023 -0.118,0.047c-0.047,0.024 -0.071,0.024 -0.118,0.047l-0,-0.118l-3.995,0l-0.118,0.307l-0.119,-0.307l-0.945,0l-0,0.331l-0.142,-0.331l-0.756,0l-0.331,0.804l-0,1.063l0.543,0l0.095,-0.26l0.189,0l0.095,0.26l4.16,0l0,-0.236l0.166,0.236l1.158,0l-0,-0.141c0.023,0.023 0.071,0.023 0.094,0.047c0.024,0.024 0.071,0.024 0.095,0.047c0.047,0.024 0.094,0.024 0.142,0.024l0.851,-0l0.094,-0.26l0.189,-0l0.095,0.26l1.158,-0l0,-0.237l0.189,0.26Zm1.3,2.364l0,-1.749l-6.5,0l-0.166,0.236l-0.165,-0.236l-1.891,0l-0,1.868l1.891,-0l0.165,-0.237l0.166,0.237l1.182,-0l-0,-0.402l-0.047,-0c0.165,-0 0.307,-0.024 0.425,-0.071l0,0.496l0.851,0l-0,-0.236l0.165,0.236l3.523,0c0.141,-0.047 0.283,-0.071 0.401,-0.142Z" style="fill:#fff;fill-rule:nonzero;"/><path id="Shape1" serif:id="Shape" d="M96.431,6.391l-0.639,0l0,0.26l0.615,0c0.26,0 0.425,-0.165 0.425,-0.402c0,-0.236 -0.141,-0.354 -0.378,-0.354l-0.283,-0c-0.071,-0 -0.119,-0.047 -0.119,-0.118c0,-0.071 0.048,-0.119 0.119,-0.119l0.543,0l0.118,-0.26l-0.638,0c-0.26,0 -0.425,0.166 -0.425,0.379c-0,0.236 0.142,0.354 0.378,0.354l0.284,0c0.071,0 0.118,0.047 0.118,0.118c0.023,0.095 -0.024,0.142 -0.118,0.142Zm-1.159,0l-0.638,0l0,0.26l0.615,0c0.26,0 0.425,-0.165 0.425,-0.402c0,-0.236 -0.142,-0.354 -0.378,-0.354l-0.284,-0c-0.071,-0 -0.118,-0.047 -0.118,-0.118c0,-0.071 0.047,-0.119 0.118,-0.119l0.544,0l0.118,-0.26l-0.638,0c-0.26,0 -0.426,0.166 -0.426,0.379c0,0.236 0.142,0.354 0.379,0.354l0.283,0c0.071,0 0.119,0.047 0.119,0.118c0.023,0.095 -0.048,0.142 -0.119,0.142Zm-0.827,-0.756l-0,-0.26l-0.993,-0l0,1.253l0.993,-0l-0,-0.26l-0.709,-0l-0,-0.26l0.685,-0l0,-0.26l-0.685,-0l-0,-0.237l0.709,0l-0,0.024Zm-1.607,-0c0.118,-0 0.165,0.071 0.165,0.142c0,0.071 -0.047,0.141 -0.165,0.141l-0.355,0l-0,-0.307l0.355,0.024Zm-0.355,0.543l0.142,0l0.378,0.45l0.355,-0l-0.426,-0.473c0.213,-0.047 0.331,-0.189 0.331,-0.378c0,-0.237 -0.165,-0.402 -0.425,-0.402l-0.662,-0l-0,1.253l0.283,-0l0.024,-0.45Zm-0.756,-0.378c-0,0.095 -0.048,0.166 -0.166,0.166l-0.378,-0l-0,-0.331l0.354,-0c0.119,-0 0.19,0.071 0.19,0.165Zm-0.828,-0.425l0,1.253l0.284,-0l-0,-0.426l0.378,0c0.26,0 0.449,-0.165 0.449,-0.425c0,-0.237 -0.165,-0.426 -0.425,-0.426l-0.686,0.024Zm-0.425,1.253l0.354,-0l-0.496,-0.639l0.496,-0.614l-0.354,-0l-0.308,0.402l-0.307,-0.402l-0.355,-0l0.497,0.614l-0.497,0.615l0.355,-0l0.307,-0.402l0.308,0.426Zm-1.064,-0.993l-0,-0.26l-0.993,-0l0,1.253l0.993,-0l-0,-0.26l-0.709,-0l-0,-0.26l0.685,-0l0,-0.26l-0.685,-0l-0,-0.237l0.709,0l-0,0.024Zm5.744,-2.222l0.497,0.756l0.354,0l0,-1.253l-0.284,0l0,0.828l-0.07,-0.119l-0.45,-0.709l-0.378,0l0,1.253l0.284,0l-0,-0.851l0.047,0.095Zm-1.229,-0.024l0.094,-0.26l0.095,0.26l0.118,0.284l-0.425,-0l0.118,-0.284Zm0.496,0.78l0.308,0l-0.544,-1.253l-0.378,0l-0.544,1.253l0.307,0l0.119,-0.26l0.614,0l0.118,0.26Zm-1.323,0l0.118,-0.26l-0.071,0c-0.213,0 -0.331,-0.142 -0.331,-0.354l-0,-0.024c-0,-0.213 0.118,-0.355 0.331,-0.355l0.307,0l0,-0.26l-0.331,0c-0.378,0 -0.591,0.26 -0.591,0.615l0,0.024c0,0.378 0.213,0.614 0.568,0.614Zm-1.064,0l0.284,0l-0,-1.229l-0.284,-0l-0,1.229Zm-0.615,-0.993c0.118,0 0.166,0.071 0.166,0.142c-0,0.071 -0.048,0.142 -0.166,0.142l-0.354,0l-0,-0.307l0.354,0.023Zm-0.354,0.544l0.141,0l0.379,0.449l0.354,0l-0.425,-0.473c0.213,-0.047 0.331,-0.189 0.331,-0.378c-0,-0.236 -0.166,-0.402 -0.426,-0.402l-0.662,0l0,1.253l0.284,0l0.024,-0.449Zm-0.52,-0.544l-0,-0.26l-0.993,0l-0,1.253l0.993,0l-0,-0.26l-0.71,0l0,-0.26l0.686,0l-0,-0.26l-0.686,0l0,-0.236l0.71,-0l-0,0.023Zm-2.152,0.993l0.261,0l0.354,-1.016l0,1.016l0.284,0l-0,-1.253l-0.473,0l-0.284,0.851l-0.283,-0.851l-0.473,0l-0,1.253l0.284,0l-0,-1.016l0.33,1.016Zm-1.536,-0.78l0.095,-0.26l0.094,0.26l0.118,0.284l-0.425,-0l0.118,-0.284Zm0.496,0.78l0.308,0l-0.544,-1.253l-0.355,0l-0.543,1.253l0.307,0l0.118,-0.26l0.615,0l0.094,0.26Z" style="fill:#006fcf;fill-rule:nonzero;"/></g></g></g></g></g></g><g id="klarna"><g id="EU-Klarna-alt"><g><path id="path-11" serif:id="path-1" d="M14.016,0.913l0,7.765c0,0.436 -0.353,0.79 -0.789,0.79l-12.437,-0c-0.436,-0 -0.79,-0.354 -0.79,-0.79l-0,-7.765c-0,-0.436 0.354,-0.79 0.79,-0.79l12.437,0c0.436,0 0.789,0.354 0.789,0.79Z" style="fill:#ffb3c7;"/><g id="Logo1" serif:id="Logo"><path id="Shape2" serif:id="Shape" d="M11.12,4.421c-0.362,-0.247 -0.852,-0.186 -1.143,0.144c-0.29,0.329 -0.29,0.823 0,1.152c0.291,0.329 0.781,0.39 1.143,0.143l0,0.106l0.494,-0l0,-1.65l-0.494,-0l0,0.105Zm-0.449,1.144c-0.232,-0.012 -0.411,-0.208 -0.402,-0.439c0.008,-0.232 0.2,-0.414 0.432,-0.41c0.232,0.004 0.418,0.193 0.418,0.425c-0.007,0.24 -0.207,0.43 -0.448,0.424Z" style="fill-rule:nonzero;"/><rect id="Rectangle" x="3.828" y="3.58" width="0.517" height="2.385"/><path id="Path" d="M8.882,4.271c-0.197,-0.011 -0.387,0.075 -0.509,0.231l0,-0.186l-0.492,-0l0,1.65l0.498,-0l0,-0.867c-0.008,-0.101 0.029,-0.2 0.1,-0.272c0.071,-0.072 0.17,-0.109 0.271,-0.102c0.217,-0 0.342,0.129 0.342,0.37l-0,0.871l0.493,-0l0,-1.05c0,-0.384 -0.305,-0.645 -0.703,-0.645Z" style="fill-rule:nonzero;"/><path id="Shape3" serif:id="Shape" d="M5.908,4.421c-0.362,-0.247 -0.852,-0.186 -1.143,0.144c-0.29,0.329 -0.29,0.823 0,1.152c0.291,0.329 0.781,0.39 1.143,0.143l0,0.106l0.494,-0l0,-1.65l-0.494,-0l0,0.105Zm-0.449,1.144c-0.232,-0.012 -0.411,-0.208 -0.402,-0.439c0.008,-0.232 0.2,-0.414 0.432,-0.41c0.232,0.004 0.418,0.193 0.418,0.425c-0.007,0.24 -0.207,0.43 -0.448,0.424l-0,0Z" style="fill-rule:nonzero;"/><path id="Path1" serif:id="Path" d="M7.167,4.531l-0,-0.215l-0.506,-0l-0,1.65l0.507,-0l-0,-0.771c-0,-0.26 0.281,-0.399 0.477,-0.399c0.002,-0 0.004,-0 0.006,-0l-0,-0.48c-0.186,-0.005 -0.364,0.074 -0.484,0.215Z" style="fill-rule:nonzero;"/><path id="Path2" serif:id="Path" d="M12.139,5.38c-0.171,0 -0.31,0.139 -0.31,0.311c-0,0.171 0.139,0.31 0.31,0.31c0.171,-0 0.31,-0.139 0.31,-0.31c-0,-0.083 -0.033,-0.162 -0.091,-0.22c-0.058,-0.058 -0.137,-0.091 -0.219,-0.091Z" style="fill-rule:nonzero;"/><path id="Path3" serif:id="Path" d="M3.472,3.58l-0.536,-0c0.002,0.436 -0.204,0.846 -0.554,1.106l-0.212,0.159l0.822,1.121l0.677,0l-0.757,-1.032c0.36,-0.358 0.562,-0.846 0.56,-1.354Z" style="fill-rule:nonzero;"/><rect id="Rectangle1" serif:id="Rectangle" x="1.568" y="3.58" width="0.537" height="2.387"/></g></g></g></g><g id="sofort"><path id="b" d="M81.63,1.369l0,6.853c0,0.688 -0.558,1.246 -1.246,1.246l-11.524,-0c-0.688,-0 -1.246,-0.558 -1.246,-1.246l-0,-6.853c-0,-0.687 0.558,-1.246 1.246,-1.246l11.524,0c0.688,0 1.246,0.559 1.246,1.246Z" style="fill:#ffb3c7;"/><g><path d="M74.065,5.827c0.105,0.097 0.108,0.256 0.005,0.356l-0.021,0.02c-0.104,0.099 -0.274,0.101 -0.381,0.005l-0.601,-0.555c-0.165,-0.155 -0.188,-0.346 -0.083,-0.446l0.021,-0.021c0.087,-0.083 0.228,-0.092 0.326,-0.02c0.031,0.023 0.071,0.028 0.107,0.015c0.036,-0.014 0.061,-0.044 0.067,-0.079c0.006,-0.036 -0.01,-0.072 -0.04,-0.094c-0.186,-0.136 -0.451,-0.12 -0.616,0.038l-0.021,0.021c-0.195,0.187 -0.155,0.501 0.087,0.728l0.602,0.557c0.193,0.174 0.5,0.17 0.687,-0.009l0.022,-0.021c0.184,-0.179 0.18,-0.464 -0.01,-0.638c-0.042,-0.039 -0.111,-0.039 -0.153,0.001c-0.041,0.039 -0.041,0.103 0.002,0.142Z" style="fill:#fff;fill-rule:nonzero;"/><path d="M73.22,5.829c0.059,-0 0.107,0.045 0.107,0.101c-0,0.348 0.15,0.68 0.415,0.922c0.265,0.242 0.623,0.372 0.992,0.36c0.059,0 0.107,0.045 0.107,0.101c0,0.056 -0.048,0.101 -0.107,0.101c-0.426,0.012 -0.839,-0.139 -1.144,-0.419c-0.306,-0.279 -0.478,-0.664 -0.478,-1.065c0,-0.056 0.048,-0.101 0.108,-0.101Zm2.861,-3.637c0.255,0.072 0.41,0.316 0.354,0.562l-0.483,2.271c-0.012,0.054 -0.069,0.09 -0.127,0.079c-0.058,-0.011 -0.096,-0.064 -0.084,-0.119l0.484,-2.272c0.032,-0.141 -0.055,-0.283 -0.201,-0.326c-0.17,-0.04 -0.342,0.057 -0.386,0.216l-0.536,1.73c-0.016,0.054 -0.076,0.084 -0.133,0.069c-0.018,-0.005 -0.034,-0.014 -0.047,-0.027c-0.014,-0.013 -0.024,-0.03 -0.028,-0.048l-0.426,-1.714c-0.016,-0.073 -0.062,-0.138 -0.128,-0.179c-0.066,-0.041 -0.147,-0.056 -0.225,-0.04c-0.156,0.054 -0.243,0.211 -0.201,0.362l0.003,0.012l0.242,1.873l0.26,0.365c0.033,0.046 0.021,0.107 -0.026,0.139l-0.003,0.002c-0.049,0.031 -0.116,0.018 -0.149,-0.028l-0.262,-0.368c-0.01,-0.008 -0.017,-0.019 -0.022,-0.03l-0.109,-0.153c-0.139,-0.19 -0.273,-0.255 -0.431,-0.169l-0.023,0.015c-0.124,0.079 -0.141,0.272 -0.012,0.455l0.47,0.659c0.083,0.116 0.251,0.146 0.374,0.068l0.023,-0.015c0.051,-0.033 0.089,-0.082 0.106,-0.139c0.015,-0.054 0.075,-0.085 0.132,-0.07c0.057,0.015 0.091,0.07 0.075,0.124c-0.031,0.103 -0.099,0.193 -0.193,0.253l-0.023,0.015c-0.222,0.14 -0.522,0.086 -0.672,-0.122l-0.471,-0.66c-0.189,-0.269 -0.161,-0.587 0.07,-0.736l0.03,-0.019c0.228,-0.124 0.427,-0.076 0.596,0.082l-0.195,-1.51c-0.069,-0.261 0.093,-0.527 0.366,-0.603c0.134,-0.027 0.273,-0.002 0.387,0.068c0.114,0.07 0.194,0.181 0.221,0.306l0.332,1.338l0.421,-1.359c0.076,-0.267 0.366,-0.426 0.65,-0.357l-0,0Z" style="fill:#fff;fill-rule:nonzero;"/><path d="M75.063,5.784c-0.223,0.117 -0.362,0.337 -0.379,0.671c-0.003,0.055 0.043,0.103 0.102,0.105c0.059,0.003 0.11,-0.04 0.112,-0.096c0.016,-0.302 0.141,-0.465 0.343,-0.536c0.106,-0.035 0.218,-0.048 0.329,-0.035c0.014,0.001 0.023,0.002 0.027,0.003c0.058,0.011 0.114,-0.024 0.126,-0.079c0.012,-0.054 -0.025,-0.107 -0.083,-0.119l-0.825,-0.173c-0.387,-0.099 -0.445,-0.233 -0.373,-0.457c0.022,-0.087 0.096,-0.153 0.19,-0.168c0.066,-0.012 0.135,-0.013 0.201,-0.001c0.02,0.004 0.033,0.007 0.04,0.008l1.252,0.275c0.008,0.002 0.017,0.004 0.024,0.007c0.024,0.011 0.046,0.026 0.064,0.045c0.084,0.084 0.13,0.243 0.107,0.504c-0.082,0.916 -0.536,1.484 -1.612,1.475c-0.039,0 -0.074,0.019 -0.094,0.05c-0.019,0.031 -0.019,0.07 -0.001,0.101c0.019,0.031 0.054,0.051 0.093,0.051c1.209,0.01 1.737,-0.651 1.827,-1.66c0.029,-0.314 -0.034,-0.529 -0.164,-0.659c-0.053,-0.058 -0.125,-0.097 -0.204,-0.112l-1.238,-0.272c-0.019,-0.005 -0.038,-0.008 -0.057,-0.011c-0.094,-0.017 -0.191,-0.016 -0.285,0.002c-0.169,0.031 -0.305,0.15 -0.349,0.307c-0.103,0.323 0.007,0.577 0.527,0.711l0.3,0.063Z" style="fill:#fff;fill-rule:nonzero;"/></g></g><g id="apple-pay" serif:id="apple pay"><g><g id="WW-Apple-Pay"><g><path id="path-2" d="M115.437,1.369l0,6.853c0,0.688 -0.558,1.246 -1.246,1.246l-11.524,-0c-0.688,-0 -1.246,-0.558 -1.246,-1.246l-0,-6.853c-0,-0.687 0.558,-1.246 1.246,-1.246l11.524,0c0.688,0 1.246,0.559 1.246,1.246Z" style="fill:none;stroke:#010101;stroke-width:0.19px;"/><g id="Logo2" serif:id="Logo"><path id="XMLID_34_" d="M105.145,3.172c-0.125,0.148 -0.325,0.264 -0.524,0.248c-0.025,-0.2 0.072,-0.412 0.187,-0.543c0.125,-0.152 0.343,-0.261 0.52,-0.269c0.021,0.208 -0.06,0.412 -0.183,0.564m0.181,0.287c-0.289,-0.016 -0.537,0.165 -0.674,0.165c-0.14,-0 -0.35,-0.156 -0.579,-0.152c-0.298,0.004 -0.574,0.173 -0.726,0.441c-0.312,0.537 -0.081,1.332 0.22,1.769c0.148,0.217 0.325,0.454 0.558,0.446c0.221,-0.009 0.308,-0.144 0.575,-0.144c0.268,0 0.345,0.144 0.578,0.14c0.242,-0.005 0.394,-0.217 0.541,-0.433c0.169,-0.246 0.238,-0.485 0.242,-0.498c-0.004,-0.004 -0.466,-0.181 -0.471,-0.714c-0.004,-0.445 0.365,-0.657 0.381,-0.67c-0.208,-0.308 -0.532,-0.341 -0.645,-0.35m1.672,-0.603l-0,3.245l0.503,-0l0,-1.11l0.697,0c0.637,0 1.085,-0.437 1.085,-1.07c-0,-0.632 -0.439,-1.065 -1.068,-1.065l-1.217,-0Zm0.503,0.424l0.581,0c0.437,0 0.687,0.233 0.687,0.644c-0,0.41 -0.25,0.645 -0.689,0.645l-0.579,-0l0,-1.289Zm2.702,2.846c0.316,-0 0.61,-0.161 0.743,-0.415l0.01,0l0,0.39l0.467,-0l-0,-1.616c-0,-0.468 -0.375,-0.77 -0.952,-0.77c-0.535,0 -0.93,0.306 -0.945,0.727l0.454,-0c0.038,-0.2 0.223,-0.331 0.477,-0.331c0.308,-0 0.481,0.143 0.481,0.408l-0,0.179l-0.629,0.037c-0.585,0.036 -0.901,0.275 -0.901,0.691c-0,0.421 0.327,0.7 0.795,0.7Zm0.135,-0.385c-0.268,-0 -0.439,-0.129 -0.439,-0.327c0,-0.204 0.164,-0.323 0.479,-0.342l0.56,-0.035l-0,0.183c-0,0.304 -0.258,0.521 -0.6,0.521Zm1.707,1.242c0.491,0 0.722,-0.187 0.924,-0.755l0.885,-2.481l-0.512,-0l-0.594,1.917l-0.01,-0l-0.593,-1.917l-0.527,-0l0.854,2.362l-0.046,0.144c-0.077,0.243 -0.202,0.337 -0.425,0.337c-0.039,-0 -0.116,-0.004 -0.148,-0.009l0,0.39c0.03,0.008 0.154,0.012 0.192,0.012Z" style="fill-rule:nonzero;"/></g></g></g></g></g><g id="google"><g id="WW-Google-Pay"><g><path id="path-21" serif:id="path-2" d="M132.341,1.369l-0,6.853c-0,0.688 -0.558,1.246 -1.246,1.246l-11.525,-0c-0.687,-0 -1.246,-0.558 -1.246,-1.246l0,-6.853c0,-0.687 0.559,-1.246 1.246,-1.246l11.525,0c0.688,0 1.246,0.559 1.246,1.246Z" style="fill:none;stroke:#f7f7f7;stroke-width:0.25px;"/><g id="Logo3" serif:id="Logo"><path id="Shape4" serif:id="Shape" d="M125.205,4.741l-0,1.279l-0.413,0l-0,-3.164l1.073,0c0.261,0 0.509,0.097 0.701,0.276c0.193,0.165 0.289,0.412 0.289,0.674c0,0.261 -0.096,0.495 -0.289,0.674c-0.192,0.178 -0.426,0.275 -0.701,0.275l-0.66,-0.014Zm-0,-1.499l-0,1.1l0.687,0c0.152,0 0.303,-0.055 0.399,-0.165c0.22,-0.206 0.22,-0.55 0.014,-0.757l-0.014,-0.013c-0.11,-0.11 -0.247,-0.179 -0.399,-0.165l-0.687,-0Z" style="fill:#5f6368;fill-rule:nonzero;"/><path id="Shape5" serif:id="Shape" d="M127.804,3.792c0.303,-0 0.537,0.082 0.716,0.247c0.179,0.165 0.261,0.386 0.261,0.661l0,1.32l-0.385,0l-0,-0.302l-0.014,-0c-0.165,0.247 -0.399,0.371 -0.674,0.371c-0.234,0 -0.44,-0.069 -0.605,-0.206c-0.151,-0.138 -0.248,-0.33 -0.248,-0.537c0,-0.22 0.083,-0.399 0.248,-0.536c0.165,-0.138 0.399,-0.193 0.674,-0.193c0.247,0 0.44,0.041 0.591,0.138l0,-0.097c0,-0.137 -0.055,-0.275 -0.165,-0.357c-0.11,-0.097 -0.247,-0.152 -0.399,-0.152c-0.233,0 -0.412,0.097 -0.536,0.289l-0.358,-0.22c0.22,-0.289 0.509,-0.426 0.894,-0.426Zm-0.522,1.568c-0,0.11 0.055,0.206 0.137,0.261c0.097,0.069 0.207,0.11 0.317,0.11c0.165,0 0.33,-0.068 0.454,-0.192c0.137,-0.124 0.206,-0.275 0.206,-0.44c-0.124,-0.097 -0.303,-0.152 -0.537,-0.152c-0.165,0 -0.302,0.042 -0.412,0.124c-0.11,0.069 -0.165,0.165 -0.165,0.289Z" style="fill:#5f6368;fill-rule:nonzero;"/><path id="Path4" serif:id="Path" d="M131.01,3.861l-1.362,3.122l-0.413,0l0.509,-1.087l-0.894,-2.022l0.44,0l0.647,1.555l0.013,-0l0.633,-1.555l0.427,0l-0,-0.013Z" style="fill:#5f6368;fill-rule:nonzero;"/><path id="Path5" serif:id="Path" d="M123.568,4.466c-0,-0.124 -0.014,-0.248 -0.028,-0.372l-1.719,0l-0,0.702l0.976,-0c-0.041,0.22 -0.165,0.426 -0.357,0.55l-0,0.454l0.591,0c0.344,-0.316 0.537,-0.784 0.537,-1.334Z" style="fill:#4285f4;fill-rule:nonzero;"/><path id="Path6" serif:id="Path" d="M121.821,6.24c0.495,0 0.907,-0.165 1.21,-0.44l-0.591,-0.454c-0.166,0.11 -0.372,0.179 -0.619,0.179c-0.468,0 -0.881,-0.316 -1.018,-0.757l-0.606,0l0,0.468c0.317,0.619 0.936,1.004 1.624,1.004Z" style="fill:#34a853;fill-rule:nonzero;"/><path id="Path7" serif:id="Path" d="M120.803,4.768c-0.083,-0.22 -0.083,-0.467 -0,-0.701l-0,-0.468l-0.606,0c-0.261,0.509 -0.261,1.114 0,1.637l0.606,-0.468Z" style="fill:#fbbc04;fill-rule:nonzero;"/><path id="Path8" serif:id="Path" d="M121.821,3.324c0.261,0 0.509,0.096 0.701,0.275l0.523,-0.523c-0.33,-0.302 -0.771,-0.481 -1.211,-0.467c-0.687,-0 -1.32,0.385 -1.623,1.004l0.605,0.468c0.124,-0.441 0.537,-0.757 1.005,-0.757Z" style="fill:#ea4335;fill-rule:nonzero;"/></g></g></g></g><g><g id="WW-PayPal"><g><path id="path-22" serif:id="path-2" d="M30.92,1.369l-0,6.853c-0,0.688 -0.558,1.246 -1.246,1.246l-11.525,-0c-0.687,-0 -1.246,-0.558 -1.246,-1.246l0,-6.853c0,-0.687 0.559,-1.246 1.246,-1.246l11.525,0c0.688,0 1.246,0.559 1.246,1.246Z" style="fill:none;stroke:#f7f7f7;stroke-width:0.21px;"/><g id="Logo4" serif:id="Logo"><path id="Path9" serif:id="Path" d="M23.379,2.987c-0.085,0 -0.158,0.062 -0.172,0.147l-0.285,1.808c0.014,-0.084 0.086,-0.147 0.172,-0.147l0.835,0c0.841,0 1.555,-0.613 1.685,-1.444c0.01,-0.062 0.015,-0.125 0.016,-0.188c-0.213,-0.112 -0.464,-0.176 -0.739,-0.176l-1.512,0Z" style="fill:#001c64;fill-rule:nonzero;"/><path id="Path10" serif:id="Path" d="M25.63,3.163c-0.001,0.063 -0.006,0.126 -0.016,0.188c-0.13,0.831 -0.844,1.445 -1.685,1.445l-0.835,-0c-0.086,-0 -0.158,0.062 -0.172,0.146l-0.262,1.662l-0.164,1.042c-0.007,0.041 0.005,0.083 0.032,0.114c0.027,0.031 0.066,0.049 0.107,0.049l0.907,0c0.086,0 0.158,-0.062 0.172,-0.146l0.238,-1.515c0.014,-0.085 0.087,-0.147 0.172,-0.147l0.534,0c0.841,0 1.554,-0.613 1.685,-1.445c0.092,-0.589 -0.205,-1.126 -0.713,-1.393l0,0Z" style="fill:#0070e0;fill-rule:nonzero;"/><path id="Path11" serif:id="Path" d="M22.349,1.782c-0.086,-0 -0.159,0.062 -0.172,0.146l-0.711,4.513c-0.014,0.085 0.052,0.163 0.139,0.163l1.055,-0l0.262,-1.662l0.285,-1.808c0.014,-0.084 0.087,-0.147 0.172,-0.147l1.512,0c0.275,0 0.526,0.064 0.739,0.176c0.015,-0.756 -0.609,-1.381 -1.468,-1.381l-1.813,-0Z" style="fill:#003087;fill-rule:nonzero;"/></g></g></g></g><g><path id="path-23" serif:id="path-2" d="M64.727,1.369l-0,6.853c-0,0.688 -0.558,1.246 -1.246,1.246l-11.525,-0c-0.687,-0 -1.246,-0.558 -1.246,-1.246l0,-6.853c0,-0.687 0.559,-1.246 1.246,-1.246l11.525,0c0.688,0 1.246,0.559 1.246,1.246Z" style="fill:none;stroke:#f7f7f7;stroke-width:0.25px;"/><g id="Logo5" serif:id="Logo"><g id="Group"><rect id="rect19" x="56.418" y="2.466" width="2.594" height="4.66" style="fill:#ff5a00;"/><path id="XMLID_330_" d="M56.591,4.796c-0,-0.947 0.445,-1.787 1.128,-2.33c-0.503,-0.395 -1.137,-0.634 -1.829,-0.634c-1.638,-0 -2.963,1.325 -2.963,2.964c-0,1.638 1.325,2.963 2.963,2.963c0.692,0 1.326,-0.238 1.829,-0.634c-0.684,-0.535 -1.128,-1.383 -1.128,-2.329Z" style="fill:#eb001b;fill-rule:nonzero;"/><path id="path22" d="M62.511,4.796c-0,1.638 -1.326,2.963 -2.964,2.963c-0.692,0 -1.326,-0.238 -1.828,-0.634c0.691,-0.543 1.128,-1.383 1.128,-2.329c-0,-0.947 -0.445,-1.787 -1.128,-2.33c0.501,-0.395 1.135,-0.634 1.827,-0.634c1.639,-0 2.965,1.334 2.965,2.964Z" style="fill:#f79e1b;fill-rule:nonzero;"/></g></g></g><g><path id="path-24" serif:id="path-2" d="M47.823,1.506l0,6.579c0,0.763 -0.619,1.383 -1.382,1.383l-11.251,-0c-0.763,-0 -1.383,-0.62 -1.383,-1.383l-0,-6.579c-0,-0.763 0.62,-1.383 1.383,-1.383l11.251,0c0.763,0 1.382,0.62 1.382,1.383Z" style="fill:none;stroke:#f7f7f7;stroke-width:0.24px;"/><g id="Logo6" serif:id="Logo"><path id="path3789" d="M42.534,2.956c-0.806,-0 -1.527,0.418 -1.527,1.19c-0,0.886 1.278,0.947 1.278,1.392c0,0.187 -0.215,0.355 -0.581,0.355c-0.521,-0 -0.91,-0.235 -0.91,-0.235l-0.166,0.78c-0,-0 0.448,0.198 1.043,0.198c0.882,-0 1.575,-0.439 1.575,-1.224c0,-0.936 -1.283,-0.996 -1.283,-1.409c-0,-0.146 0.176,-0.307 0.542,-0.307c0.412,-0 0.749,0.17 0.749,0.17l0.163,-0.752c-0,-0 -0.366,-0.158 -0.883,-0.158Zm-7.378,0.056l-0.02,0.114c0,0 0.34,0.062 0.645,0.186c0.394,0.142 0.422,0.225 0.488,0.482l0.722,2.783l0.968,0l1.491,-3.565l-0.966,0l-0.958,2.424l-0.391,-2.054c-0.036,-0.235 -0.217,-0.37 -0.44,-0.37l-1.539,0Zm4.682,0l-0.757,3.565l0.921,0l0.755,-3.565l-0.919,0Zm5.137,0c-0.223,0 -0.34,0.119 -0.427,0.327l-1.349,3.238l0.966,0l0.187,-0.54l1.176,0l0.114,0.54l0.852,0l-0.743,-3.565l-0.776,0Zm0.125,0.963l0.286,1.338l-0.767,0l0.481,-1.338Z" style="fill:#1434cb;fill-rule:nonzero;"/></g></g></svg>