<?xml version="1.0" encoding="UTF-8" standalone="no"?><!DOCTYPE svg PUBLIC "-//W3C//DTD SVG 1.1//EN" "http://www.w3.org/Graphics/SVG/1.1/DTD/svg11.dtd"><svg width="100%" height="100%" viewBox="0 0 100 100" version="1.1" xmlns="http://www.w3.org/2000/svg" xmlns:xlink="http://www.w3.org/1999/xlink" xml:space="preserve" xmlns:serif="http://www.serif.com/" style="fill-rule:evenodd;clip-rule:evenodd;stroke-linejoin:round;stroke-miterlimit:2;"><g><g><path d="M49.869,0c-13.542,0 -15.241,0.058 -20.56,0.299c-5.308,0.242 -8.933,1.085 -12.104,2.32c-3.283,1.274 -6.064,2.977 -8.833,5.749c-2.773,2.773 -4.479,5.558 -5.753,8.833c-1.231,3.175 -2.074,6.8 -2.316,12.104c-0.245,5.319 -0.303,7.018 -0.303,20.56c-0,13.542 0.058,15.241 0.303,20.561c0.242,5.307 1.085,8.932 2.316,12.103c1.274,3.279 2.98,6.06 5.753,8.833c2.769,2.773 5.55,4.479 8.833,5.753c3.171,1.231 6.796,2.074 12.104,2.316c5.319,0.242 7.018,0.299 20.56,0.299c13.542,0 15.241,-0.057 20.56,-0.299c5.308,-0.242 8.933,-1.085 12.104,-2.316c3.279,-1.274 6.06,-2.98 8.833,-5.753c2.773,-2.773 4.475,-5.554 5.753,-8.833c1.231,-3.171 2.074,-6.796 2.316,-12.103c0.242,-5.32 0.299,-7.019 0.299,-20.561c0,-13.542 -0.057,-15.241 -0.299,-20.56c-0.242,-5.304 -1.085,-8.929 -2.316,-12.104c-1.278,-3.275 -2.98,-6.06 -5.753,-8.833c-2.773,-2.772 -5.554,-4.475 -8.833,-5.749c-3.171,-1.235 -6.796,-2.078 -12.104,-2.32c-5.319,-0.241 -7.018,-0.299 -20.56,-0.299Zm-0,8.986c13.316,-0 14.892,0.05 20.15,0.287c4.859,0.223 7.502,1.036 9.258,1.719c2.328,0.905 3.989,1.986 5.734,3.731c1.745,1.745 2.826,3.406 3.731,5.734c0.683,1.756 1.496,4.399 1.719,9.258c0.237,5.258 0.287,6.834 0.287,20.15c0,13.316 -0.05,14.892 -0.287,20.15c-0.223,4.863 -1.036,7.502 -1.719,9.258c-0.905,2.332 -1.986,3.989 -3.731,5.738c-1.745,1.741 -3.406,2.822 -5.734,3.728c-1.756,0.682 -4.399,1.495 -9.258,1.718c-5.258,0.238 -6.834,0.291 -20.15,0.291c-13.316,0 -14.892,-0.053 -20.15,-0.291c-4.863,-0.223 -7.506,-1.036 -9.262,-1.718c-2.328,-0.906 -3.989,-1.987 -5.734,-3.728c-1.745,-1.749 -2.826,-3.406 -3.727,-5.738c-0.683,-1.756 -1.496,-4.395 -1.719,-9.258c-0.241,-5.258 -0.291,-6.834 -0.291,-20.15c-0,-13.316 0.05,-14.892 0.291,-20.15c0.223,-4.859 1.036,-7.502 1.719,-9.258c0.901,-2.328 1.982,-3.989 3.727,-5.734c1.745,-1.745 3.406,-2.826 5.734,-3.731c1.756,-0.683 4.399,-1.496 9.262,-1.719c5.258,-0.237 6.834,-0.287 20.15,-0.287Z" style="fill:#f7f7f7;fill-rule:nonzero;"/><path d="M49.869,66.487c-9.181,-0 -16.622,-7.44 -16.622,-16.622c0,-9.181 7.441,-16.622 16.622,-16.622c9.181,0 16.622,7.441 16.622,16.622c-0,9.182 -7.441,16.622 -16.622,16.622Zm-0,-42.226c-14.14,0 -25.608,11.464 -25.608,25.604c0,14.144 11.468,25.608 25.608,25.608c14.14,-0 25.608,-11.464 25.608,-25.608c-0,-14.14 -11.468,-25.604 -25.608,-25.604Z" style="fill:#f7f7f7;fill-rule:nonzero;"/><path d="M82.472,23.249c-0,3.302 -2.681,5.983 -5.983,5.983c-3.306,-0 -5.987,-2.681 -5.987,-5.983c0,-3.306 2.681,-5.987 5.987,-5.987c3.302,0 5.983,2.681 5.983,5.987Z" style="fill:#f7f7f7;fill-rule:nonzero;"/></g></g></svg>