<svg id="Layer_1" enable-background="new 0 0 500 500" viewBox="0 0 500 500" xmlns="http://www.w3.org/2000/svg"><path clip-rule="evenodd" d="m333.982 249.513c-2.571-.438-5.025-.923-7.363-1.467l19.283-67.368c2.396.461 4.85 1.11 7.304 1.94 22.789 10.67 26.646 28.632 22.731 41.914-4.323 14.37-19.282 28.312-41.955 24.981zm-19.984-5.288 18.348-64.277c-8.064.678-16.245 3.337-24.659 7.994-9.408 5.311-18.524 11.289-27.288 17.974 4.09 16.647 12.797 30.274 33.599 38.309zm-4.382 15.274c-4.441 10.314-9.992 16.478-16.537 18.307-7.655 2.145-17.764-1.198-29.977-9.939l-25.302-21.422c10.109-11.757 20.569-22.216 31.379-31.502 6.533 20.283 19.216 33.887 41.196 42.026zm-1.403-135.367-33.424 27.359c1.374 13.022 1.683 26.994 3.097 39.852 7.596-5.434 15.368-10.407 23.374-14.93 11.687-6.469 23.373-9.741 34.943-9.811l7.363-25.781c2.396-11.827.467-20.627-5.376-24.162-7.187-4.342-19.225-1.339-29.977 7.473zm-133.755 142.35c-3.466 0-5.64-.42-7.889-4.143-6.135-10.226-3.389-33.67 1.519-42.663 3.915-5.878 7.48-6.86 13.323-3.658l37.456 31.695c-13.205 12.897-27.229 18.769-44.409 18.769zm69.303-106.676c-12.271 8.157-34.009 19.692-44.059 7.111-13.647-17.03.031-64.715 25.711-64.715 8.531 0 16.712 5.049 23.082 10.588 7.07 9.671 10.401 20.943 12.271 33.115zm144.799 68.496c5.317-17.781.584-43.592-30.152-57.814-1.645-.792-7.045-2.151-8.882-2.542l6.895-24.215c3.681-17.746-.468-31.73-11.395-38.362-12.154-7.339-29.86-3.991-45.169 8.549l-27.405 22.438c-2.454-11.359-6.486-22.252-13.79-32.016-.292-.356-.584-.69-.935-.982-28.691-25.401-49.669-11.114-57.382-3.781-9.233 8.788-15.894 22.392-18.29 37.304-2.454 15.438.175 29.392 7.304 38.28 7.187 8.975 24.776 20.317 61.998-4.558l11.102-9.022c.82 12.383 1.446 27.138 3.389 38.964-13.264 10.798-25.945 23.198-38.099 37.374-4.278-3.62-37.828-32.248-39.267-33.068-12.271-7.024-23.724-4.184-31.554 7.801-.059.117-.117.24-.234.362-6.778 12.032-10.81 40.547-1.461 56.12 4.207 6.954 10.81 10.711 18.64 10.547h.584c25.944 0 43.066-11.839 54.519-23.403l26.237 22.152c12.212 8.783 23.315 13.189 33.19 13.189 2.863 0 5.61-.362 8.239-1.098 10.693-2.992 19.166-11.809 25.302-26.231l1.052-3.535 8.94 1.8c29.16 4.325 50.547-13.965 56.624-34.253zm-11.862 226.279c-17.939-38.514-24.192-66.451-19.634-87.592 11.627-54.287 59.778-73.543 59.778-157.035 0-94.943-48.266-156.193-129.138-163.831 0-.012-.059-.012-.059-.012-70.179-7.094-135.566 39.811-152.103 109.096-.935 3.845-.759 10.477-.643 15.8.235 8.876.167 14.904-5.084 23.11l-45.637 71.237c32.197 15.111 36.813 18.898 36.813 24.753v82.088c0 1.566.701 2.805 2.162 3.786 6.72 1.525 46.046.666 61.005.333 5.902-.123 10.577-.228 12.856-.228 3.623 0 6.603 2.951 6.603 6.597v71.897h173.081zm17.354-134.936c16.888-26.097 35.995-55.682 35.995-109.692 0-66.099-23.066-127.374-77.366-157.929-18.465-10.384-39.91-16.788-63.693-19.05-37.106-3.734-74.503 6.451-105.356 28.685-30.619 22.111-52.298 54.25-60.946 90.485-1.637 6.941-.876 16.55-.876 24.168 0 4.014-.935 7.304-3.156 10.676l-46.981 73.352c-3.503 5.53-1.508 13.028 4.616 15.9 16.514 7.744 27.499 13.237 31.496 16.192v79.762c0 6.422 3.331 12.055 9.116 15.432 5.112 2.987 26.285 2.855 73.51 1.753v67.947c0 5.762 4.85 10.454 10.81 10.454h179.859c7.182 0 13.369-6.769 10.167-13.381-18.348-38.093-25.36-65.785-21.328-84.659 4.091-19.043 13.849-34.125 24.133-50.095z" fill-rule="evenodd"/></svg>