<?xml version="1.0" encoding="UTF-8" standalone="no"?><!DOCTYPE svg PUBLIC "-//W3C//DTD SVG 1.1//EN" "http://www.w3.org/Graphics/SVG/1.1/DTD/svg11.dtd"><svg width="100%" height="100%" viewBox="0 0 78 78" version="1.1" xmlns="http://www.w3.org/2000/svg" xmlns:xlink="http://www.w3.org/1999/xlink" xml:space="preserve" xmlns:serif="http://www.serif.com/" style="fill-rule:evenodd;clip-rule:evenodd;stroke-linejoin:round;stroke-miterlimit:2;"><g><path d="M63.247,0l-48.652,0c-8.047,0 -14.595,6.548 -14.595,14.595l0,48.652c0,8.047 6.548,14.595 14.595,14.595l48.652,0c8.047,0 14.595,-6.548 14.595,-14.595l0,-48.652c0,-8.047 -6.548,-14.595 -14.595,-14.595Zm11.352,63.247c-0,6.259 -5.093,11.352 -11.352,11.352l-48.652,-0c-6.259,-0 -11.352,-5.093 -11.352,-11.352l0,-48.652c0,-6.259 5.093,-11.352 11.352,-11.352l48.652,0c6.259,0 11.352,5.093 11.352,11.352l-0,48.652Z" style="fill-rule:nonzero;"/><path d="M53.883,30.903l-9.172,-9.338c-0.63,-0.638 -1.655,-0.648 -2.294,-0.019c-0.639,0.629 -0.648,1.654 -0.019,2.296l9.182,9.348c0.607,0.606 1.453,1.534 2.319,2.51c0.425,0.48 0.727,1.025 0.928,1.599l-33.745,0c-0.895,0 -1.621,0.727 -1.621,1.622c-0,0.895 0.726,1.622 1.621,1.622l33.745,-0c-0.205,0.574 -0.503,1.119 -0.931,1.599c-0.863,0.976 -1.709,1.904 -2.326,2.52l-9.172,9.338c-0.629,0.639 -0.62,1.667 0.019,2.296c0.318,0.308 0.727,0.464 1.139,0.464c0.418,-0 0.84,-0.162 1.155,-0.483l9.162,-9.329c0.642,-0.642 1.541,-1.621 2.452,-2.653c2.715,-3.061 2.715,-7.68 0,-10.742c-0.914,-1.031 -1.813,-2.014 -2.442,-2.643l-0,-0.007Z" style="fill-rule:nonzero;"/></g></svg>