<svg id="Capa_1" enable-background="new 0 0 512 512" height="512" viewBox="0 0 512 512" width="512" xmlns="http://www.w3.org/2000/svg"><g><g><path d="m437.019 74.981c-48.353-48.352-112.64-74.981-181.019-74.981s-132.666 26.629-181.019 74.981c-48.352 48.353-74.981 112.64-74.981 181.019s26.629 132.666 74.981 181.019c48.353 48.352 112.64 74.981 181.019 74.981 46.118 0 91.329-12.401 130.747-35.861 38.272-22.779 70.112-55.291 92.076-94.019 2.044-3.603.779-8.18-2.823-10.224-3.605-2.044-8.182-.779-10.224 2.824-42.777 75.425-123.158 122.28-209.776 122.28-132.888 0-241-108.112-241-241s108.112-241 241-241 241 108.112 241 241c0 30.4-5.592 60.047-16.62 88.117-1.515 3.855.383 8.208 4.238 9.723 3.857 1.516 8.209-.383 9.723-4.238 11.718-29.825 17.659-61.317 17.659-93.602 0-68.379-26.629-132.666-74.981-181.019z"/><path d="m118.598 411.363c-1.495 1.495-2.289 3.552-2.188 5.665s1.091 4.083 2.724 5.428c38.474 31.687 87.081 49.137 136.866 49.137 118.879 0 215.594-96.715 215.594-215.593 0-49.786-17.451-98.393-49.139-136.867-1.345-1.632-3.315-2.621-5.428-2.723-2.12-.098-4.17.693-5.665 2.188l-55.752 55.752h-35.923l73.716-73.717c1.495-1.496 2.29-3.553 2.188-5.665s-1.091-4.083-2.724-5.428c-38.476-31.682-87.084-49.13-136.867-49.13-23.965 0-47.527 3.929-70.032 11.679-3.916 1.349-5.998 5.617-4.649 9.533s5.611 5.998 9.534 4.649c20.928-7.207 42.847-10.861 65.147-10.861 43.552 0 86.141 14.357 120.832 40.581l-78.359 78.359h-111.253c-4.143 0-7.5 3.358-7.5 7.5s3.357 7.5 7.5 7.5h198.81c7.714 0 13.989 6.276 13.989 13.99v105.32c0 7.714-6.275 13.99-13.989 13.99h-260.06c-7.714 0-13.989-6.276-13.989-13.99v-105.32c0-7.714 6.275-13.99 13.989-13.99h26.25c4.143 0 7.5-3.358 7.5-7.5s-3.357-7.5-7.5-7.5h-26.25c-15.984 0-28.989 13.005-28.989 28.99v105.32c0 15.985 13.005 28.99 28.989 28.99h9.212l-39.19 39.184c-26.227-34.693-40.582-77.278-40.582-120.834 0-73.32 40.096-140.802 104.64-176.11 3.634-1.988 4.968-6.545 2.98-10.179s-6.544-4.968-10.18-2.98c-69.355 37.94-112.44 110.464-112.44 189.269 0 49.784 17.448 98.392 49.13 136.868 1.345 1.632 3.315 2.622 5.428 2.724.121.006.242.009.363.009 1.983 0 3.893-.787 5.302-2.196l55.763-55.754h35.915zm296.422-102.703v-105.32c0-15.985-13.005-28.99-28.989-28.99h-9.207l39.182-39.183c26.231 34.691 40.588 77.276 40.588 120.833 0 110.607-89.986 200.593-200.594 200.593-43.556 0-86.141-14.356-120.832-40.587l78.357-78.356h172.505c15.985 0 28.99-13.005 28.99-28.99z"/><path d="m218.037 208.738c-4.143 0-7.5 3.358-7.5 7.5v79.523c0 4.142 3.357 7.5 7.5 7.5s7.5-3.358 7.5-7.5v-33.625h40.031v33.625c0 4.142 3.357 7.5 7.5 7.5s7.5-3.358 7.5-7.5v-79.523c0-4.142-3.357-7.5-7.5-7.5s-7.5 3.358-7.5 7.5v30.898h-40.031v-30.898c0-4.142-3.357-7.5-7.5-7.5z"/><path d="m347.644 223.738c6.466 0 12.702 1.904 18.033 5.505 3.433 2.319 8.095 1.416 10.413-2.016 2.318-3.433 1.416-8.095-2.017-10.414-7.82-5.283-16.959-8.076-26.43-8.076-26.061 0-47.262 21.202-47.262 47.262s21.201 47.262 47.262 47.262c10.345 0 19.615-3.387 26.812-9.795 1.409-1.255 2.749-2.638 3.983-4.109 2.662-3.174 2.247-7.904-.926-10.566s-7.903-2.247-10.566.926c-.77.918-1.601 1.776-2.468 2.549-4.469 3.979-10.133 5.996-16.836 5.996-17.789 0-32.262-14.473-32.262-32.262s14.474-32.262 32.264-32.262z"/><path d="m161.177 303.262c4.143 0 7.5-3.358 7.5-7.5v-72.023h14.547c4.143 0 7.5-3.358 7.5-7.5s-3.357-7.5-7.5-7.5h-43.917c-4.143 0-7.5 3.358-7.5 7.5s3.357 7.5 7.5 7.5h14.37v72.023c0 4.142 3.357 7.5 7.5 7.5z"/></g></g></svg>