<?xml version="1.0" encoding="UTF-8" standalone="no"?><!DOCTYPE svg PUBLIC "-//W3C//DTD SVG 1.1//EN" "http://www.w3.org/Graphics/SVG/1.1/DTD/svg11.dtd"><svg width="100%" height="100%" viewBox="0 0 78 100" version="1.1" xmlns="http://www.w3.org/2000/svg" xmlns:xlink="http://www.w3.org/1999/xlink" xml:space="preserve" xmlns:serif="http://www.serif.com/" style="fill-rule:evenodd;clip-rule:evenodd;stroke-linejoin:round;stroke-miterlimit:2;"><g><path d="M11.731,57.666c1.311,0.538 2.49,0.025 2.872,-1.427c0.259,-1.006 0.889,-3.545 1.165,-4.6c0.386,-1.441 0.238,-1.94 -0.821,-3.19c-2.309,-2.723 -3.782,-6.25 -3.782,-11.24c-0,-14.475 10.832,-27.436 28.204,-27.436c15.383,0 23.835,9.402 23.835,21.958c0,16.516 -7.309,30.453 -18.162,30.453c-5.991,0 -10.478,-4.954 -9.044,-11.03c1.728,-7.259 5.06,-15.088 5.06,-20.329c0,-4.692 -2.517,-8.601 -7.726,-8.601c-6.126,-0 -11.048,6.338 -11.048,14.826c-0,5.407 1.831,9.065 1.831,9.065c-0,0 -6.272,26.565 -7.369,31.218c-2.192,9.26 -0.333,20.619 -0.174,21.767c0.096,0.683 0.967,0.839 1.36,0.329c0.57,-0.737 7.865,-9.748 10.343,-18.746c0.705,-2.55 4.03,-15.744 4.03,-15.744c1.99,3.796 7.808,7.135 13.991,7.135c18.42,0 30.913,-16.784 30.913,-39.259c-0,-16.99 -14.391,-32.815 -36.267,-32.815c-27.217,-0 -40.942,19.515 -40.942,35.786c-0,9.855 3.732,18.619 11.731,21.88Z" style="fill:#f7f7f7;fill-rule:nonzero;"/></g></svg>