<?xml version="1.0" encoding="UTF-8" standalone="no"?><!DOCTYPE svg PUBLIC "-//W3C//DTD SVG 1.1//EN" "http://www.w3.org/Graphics/SVG/1.1/DTD/svg11.dtd"><svg width="100%" height="100%" viewBox="0 0 963 902" version="1.1" xmlns="http://www.w3.org/2000/svg" xmlns:xlink="http://www.w3.org/1999/xlink" xml:space="preserve" xmlns:serif="http://www.serif.com/" style="fill-rule:evenodd;clip-rule:evenodd;stroke-linejoin:round;stroke-miterlimit:2;"><g><g><path d="M943.21,863.87l-328.213,0c76.041,-45.488 127.066,-128.65 127.066,-223.518l0,-122.193c58.211,-67.522 84.442,-158.755 75.889,-264.41c-1.686,-21.118 -18.27,-37.7 -39.446,-39.425c-74.841,-6.056 -144.328,5.952 -202.174,34.744c-18.623,-25.434 -41.103,-49.455 -67.046,-71.608c-16.201,-13.837 -40.618,-13.831 -56.783,0c-25.969,22.176 -48.453,46.199 -67.051,71.604c-57.841,-28.788 -127.32,-40.792 -202.201,-34.74c-21.151,1.723 -37.728,18.303 -39.413,39.402c-8.574,105.719 17.741,197.096 76.087,264.66l0,121.966c0,94.866 51.028,178.03 127.066,223.518l-328.164,0c-10.396,0 -18.827,8.429 -18.827,18.827c-0,10.399 8.429,18.828 18.827,18.828l924.383,-0c10.396,-0 18.827,-8.429 18.827,-18.828c0,-10.398 -8.429,-18.827 -18.827,-18.827Zm-238.8,-223.518c0,116.685 -90.232,212.691 -204.588,221.898l-0,-113.567c-0,-116.685 90.232,-212.691 204.588,-221.898l0,113.567Zm71.052,-388.499c2.621,0.214 4.754,2.317 4.961,4.913c7.502,92.675 -14.126,172.445 -62.598,231.701c-30.508,0.534 -59.748,6.341 -86.853,16.55c5.865,-23.337 8.841,-47.091 8.841,-70.997c0,-53.211 -14.389,-104.665 -42.7,-153.197c50.915,-24.32 112.119,-34.323 178.349,-28.97Zm-298.493,-45.772c2.238,-1.913 5.617,-1.909 7.866,0.011c29.06,24.816 53.273,52.055 71.972,80.971c30.092,46.461 45.349,95.905 45.349,146.955c0,31.993 -6.116,63.731 -18.158,94.364c-34.246,21.599 -63.139,50.947 -84.176,85.576l-0,-111.239c-0,-10.398 -8.429,-18.827 -18.828,-18.827c-10.398,-0 -18.827,8.429 -18.827,18.827l-0,111.239c-21.092,-34.721 -50.082,-64.131 -84.447,-85.747c-12.005,-30.584 -18.106,-62.258 -18.106,-94.193c0,-51.058 15.261,-100.499 45.377,-146.97c18.661,-28.874 42.873,-56.11 71.978,-80.967Zm-295.597,50.666c0.205,-2.577 2.33,-4.68 4.927,-4.892c66.253,-5.352 127.46,4.65 178.375,28.966c-28.322,48.53 -42.713,99.982 -42.713,153.199c0,23.876 2.963,47.598 8.814,70.905c-27.098,-10.175 -56.328,-15.951 -86.818,-16.46c-48.464,-59.269 -70.097,-139.086 -62.585,-231.718Zm76.21,383.605l-0,-113.567c114.354,9.207 204.589,105.213 204.589,221.898l-0,113.567c-114.355,-9.209 -204.589,-105.213 -204.589,-221.898Z" style="fill:#fff;fill-rule:nonzero;"/><path d="M481.019,78.143c10.396,-0 18.827,-8.429 18.827,-18.827l0,-40.489c0,-10.398 -8.429,-18.827 -18.827,-18.827c-10.399,0 -18.828,8.429 -18.828,18.827l0,40.489c0,10.398 8.431,18.827 18.828,18.827Z" style="fill:#fff;fill-rule:nonzero;"/><path d="M316.056,113.652c3.487,6.039 9.813,9.415 16.322,9.415c3.195,0 6.43,-0.813 9.395,-2.525c9.006,-5.199 12.09,-16.711 6.89,-25.717l-20.244,-35.064c-5.199,-9.002 -16.704,-12.089 -25.717,-6.89c-9.006,5.199 -12.09,16.711 -6.891,25.717l20.245,35.064Z" style="fill:#fff;fill-rule:nonzero;"/><path d="M620.264,120.542c2.965,1.712 6.201,2.525 9.395,2.525c6.507,0 12.837,-3.376 16.323,-9.415l20.244,-35.064c5.199,-9.006 2.114,-20.518 -6.89,-25.717c-9.01,-5.199 -20.521,-2.114 -25.718,6.89l-20.244,35.064c-5.201,9.006 -2.116,20.518 6.89,25.717Z" style="fill:#fff;fill-rule:nonzero;"/><circle cx="481.019" cy="417.706" r="18.827" style="fill:#fff;"/></g></g></svg>