<?xml version="1.0" encoding="UTF-8" standalone="no"?><!DOCTYPE svg PUBLIC "-//W3C//DTD SVG 1.1//EN" "http://www.w3.org/Graphics/SVG/1.1/DTD/svg11.dtd"><svg width="100%" height="100%" viewBox="0 0 1956 1956" version="1.1" xmlns="http://www.w3.org/2000/svg" xmlns:xlink="http://www.w3.org/1999/xlink" xml:space="preserve" xmlns:serif="http://www.serif.com/" style="fill-rule:evenodd;clip-rule:evenodd;stroke-linejoin:round;stroke-miterlimit:2;"><g><g id="Layer_25"><g><path d="M1925.93,948.148c-5.245,0 -9.926,1.719 -14.222,4.119c-28.682,-26.163 -65.245,-40.978 -104.297,-40.978c-41.481,-0 -80.503,16.178 -109.837,45.511c-37.451,37.452 -98.429,37.452 -135.881,-0c-60.593,-60.593 -159.082,-60.593 -219.674,-0c-36.296,36.296 -99.585,36.296 -135.882,-0c-54.074,-54.074 -138.163,-59.556 -198.726,-17.096l0,-585.66c165.867,-15.022 296.297,-154.696 296.297,-324.414c-0,-16.386 -13.245,-29.63 -29.63,-29.63c-179.704,-0 -325.926,146.222 -325.926,325.926l0,164.918c-92.267,-185.214 -283.111,-313.066 -503.704,-313.066c-16.385,-0 -29.629,13.244 -29.629,29.629c-0,300.415 236.711,545.897 533.333,561.452l0,208.919c0,0.474 0.237,0.859 0.267,1.333c-33.482,10.43 -72.296,3.259 -97.837,-22.281c-60.593,-60.593 -159.082,-60.593 -219.674,-0c-37.452,37.451 -98.43,37.451 -135.882,-0c-60.592,-60.593 -159.081,-60.593 -219.674,-0c-37.452,37.451 -98.429,37.451 -135.881,-0c-11.586,-11.586 -30.311,-11.586 -41.897,-0c-11.585,11.585 -11.585,30.311 0,41.896c29.334,29.333 68.356,45.511 109.837,45.511c41.482,0 80.504,-16.178 109.837,-45.511c37.452,-37.452 98.43,-37.452 135.882,-0c60.593,60.593 159.081,60.593 219.674,-0c36.296,-36.296 99.585,-36.296 135.881,-0c60.593,60.593 159.082,60.593 219.675,-0c36.296,-36.296 99.585,-36.296 135.881,-0c60.593,60.593 159.082,60.593 219.674,-0c37.452,-37.452 98.43,-37.452 135.882,-0c60.592,60.593 159.081,60.593 219.674,-0c37.452,-37.452 98.429,-37.452 135.881,-0c5.6,5.6 12.889,8.355 20.208,8.533c-15.675,492.86 -421.186,889.037 -917.778,889.037c-506.489,0 -918.519,-412.029 -918.519,-918.518c0,-16.385 -13.244,-29.63 -29.629,-29.63c-16.386,0 -29.63,13.245 -29.63,29.63c-0,539.141 438.637,977.778 977.778,977.778c539.141,-0 977.778,-438.637 977.778,-977.778c-0,-16.385 -13.245,-29.63 -29.63,-29.63Zm-683.348,-887.022c-14.371,121.926 -111.408,218.963 -233.334,233.333c14.4,-121.955 111.408,-218.963 233.334,-233.333Zm-767.585,176.83c253.481,15.229 457.007,218.755 472.237,472.237c-253.482,-15.23 -457.008,-218.756 -472.237,-472.237Z" style="fill:#fff;fill-rule:nonzero;"/><path d="M977.778,1066.67c-16.385,-0 -29.63,13.244 -29.63,29.629l0,165.511l-111.941,111.941c-61.54,61.541 -95.466,143.408 -95.466,230.489l-0,143.911c-0,16.385 13.244,29.63 29.629,29.63c16.386,-0 29.63,-13.245 29.63,-29.63l0,-58.489c40.237,32.771 59.259,59.437 59.259,117.748c0,16.386 13.245,29.63 29.63,29.63c16.385,0 29.63,-13.244 29.63,-29.63c-0,-102.874 -49.63,-141.066 -118.519,-192.592l0,-10.578c0,-71.23 27.763,-138.193 78.104,-188.563l120.622,-120.622c4.889,-4.889 7.467,-11.348 8.118,-18.163l41.66,58.341c31.259,43.703 47.792,95.259 47.792,149.066l0,263.852c0,16.385 13.245,29.63 29.63,29.63c16.385,-0 29.63,-13.245 29.63,-29.63l-0,-195.141l13.777,13.778c48.445,48.445 75.111,112.859 75.111,181.363c0,16.385 13.245,29.63 29.63,29.63c16.385,-0 29.63,-13.245 29.63,-29.63c-0,-84.355 -32.83,-163.615 -92.474,-223.259l-56.267,-56.267c-2.963,-60.503 -22.785,-118.281 -58.222,-167.852l-89.334,-125.066l0,-79.408c0,-16.385 -13.244,-29.629 -29.629,-29.629Z" style="fill:#fff;fill-rule:nonzero;"/><path d="M266.667,1392.59l266.666,-0c16.386,-0 29.63,-13.245 29.63,-29.63c-0,-16.385 -13.244,-29.63 -29.63,-29.63l-266.666,0c-16.386,0 -29.63,13.245 -29.63,29.63c0,16.385 13.244,29.63 29.63,29.63Z" style="fill:#fff;fill-rule:nonzero;"/><path d="M740.741,1125.93l-266.667,-0c-16.385,-0 -29.63,13.244 -29.63,29.63c0,16.385 13.245,29.629 29.63,29.629l266.667,0c16.385,0 29.629,-13.244 29.629,-29.629c0,-16.386 -13.244,-29.63 -29.629,-29.63Z" style="fill:#fff;fill-rule:nonzero;"/><path d="M503.704,1451.85c-16.385,-0 -29.63,13.244 -29.63,29.629c0,16.386 13.245,29.63 29.63,29.63l88.889,0c16.385,0 29.629,-13.244 29.629,-29.63c0,-16.385 -13.244,-29.629 -29.629,-29.629l-88.889,-0Z" style="fill:#fff;fill-rule:nonzero;"/><path d="M266.667,1244.44l88.889,0c16.385,0 29.629,-13.244 29.629,-29.629c0,-16.385 -13.244,-29.63 -29.629,-29.63l-88.889,0c-16.386,0 -29.63,13.245 -29.63,29.63c0,16.385 13.244,29.629 29.63,29.629Z" style="fill:#fff;fill-rule:nonzero;"/><path d="M1600,1333.33c0,-16.385 -13.244,-29.629 -29.63,-29.629l-296.296,-0c-16.385,-0 -29.63,13.244 -29.63,29.629c0,16.386 13.245,29.63 29.63,29.63l296.296,-0c16.386,-0 29.63,-13.244 29.63,-29.63Z" style="fill:#fff;fill-rule:nonzero;"/><path d="M1392.59,1481.48c-16.386,0 -29.63,13.245 -29.63,29.63c-0,16.385 13.244,29.63 29.63,29.63l118.518,-0c16.385,-0 29.63,-13.245 29.63,-29.63c-0,-16.385 -13.245,-29.63 -29.63,-29.63l-118.518,0Z" style="fill:#fff;fill-rule:nonzero;"/></g></g></g></svg>