<?xml version="1.0" encoding="UTF-8" standalone="no"?><!DOCTYPE svg PUBLIC "-//W3C//DTD SVG 1.1//EN" "http://www.w3.org/Graphics/SVG/1.1/DTD/svg11.dtd"><svg width="100%" height="100%" viewBox="0 0 310 310" version="1.1" xmlns="http://www.w3.org/2000/svg" xmlns:xlink="http://www.w3.org/1999/xlink" xml:space="preserve" xmlns:serif="http://www.serif.com/" style="fill-rule:evenodd;clip-rule:evenodd;stroke-linejoin:round;stroke-miterlimit:2;"><g><g id="Icon"><path id="Close_Double_Quotation_Ditto_mark" d="M219.058,0l-128.288,0c-50.129,0 -90.77,40.641 -90.77,90.77l-0,128.288c-0,50.13 40.641,90.77 90.77,90.77l128.288,0c50.13,0 90.77,-40.64 90.77,-90.77l0,-128.288c0,-50.129 -40.64,-90.77 -90.77,-90.77Zm-70.165,157.583c-1.319,4.139 -2.977,8.23 -4.962,12.284c-1.985,4.054 -4.2,7.818 -6.638,11.292c-2.445,3.479 -4.781,6.251 -7.014,8.314l-25.192,-2.977c2.651,-2.063 5.09,-4.381 7.323,-6.947c2.233,-2.566 4.302,-5.252 6.202,-8.066c-3.056,-0.248 -5.851,-1.077 -8.375,-2.481c-2.523,-1.41 -4.696,-3.232 -6.511,-5.465c-1.822,-2.233 -3.231,-4.817 -4.224,-7.751c-0.992,-2.941 -1.489,-6.106 -1.489,-9.495c0,-2.814 0.454,-5.731 1.368,-8.75c0.908,-3.02 2.378,-5.809 4.405,-8.375c2.028,-2.566 4.733,-4.678 8.127,-6.33c3.389,-1.658 7.571,-2.481 12.533,-2.481c4.472,0 8.381,0.617 11.727,1.858c3.353,1.24 6.1,3.001 8.254,5.277c2.148,2.275 3.764,5.004 4.841,8.187c1.071,3.189 1.61,6.723 1.61,10.614c-0,3.389 -0.66,7.153 -1.985,11.292Zm60.937,-0c-1.325,4.139 -2.977,8.23 -4.968,12.284c-1.985,4.054 -4.2,7.818 -6.638,11.292c-2.439,3.479 -4.775,6.251 -7.008,8.314l-25.071,-2.977c2.645,-2.063 5.065,-4.381 7.262,-6.947c2.191,-2.566 4.236,-5.252 6.142,-8.066c-3.062,-0.248 -5.858,-1.077 -8.375,-2.481c-2.529,-1.41 -4.702,-3.232 -6.517,-5.465c-1.822,-2.233 -3.226,-4.817 -4.218,-7.751c-0.992,-2.941 -1.489,-6.106 -1.489,-9.495c0,-2.814 0.454,-5.731 1.362,-8.75c0.908,-3.02 2.396,-5.809 4.466,-8.375c2.069,-2.566 4.78,-4.678 8.133,-6.33c3.346,-1.658 7.504,-2.481 12.472,-2.481c9.016,0 15.673,2.378 19.975,7.135c4.303,4.756 6.457,11.025 6.457,18.801c-0,3.389 -0.666,7.153 -1.985,11.292Z" style="fill-rule:nonzero;"/></g></g></svg>