<?xml version="1.0" encoding="UTF-8" standalone="no"?><!DOCTYPE svg PUBLIC "-//W3C//DTD SVG 1.1//EN" "http://www.w3.org/Graphics/SVG/1.1/DTD/svg11.dtd"><svg width="100%" height="100%" viewBox="0 0 131 129" version="1.1" xmlns="http://www.w3.org/2000/svg" xmlns:xlink="http://www.w3.org/1999/xlink" xml:space="preserve" xmlns:serif="http://www.serif.com/" style="fill-rule:evenodd;clip-rule:evenodd;stroke-linejoin:round;stroke-miterlimit:2;"><g><path d="M102.648,56.692c-2.375,-0 -4.5,-0.542 -6.292,-1.667c-8.292,-5.125 -7.833,-20.833 -1.917,-30.458c3.042,-4.959 7.125,-8.292 11.834,-9.667c4.541,-1.292 9.375,-0.583 13.541,1.958c4.209,2.584 7,6.542 7.875,11.209c0.917,4.791 -0.208,9.958 -3.291,14.916c-2.917,4.75 -7.584,8.917 -12.792,11.417c-3.125,1.5 -6.208,2.25 -8.958,2.25l-0,0.042Zm8.166,-34.084c-0.75,0 -1.5,0.125 -2.25,0.334c-2.666,0.75 -5.083,2.833 -7.041,6c-4.5,7.291 -3.792,17.166 -0.792,19c1.125,0.708 3.833,0.625 7.292,-1.042c3.75,-1.792 7.208,-4.875 9.291,-8.25c1.959,-3.167 2.709,-6.292 2.209,-9c-0.459,-2.375 -1.875,-4.333 -4.042,-5.667c-1.5,-0.916 -3.042,-1.375 -4.667,-1.375Z" style="fill:#fff;fill-rule:nonzero;"/><path d="M49.356,37.358c-8.792,0 -15.833,-4.958 -18.042,-13.375c-1.291,-4.958 -0.541,-9.958 2.125,-14.125c2.75,-4.291 7.334,-7.333 13.25,-8.916c11.417,-3 27.292,1.291 29.875,11.125c1.209,4.583 -0.708,10.083 -5.25,15.041c-4.083,4.459 -9.666,7.875 -15.333,9.334c-2.292,0.625 -4.542,0.875 -6.667,0.875l0.042,0.041Zm-0.542,-28.375c-3.875,1 -6.75,2.875 -8.375,5.375c-1.416,2.167 -1.791,4.75 -1.083,7.459c1.583,6 7.125,8.458 14.542,6.541c4.083,-1.083 8.333,-3.666 11.291,-6.916c2.459,-2.709 3.792,-5.542 3.334,-7.292c-0.959,-3.625 -10.875,-7.458 -19.709,-5.167Z" style="fill:#fff;fill-rule:nonzero;"/><path d="M70.939,88.233c-0.875,0 -1.708,-0.083 -2.583,-0.208c-4.833,-0.75 -9.333,-3.583 -13.042,-8.167c-3.5,-4.375 -5.875,-10.208 -6.458,-16c-0.667,-6.458 1,-11.791 4.625,-14.666c3.583,-2.875 9.167,-3.375 15.333,-1.292c5.5,1.833 10.667,5.417 14.209,9.833c7.333,9.167 6.791,20.125 -1.334,26.667c-3.166,2.542 -6.875,3.875 -10.708,3.875l-0.042,-0.042Zm-9.333,-33.25c-1.375,0 -2.375,0.292 -2.917,0.709c-1.041,0.833 -1.916,3.416 -1.541,7.333c0.416,4.167 2.166,8.5 4.708,11.625c2.333,2.958 5.042,4.708 7.833,5.167c2.417,0.375 4.75,-0.292 6.792,-1.917c4.5,-3.625 4.542,-9.333 0.042,-14.958c-2.5,-3.125 -6.375,-5.792 -10.334,-7.125c-1.75,-0.584 -3.291,-0.834 -4.541,-0.834l-0.042,0Z" style="fill:#fff;fill-rule:nonzero;"/><path d="M108.856,116.067c-3.25,-0 -6.458,-0.917 -9.375,-2.709c-4.375,-2.666 -7.292,-6.833 -8.208,-11.666c-0.959,-5 0.208,-10.375 3.416,-15.584c3.084,-5 7.959,-9.375 13.375,-11.958c6.042,-2.917 11.834,-3.167 15.917,-0.667c8.667,5.334 8.167,21.75 2,31.834c-3.208,5.208 -7.458,8.708 -12.375,10.083c-1.542,0.458 -3.167,0.667 -4.75,0.667Zm8.583,-36.042c-1.583,-0 -3.666,0.542 -5.791,1.542c-3.959,1.916 -7.667,5.208 -9.875,8.833c-2.084,3.417 -2.875,6.75 -2.334,9.667c0.5,2.541 2,4.666 4.375,6.125c2.375,1.458 4.959,1.875 7.459,1.125c2.875,-0.834 5.458,-3.042 7.541,-6.459c4.792,-7.791 3.959,-18.416 0.75,-20.375c-0.541,-0.291 -1.291,-0.5 -2.125,-0.458Z" style="fill:#fff;fill-rule:nonzero;"/><path d="M18.398,85.192c-4.292,-0 -8.792,-2.709 -12.417,-7.542c-3.375,-4.542 -5.542,-10.292 -5.917,-15.833c-0.791,-11.5 5.792,-20.042 16,-20.75c4.834,-0.334 9.375,1.25 12.75,4.5c3.5,3.333 5.542,8.125 5.959,13.875c0.791,11.125 -6.042,25.083 -15.625,25.75l-0.75,-0Zm-1.084,-35.875l-0.708,-0c-5.583,0.375 -8.75,4.916 -8.25,11.875c0.25,3.875 1.875,8.166 4.333,11.416c2.25,3.042 4.5,4.292 5.834,4.209c3.416,-0.25 8.5,-8.5 7.916,-16.834c-0.25,-3.625 -1.416,-6.541 -3.375,-8.416c-1.541,-1.459 -3.5,-2.209 -5.75,-2.209l0,-0.041Z" style="fill:#fff;fill-rule:nonzero;"/><path d="M51.023,128.483c-4.25,0 -8.542,-0.833 -12.25,-2.375c-11.25,-4.708 -16.209,-14.958 -12.042,-24.916c1.958,-4.709 5.625,-8.25 10.25,-9.917c4.792,-1.708 10.292,-1.375 15.917,1c5.416,2.25 10.458,6.417 13.875,11.375c3.791,5.542 4.916,11.25 3.083,15.625c-1.833,4.375 -6.667,7.583 -13.292,8.75c-1.833,0.333 -3.708,0.5 -5.583,0.5l0.042,-0.042Zm-7.667,-30c-1.25,0 -2.458,0.209 -3.542,0.584c-2.458,0.875 -4.291,2.708 -5.375,5.291c-2.375,5.709 0.5,11.084 7.542,14c3.917,1.625 8.833,2.167 13.167,1.375c3.625,-0.625 6.375,-2.125 7.083,-3.75c0.708,-1.666 -0.208,-4.666 -2.292,-7.666c-2.5,-3.625 -6.333,-6.792 -10.208,-8.417c-2.25,-0.958 -4.375,-1.417 -6.333,-1.417l-0.042,0Z" style="fill:#fff;fill-rule:nonzero;"/></g></svg>