<svg id="Capa_1" enable-background="new 0 0 512 512" viewBox="0 0 512 512" xmlns="http://www.w3.org/2000/svg"><g><g><path d="m284.119 207.728h35.985c4.142 0 7.5-3.358 7.5-7.5s-3.358-7.5-7.5-7.5h-31.655l-15.827-27.414c-2.071-3.588-6.658-4.817-10.245-2.745-3.587 2.071-4.816 6.658-2.745 10.245l17.992 31.164c1.339 2.321 3.815 3.75 6.495 3.75z"/><path d="m284.119 388.984h35.985c4.142 0 7.5-3.358 7.5-7.5s-3.358-7.5-7.5-7.5h-31.655l-15.827-27.413c-2.071-3.587-6.658-4.816-10.245-2.745s-4.816 6.658-2.745 10.245l17.992 31.163c1.34 2.32 3.815 3.75 6.495 3.75z"/><path d="m127.147 298.356h35.985c4.142 0 7.5-3.358 7.5-7.5s-3.358-7.5-7.5-7.5h-31.655l-15.828-27.414c-2.071-3.587-6.658-4.816-10.245-2.745s-4.816 6.658-2.745 10.245l17.993 31.164c1.34 2.321 3.816 3.75 6.495 3.75z"/><path d="m401.844 447.895c-43.393 33.068-97.479 50.486-152.29 49.021-55.015-1.462-108.279-21.905-149.982-57.563-3.148-2.692-7.882-2.323-10.574.826-2.692 3.148-2.322 7.882.826 10.574 44.307 37.885 100.892 59.604 159.332 61.158 2.256.06 4.505.089 6.758.089 55.893 0 110.705-18.402 155.022-52.175 3.294-2.511 3.93-7.217 1.419-10.511-2.511-3.295-7.217-3.93-10.511-1.419z"/><path d="m63.943 110.298 1.74-2.069 3.127 25.429c.467 3.8 3.701 6.585 7.435 6.585.305 0 .614-.019.924-.057 4.111-.505 7.034-4.248 6.529-8.359l-5.228-42.52c-.505-4.111-4.25-7.034-8.359-6.528l-42.52 5.228c-4.111.505-7.034 4.248-6.529 8.359s4.25 7.033 8.359 6.529l23.588-2.9-.662.788c-.078.092-.153.186-.226.281-73.765 96.795-68.74 233.231 11.948 324.417 1.482 1.675 3.546 2.53 5.62 2.53 1.767 0 3.54-.621 4.967-1.883 3.102-2.745 3.392-7.485.646-10.587-75.914-85.791-80.676-214.137-11.359-305.243z"/><path d="m110.152 64.109c42.229-32.182 94.872-49.635 148.221-49.099 53.425.52 105.777 19.042 147.412 52.153 1.38 1.097 3.027 1.63 4.664 1.63 2.208 0 4.394-.97 5.875-2.832 2.578-3.242 2.04-7.96-1.202-10.539-44.238-35.181-99.854-54.86-156.603-55.413-56.664-.519-112.591 17.977-157.459 52.169-3.294 2.511-3.93 7.217-1.419 10.511 2.51 3.296 7.218 3.93 10.511 1.42z"/><path d="m482.521 409.108-23.587 2.9.662-.788c.077-.092.152-.186.225-.281 36.525-47.928 54.937-107.629 51.843-168.105-3.116-60.92-27.956-118.821-69.943-163.036-2.853-3.004-7.6-3.126-10.603-.274s-3.126 7.6-.274 10.603c39.524 41.621 62.906 96.125 65.84 153.473 2.909 56.878-14.379 113.018-48.685 158.104l-1.74 2.07-3.127-25.43c-.505-4.111-4.242-7.03-8.359-6.528-4.111.505-7.034 4.248-6.528 8.359l5.229 42.52c.243 1.974 1.26 3.771 2.828 4.996 1.325 1.035 2.952 1.589 4.616 1.589.304 0 .61-.019.916-.056l42.52-5.229c4.111-.505 7.034-4.248 6.528-8.359-.507-4.11-4.247-7.033-8.361-6.528z"/><path d="m238.607 142.915c-3.587-2.072-8.175-.842-10.245 2.745l-9.905 17.156c-2.225 3.855-2.225 8.645 0 12.5l36.414 63.071c2.226 3.855 6.374 6.25 10.825 6.25h72.829c4.451 0 8.599-2.395 10.826-6.25l36.414-63.071c2.226-3.854 2.226-8.644 0-12.5l-36.415-63.071c-2.226-3.855-6.374-6.25-10.825-6.25h-72.829c-4.452 0-8.6 2.396-10.825 6.25l-9.009 15.604c-2.071 3.587-.842 8.174 2.745 10.245 3.586 2.071 8.173.842 10.245-2.745l8.288-14.355h69.941l34.971 60.571-34.971 60.572h-69.942l-34.971-60.571 9.183-15.905c2.073-3.589.844-8.176-2.744-10.246z"/><path d="m218.458 356.57 36.414 63.072c2.226 3.855 6.374 6.25 10.825 6.25h72.829c4.451 0 8.599-2.395 10.826-6.25l36.414-63.072c2.226-3.854 2.226-8.644 0-12.5l-36.415-63.073c-2.226-3.854-6.374-6.249-10.825-6.249h-72.829c-4.452 0-8.6 2.395-10.825 6.25l-36.415 63.072c-2.225 3.856-2.225 8.646.001 12.5zm48.683-66.821h69.942l34.971 60.571-34.971 60.572h-69.942l-34.971-60.572z"/><path d="m61.486 265.943 36.415 63.073c2.226 3.854 6.374 6.249 10.825 6.249h72.829c4.452 0 8.6-2.395 10.825-6.25l36.414-63.071c2.227-3.855 2.227-8.646 0-12.501l-36.414-63.071c-2.226-3.855-6.374-6.25-10.825-6.25h-72.829c-4.451 0-8.599 2.395-10.826 6.25l-36.415 63.072c-2.225 3.854-2.225 8.643.001 12.499zm48.682-66.822h69.942l34.971 60.571-34.971 60.572h-69.942l-34.971-60.571z"/><path d="m402.463 299.513h31.547c4.451 0 8.599-2.395 10.826-6.25l15.774-27.321c2.225-3.854 2.225-8.644 0-12.5l-15.773-27.32s0-.001-.001-.001c-2.226-3.854-6.374-6.249-10.825-6.249h-31.547c-4.452 0-8.6 2.395-10.825 6.25l-15.774 27.321c-2.225 3.854-2.225 8.644 0 12.5l15.773 27.32c2.225 3.855 6.373 6.25 10.825 6.25zm1.443-64.641h28.661l14.33 24.821-14.33 24.82h-28.661l-14.33-24.821z"/><path d="m184.57 76.265h-31.75c-4.452 0-8.6 2.395-10.825 6.25l-15.875 27.497c-2.225 3.855-2.225 8.645 0 12.499l15.875 27.496c2.226 3.855 6.374 6.25 10.825 6.25h31.75c4.452 0 8.6-2.395 10.825-6.25l15.875-27.496c2.226-3.854 2.226-8.644 0-12.5l-15.875-27.495c-2.224-3.856-6.373-6.251-10.825-6.251zm-1.443 64.992h-28.863l-14.432-24.996 14.432-24.996h28.863l14.432 24.996z"/><path d="m187.031 355.747h-31.75c-4.452 0-8.601 2.395-10.826 6.251l-15.873 27.493c-2.228 3.856-2.228 8.647-.001 12.501l15.875 27.496c2.226 3.855 6.374 6.25 10.825 6.25h31.75c4.452 0 8.6-2.395 10.825-6.25l15.875-27.496c2.226-3.855 2.226-8.645 0-12.5l-15.875-27.495c-2.225-3.855-6.373-6.25-10.825-6.25zm-1.444 64.992h-28.863l-14.431-24.996 14.431-24.996h28.863l14.432 24.996z"/></g></g><g/><g/><g/><g/><g/><g/><g/><g/><g/><g/><g/><g/><g/><g/><g/></svg>