<?xml version="1.0" encoding="UTF-8" standalone="no"?><!DOCTYPE svg PUBLIC "-//W3C//DTD SVG 1.1//EN" "http://www.w3.org/Graphics/SVG/1.1/DTD/svg11.dtd"><svg width="100%" height="100%" viewBox="0 0 60 57" version="1.1" xmlns="http://www.w3.org/2000/svg" xmlns:xlink="http://www.w3.org/1999/xlink" xml:space="preserve" xmlns:serif="http://www.serif.com/" style="fill-rule:evenodd;clip-rule:evenodd;stroke-linejoin:round;stroke-miterlimit:2;"><path d="M29.544,47.761c-0.9,-0 -1.788,0.219 -2.584,0.639l-14.802,7.782c-0.117,0.062 -0.246,0.095 -0.378,0.095c-0.441,-0 -0.803,-0.363 -0.803,-0.803c0,-0.046 0.004,-0.092 0.012,-0.137l2.829,-16.487c0.307,-1.799 -0.291,-3.639 -1.596,-4.915l-11.978,-11.676c-0.156,-0.15 -0.244,-0.358 -0.244,-0.575c0,-0.397 0.295,-0.737 0.688,-0.793l16.551,-2.411c1.808,-0.261 3.376,-1.399 4.183,-3.038l7.395,-14.995c0.135,-0.273 0.415,-0.447 0.72,-0.447c0.305,0 0.585,0.174 0.72,0.447l7.409,14.999c0.807,1.639 2.374,2.777 4.181,3.039l16.553,2.406c0.393,0.057 0.688,0.398 0.688,0.795c-0,0.216 -0.087,0.422 -0.241,0.573l-11.98,11.676c-1.306,1.276 -1.903,3.116 -1.597,4.915l2.83,16.487c0.059,0.302 -0.067,0.612 -0.321,0.786c-0.243,0.189 -0.578,0.212 -0.846,0.059l-14.804,-7.78c-0.796,-0.421 -1.684,-0.641 -2.585,-0.641Z"/></svg>