<?xml version="1.0" encoding="UTF-8" standalone="no"?><!DOCTYPE svg PUBLIC "-//W3C//DTD SVG 1.1//EN" "http://www.w3.org/Graphics/SVG/1.1/DTD/svg11.dtd"><svg width="100%" height="100%" viewBox="0 0 87 91" version="1.1" xmlns="http://www.w3.org/2000/svg" xmlns:xlink="http://www.w3.org/1999/xlink" xml:space="preserve" xmlns:serif="http://www.serif.com/" style="fill-rule:evenodd;clip-rule:evenodd;stroke-linejoin:round;stroke-miterlimit:2;"><g><g><g><g id="ngicon"><path d="M19.527,21.968l-6.592,0c-4.555,0 -8.336,3.117 -8.661,7.142l-4.252,52.723c-0.171,2.129 0.662,4.225 2.305,5.787c1.645,1.562 3.944,2.449 6.356,2.449l68.73,0c2.412,0 4.711,-0.887 6.356,-2.449c1.642,-1.562 2.476,-3.658 2.305,-5.787l-4.252,-52.723c-0.325,-4.025 -4.106,-7.142 -8.661,-7.142l-6.545,0l0,-1.098c0,-11.527 -10.551,-20.87 -23.568,-20.87c-12.541,0 -24.132,8.844 -23.568,20.87c0.017,0.364 0.032,0.731 0.047,1.098Zm47.089,6.591l0,16.476c0,1.819 -1.667,3.295 -3.721,3.295c-2.054,-0 -3.721,-1.476 -3.721,-3.295l-0,-16.476l-32.252,-0l0,16.476c0,1.819 -1.667,3.295 -3.721,3.295c-2.054,-0 -3.721,-1.476 -3.721,-3.295c-0,-0 0.322,-7.7 0.215,-16.476l-6.76,-0c-0.65,-0 -1.191,0.445 -1.235,1.019l-4.255,52.723c-0.025,0.306 0.094,0.604 0.33,0.829c0.235,0.221 0.563,0.349 0.908,0.349l68.73,-0c0.345,-0 0.672,-0.128 0.908,-0.349c0.236,-0.225 0.355,-0.523 0.33,-0.829l-4.255,-52.723c-0.044,-0.574 -0.585,-1.019 -1.235,-1.019l-6.545,-0Zm-7.442,-6.591l-0,-1.098c-0,-7.887 -7.22,-14.28 -16.126,-14.28c-8.906,0 -16.126,6.393 -16.126,14.28l0,1.098l32.252,0Z" style="fill:#fff;"/></g></g></g></g></svg>