<?xml version="1.0" encoding="UTF-8" standalone="no"?><!DOCTYPE svg PUBLIC "-//W3C//DTD SVG 1.1//EN" "http://www.w3.org/Graphics/SVG/1.1/DTD/svg11.dtd"><svg width="100%" height="100%" viewBox="0 0 123 100" version="1.1" xmlns="http://www.w3.org/2000/svg" xmlns:xlink="http://www.w3.org/1999/xlink" xml:space="preserve" xmlns:serif="http://www.serif.com/" style="fill-rule:evenodd;clip-rule:evenodd;stroke-linejoin:round;stroke-miterlimit:2;"><g><path d="M0,88.415c11.141,7.148 24.374,11.315 38.594,11.315c46.742,0 73.151,-39.482 71.558,-74.895c4.919,-3.545 9.188,-7.979 12.563,-13.034c-4.516,2.006 -9.368,3.361 -14.457,3.963c5.196,-3.108 9.188,-8.042 11.068,-13.928c-4.866,2.884 -10.257,4.982 -15.987,6.114c-4.595,-4.895 -11.136,-7.95 -18.382,-7.95c-16.244,0 -28.191,15.166 -24.52,30.916c-20.926,-1.049 -39.477,-11.073 -51.89,-26.307c-6.6,11.315 -3.424,26.122 7.79,33.615c-4.128,-0.131 -8.018,-1.267 -11.408,-3.151c-0.272,11.665 8.086,22.572 20.193,25.005c-3.545,0.966 -7.425,1.185 -11.364,0.427c3.196,10.009 12.496,17.284 23.515,17.488c-10.582,8.3 -23.918,12.005 -37.273,10.422Z" style="fill:#f7f7f7;fill-rule:nonzero;"/></g></svg>