<?xml version="1.0" encoding="UTF-8" standalone="no"?><!DOCTYPE svg PUBLIC "-//W3C//DTD SVG 1.1//EN" "http://www.w3.org/Graphics/SVG/1.1/DTD/svg11.dtd"><svg width="100%" height="100%" viewBox="0 0 142 100" version="1.1" xmlns="http://www.w3.org/2000/svg" xmlns:xlink="http://www.w3.org/1999/xlink" xml:space="preserve" xmlns:serif="http://www.serif.com/" style="fill-rule:evenodd;clip-rule:evenodd;stroke-linejoin:round;stroke-miterlimit:2;"><g><path d="M138.598,15.574c-1.63,-6.131 -6.426,-10.961 -12.516,-12.598c-11.039,-2.976 -55.306,-2.976 -55.306,-2.976c-0,-0 -44.264,-0 -55.303,2.976c-6.094,1.637 -10.89,6.467 -12.516,12.598c-2.957,11.109 -2.957,34.291 -2.957,34.291c0,0 0,23.182 2.957,34.291c1.626,6.132 6.422,10.961 12.516,12.598c11.039,2.976 55.303,2.976 55.303,2.976c-0,0 44.267,0 55.306,-2.976c6.09,-1.637 10.886,-6.466 12.516,-12.598c2.957,-11.109 2.957,-34.291 2.957,-34.291c-0,0 -0,-23.182 -2.957,-34.291Z" style="fill:#f7f7f7;fill-rule:nonzero;"/><path d="M56.298,70.914l0,-42.097l36.999,21.048l-36.999,21.049Z" style="fill:#b62350;fill-rule:nonzero;"/></g></svg>