<?xml version="1.0" encoding="UTF-8" standalone="no"?><!DOCTYPE svg PUBLIC "-//W3C//DTD SVG 1.1//EN" "http://www.w3.org/Graphics/SVG/1.1/DTD/svg11.dtd"><svg width="100%" height="100%" viewBox="0 0 108 108" version="1.1" xmlns="http://www.w3.org/2000/svg" xmlns:xlink="http://www.w3.org/1999/xlink" xml:space="preserve" xmlns:serif="http://www.serif.com/" style="fill-rule:evenodd;clip-rule:evenodd;stroke-linejoin:round;stroke-miterlimit:2;"><g><path d="M53.741,0c-29.633,0 -53.741,24.108 -53.741,53.741c0,29.632 24.108,53.74 53.741,53.74c13.087,0.011 25.735,-4.78 35.531,-13.459l12.476,12.476c0.631,0.642 1.495,1.005 2.396,1.005c1.842,-0 3.359,-1.516 3.359,-3.359c-0,-0.901 -0.363,-1.765 -1.005,-2.396l-12.476,-12.476c8.679,-9.796 13.47,-22.444 13.459,-35.531c0,-29.633 -24.108,-53.741 -53.74,-53.741Zm-0,100.764c-25.929,-0 -47.023,-21.095 -47.023,-47.023c-0,-25.929 21.094,-47.023 47.023,-47.023c25.928,-0 47.023,21.094 47.023,47.023c-0,25.928 -21.095,47.023 -47.023,47.023Zm21.577,-47.023c-0,1.842 -1.517,3.359 -3.359,3.359l-36.436,-0c-1.843,-0 -3.359,-1.517 -3.359,-3.359c-0,-1.843 1.516,-3.359 3.359,-3.359l36.436,-0c1.842,-0 3.359,1.516 3.359,3.359Z" style="fill:#b62350;fill-rule:nonzero;"/><path d="M53.741,32.175c1.842,-0 3.359,1.516 3.359,3.358l-0,36.437c-0,1.842 -1.517,3.358 -3.359,3.358c-1.843,0 -3.359,-1.516 -3.359,-3.358l-0,-36.437c-0,-1.842 1.516,-3.358 3.359,-3.358Z" style="fill:#b62350;fill-rule:nonzero;"/></g></svg>